<?xml version="1.0" standalone="no"?>
<!DOCTYPE svg PUBLIC "-//W3C//DTD SVG 1.1//EN" "http://www.w3.org/Graphics/SVG/1.1/DTD/svg11.dtd" >
<svg xmlns="http://www.w3.org/2000/svg" xmlns:xlink="http://www.w3.org/1999/xlink" version="1.1">
<metadata>
Created by FontForge 20201107 at Thu Nov 20 16:23:24 2025
 By 
(c) 2024 by Prioritype Co.  All Rights Reserved.
</metadata>
<defs>
<font id="HeuvelGroteskDEMO-ExtraBold" horiz-adv-x="409" >
  <font-face 
    font-family="Heuvel Grotesk DEMO ExtBd"
    font-weight="800"
    font-stretch="normal"
    units-per-em="2048"
    panose-1="0 0 0 0 0 0 0 0 0 0"
    ascent="1638"
    descent="-410"
    x-height="1024"
    cap-height="1434"
    bbox="-266 -532 2482 1913"
    underline-thickness="102"
    underline-position="-255"
    unicode-range="U+000D-FB02"
  />
<missing-glyph horiz-adv-x="512" 
 />
    <glyph glyph-name="fi" unicode="fi" horiz-adv-x="1363" 
d="M39 1024h237v29q-24 0 -54 44q-29 42 -29 142q0 59 17 109q19 55 56 95q38 41 103 67q64 26 155 26h365v-264h-303q-66 0 -100 -37q-33 -36 -33 -96q0 -17 4 -34q5 -21 13 -36t28 -30q18 -13 45 -15h770v-1024h-312v762h-471v-762h-311v762h-180v262zM1001 1434h312v-228
h-312v228z" />
    <glyph glyph-name="fl" unicode="fl" horiz-adv-x="1343" 
d="M39 1024h237v29q-24 0 -54 44q-29 42 -29 142q0 59 17 109q19 55 56 95q38 41 103 67q64 26 155 26h770v-1536h-311v1272h-397q-66 0 -100 -37q-33 -36 -33 -96q0 -17 4 -34q5 -21 13 -36t28 -30q18 -13 45 -15h323v-262h-336v-762h-311v762h-180v262z" />
    <glyph glyph-name=".notdef" horiz-adv-x="512" 
 />
    <glyph glyph-name=".null" horiz-adv-x="0" 
 />
    <glyph glyph-name=".null" horiz-adv-x="0" 
 />
    <glyph glyph-name="uni000D" unicode="&#xd;" horiz-adv-x="512" 
 />
    <glyph glyph-name="space" unicode=" " horiz-adv-x="512" 
 />
    <glyph glyph-name="exclam" unicode="!" horiz-adv-x="413" 
d="M51 1434h311v-1102h-311v1102zM51 215h311v-215h-311v215z" />
    <glyph glyph-name="quotedbl" unicode="&#x22;" horiz-adv-x="749" 
d="M315 1536v-80q0 -22 -6 -82q-10 -97 -13 -126t-13 -126q-2 -20 -5 -47t-4 -35h-182q-1 21 -9 82q-3 23 -7.5 67.5t-6.5 58.5q-10 92 -13 126q-5 67 -5 82v80h264zM698 1536v-80q0 -15 -5 -82q-5 -60 -12 -126q-3 -29 -13 -126q-2 -20 -5 -47t-4 -35h-182q-1 21 -9 82
q-3 23 -7.5 67.5t-6.5 58.5q-10 92 -13 126q-5 67 -5 82v80h262z" />
    <glyph glyph-name="numbersign" unicode="#" horiz-adv-x="1488" 
d="M213 346h-172v264h246l57 213h-176v264h248l96 347h272l-94 -347h314l96 347h272l-96 -347h172v-264h-244l-57 -213h176v-264h-250l-94 -346h-272l94 346h-314l-96 -346h-272zM872 610l60 213h-316l-57 -213h313z" />
    <glyph glyph-name="dollar" unicode="$" horiz-adv-x="1286" 
d="M541 1659h200v-211q75 -7 162 -34q83 -26 149 -78q66 -53 108 -136q42 -84 42 -211v-51h-309v49q0 66 -33 117t-119 74v-334q89 -18 180 -44q86 -25 159 -73q71 -47 115 -121t44 -186q0 -85 -29 -160q-28 -74 -90 -132q-60 -57 -155 -95q-93 -37 -224 -49v-209h-200v209
q-78 7 -170 32q-88 24 -161 77q-74 54 -119 137q-46 85 -46 214v52h309v-50q0 -69 44 -122q45 -54 143 -72v360q-78 16 -179 43q-83 23 -157 69q-68 43 -113 114q-43 68 -43 178q0 83 28 161q26 73 86 133q57 58 152 95q94 37 226 45v209zM541 1184q-59 -7 -96 -29
q-35 -20 -55 -45q-19 -23 -25 -50q-7 -30 -7 -44q0 -59 50 -88t133 -45v301zM741 252q61 10 99 30q35 18 56 44q20 25 26 50q6 26 6 44q0 64 -51 99q-47 32 -136 54v-321z" />
    <glyph glyph-name="percent" unicode="%" horiz-adv-x="1730" 
d="M377 645q-70 0 -133 29q-62 29 -106 82q-43 52 -69 128t-26 167q0 88 26 164t69 128q44 53 106 82q63 29 133 29t133 -29q60 -28 105 -82t70 -128q26 -76 26 -164q0 -91 -26 -167q-25 -74 -70 -128t-105 -82q-63 -29 -133 -29zM307 0l813 1434h303l-813 -1434h-303z
M377 1241q-41 0 -68 -46q-26 -45 -26 -144q0 -101 26 -146q27 -47 68 -47q40 0 67 47t27 146q0 97 -27 144q-27 46 -67 46zM1354 -20q-73 0 -133 28q-62 29 -106 82q-43 52 -69 128t-26 167q0 89 26 165t69 128q44 53 106 82q60 28 133 28t133 -28t105 -82t70 -128
q26 -76 26 -165q0 -91 -26 -167q-25 -74 -70 -128t-105 -82t-133 -28zM1354 575q-41 0 -68 -46q-26 -45 -26 -144q0 -100 26 -145q27 -47 68 -47q40 0 67 47t27 145q0 97 -27 144q-27 46 -67 46z" />
    <glyph glyph-name="ampersand" unicode="&#x26;" horiz-adv-x="1499" 
d="M154 1098q0 72 24 136q24 63 82 114q55 48 149 77q93 29 226 29q107 0 195 -17q94 -18 164 -60q71 -42 113 -114t42 -184v-32h-309v26q0 35 -21 58q-20 22 -50 35q-34 15 -62 19q-37 5 -58 5q-30 0 -67 -5q-32 -4 -58 -19t-40 -34q-15 -21 -15 -53q0 -43 47 -88
q44 -42 122 -94q43 -29 170 -105q103 -62 191 -124q13 84 13 184v61h293v-53q0 -94 -28 -192q-26 -90 -65 -170q109 -102 177 -223q69 -122 69 -275h-309q0 93 -29 151q-28 55 -51 74q-22 -42 -70 -87q-47 -44 -113 -80t-149 -57t-174 -21q-121 0 -212 26q-96 27 -163 81
q-66 53 -104 136q-37 81 -37 193q0 78 23 147q22 67 63 117q41 51 97 77q57 27 122 27v29q-13 0 -44 16q-29 15 -66 52q-34 34 -62 88q-26 51 -26 129zM483 659q-55 0 -97 -54t-42 -140q0 -65 23 -108t59 -66q40 -26 83 -34q46 -9 91 -9q53 0 98 15q42 14 79 38q35 23 57 51
q22 27 28 56q-23 28 -77 66q-58 42 -109 75q-41 27 -111 67q-56 32 -82 43z" />
    <glyph glyph-name="quotesingle" unicode="'" horiz-adv-x="364" 
d="M315 1536v-80q0 -22 -6 -82q-10 -97 -13 -126t-13 -126q-2 -20 -5 -47t-4 -35h-182q-1 21 -9 82q-3 23 -7.5 67.5t-6.5 58.5q-10 92 -13 126q-5 67 -5 82v80h264z" />
    <glyph glyph-name="parenleft" unicode="(" horiz-adv-x="692" 
d="M51 612q0 173 31 314q29 134 82 239q50 101 115 173q64 71 130 115q68 45 128 64t108 19v-264q-58 0 -108 -43q-53 -45 -91 -126q-37 -79 -62 -206q-24 -123 -24 -285q0 -160 24 -285q25 -128 62 -207q38 -81 91 -126q50 -43 108 -43v-264q-48 0 -108 19t-128 64
t-130 114q-65 73 -115 174q-52 106 -82 241q-31 141 -31 313z" />
    <glyph glyph-name="parenright" unicode=")" horiz-adv-x="692" 
d="M641 612q0 -172 -31 -313q-29 -133 -81 -241q-49 -104 -114 -174q-65 -71 -130 -114q-70 -46 -128 -64q-61 -19 -110 -19v264q59 0 109 43q51 44 90 126q37 79 62 207q24 125 24 285q0 162 -24 285q-25 127 -62 206q-39 83 -90 126q-50 43 -109 43v264q49 0 110 -19
q58 -18 128 -64q62 -41 130 -115q64 -70 114 -173q52 -107 81 -239q31 -141 31 -314z" />
    <glyph glyph-name="asterisk" unicode="*" horiz-adv-x="1050" 
d="M668 1536v-57q0 -29 -5 -99q-1 -7 -12 -125q91 39 131 55q80 32 105 40l55 16l76 -252l-53 -18l-20 -6q-20 -6 -32 -9q-54 -13 -66 -16q-16 -3 -73 -17q-53 -13 -72 -16q8 -9 25.5 -27.5t26.5 -28.5q18 -20 52 -58q10 -11 27 -30.5t20 -23.5q22 -26 34 -43l35 -45
l-213 -155l-35 45q-23 29 -65 91q-25 37 -74 118q-40 -67 -75 -118q-42 -62 -65 -91l-35 -45l-213 155l35 45q19 24 80 94q7 8 100 113q-2 1 -30 7t-43 9q-10 2 -77 18q-42 10 -71 18q-13 3 -30.5 9t-22.5 7l-55 18l78 252l53 -16q12 -4 51 -19q11 -4 33 -12.5t32 -12.5
q13 -5 38 -15.5t31 -13.5q5 -2 30 -12.5t37 -15.5q-4 63 -9 129q-6 88 -6 101v57h267z" />
    <glyph glyph-name="plus" unicode="+" horiz-adv-x="1343" 
d="M541 524h-490v264h490v525h264v-525h489v-264h-489v-524h-264v524z" />
    <glyph glyph-name="comma" unicode="," horiz-adv-x="522" 
d="M483 254l-243 -496h-201l135 496h309z" />
    <glyph glyph-name="hyphen" unicode="-" horiz-adv-x="882" 
d="M831 788v-264h-780v264h780z" />
    <glyph glyph-name="period" unicode="." horiz-adv-x="430" 
d="M51 145q0 72 45 117t119 45q75 0 118 -45q44 -46 44 -117q0 -74 -44 -120q-43 -45 -118 -45q-74 0 -119 45t-45 120z" />
    <glyph glyph-name="slash" unicode="/" horiz-adv-x="913" 
d="M600 1454h279l-566 -1673h-278z" />
    <glyph glyph-name="zero" unicode="0" horiz-adv-x="1329" 
d="M668 -20q-186 0 -326 73q-142 74 -221 240q-80 168 -80 444q0 287 81 457t222 246q140 76 324 76t323 -76q138 -76 218 -247q79 -170 79 -456q0 -278 -79 -443q-80 -169 -218 -241q-139 -73 -323 -73zM668 360q66 0 110 34q46 35 68 117q22 81 22 226q0 164 -22 249
q-22 86 -68 121q-44 34 -110 34t-112 -34t-70 -121q-23 -83 -23 -249q0 -145 22 -226q22 -82 68 -117q44 -34 115 -34z" />
    <glyph glyph-name="one" unicode="1" horiz-adv-x="813" 
d="M455 1495h209v-1495h-412v1149l-133 -35l-111 252z" />
    <glyph glyph-name="two" unicode="2" horiz-adv-x="1167" 
d="M1085 1081q0 -113 -47 -218q-46 -103 -126 -198q-89 -105 -172 -182q-104 -96 -185 -166h530v-317h-1013v317h2q102 95 210 186q96 81 198 180q89 86 148 176q56 85 56 171q0 62 -29 97t-72 47t-87 12q-56 0 -114 -21q-60 -21 -106 -46q-55 -29 -79 -46l-31 -20l-115 266
l39 30q35 27 111 68q73 40 170 69q99 30 217 30q249 0 373 -116q122 -115 122 -319z" />
    <glyph glyph-name="three" unicode="3" horiz-adv-x="1218" 
d="M686 936q220 -7 355 -121t135 -315q0 -173 -90 -290q-89 -116 -236 -173t-322 -57q-120 0 -212 22q-98 23 -164 52q-80 35 -111 52l125 306q53 -34 126 -70q79 -39 193 -39q111 0 182 52q72 53 72 169q0 106 -93 156q-92 49 -232 20l6 11l-37 -15l12 318l125 166h-430
v315h662v-8l6 8l229 -168z" />
    <glyph glyph-name="four" unicode="4" horiz-adv-x="1247" 
d="M1196 563v-287h-131v-276h-360v276h-670v318l645 901h385v-932h131zM414 563h291v424z" />
    <glyph glyph-name="five" unicode="5" horiz-adv-x="1212" 
d="M692 954q130 0 237 -49q109 -50 171 -147q63 -99 63 -244t-58 -265q-59 -122 -186 -197t-339 -75q-123 0 -223 20q-98 20 -161 46q-68 28 -99 46l-34 20l97 327l34 -20q24 -15 87 -47q47 -24 117 -47q64 -21 126 -21q113 0 181 53q67 52 67 154q0 89 -49 142
q-50 55 -148 55q-61 0 -123 -31t-85 -51l-250 77l59 795h852l25 -315h-582l-20 -291q53 30 112 47q61 18 129 18z" />
    <glyph glyph-name="six" unicode="6" horiz-adv-x="1263" 
d="M743 979q151 0 259 -60q107 -60 165 -166q58 -107 58 -239q0 -162 -69 -282t-192 -187q-125 -68 -294 -68q-194 0 -330 98q-136 99 -205 264q-69 166 -69 376q0 239 75 415q78 182 218 283q144 103 341 103q111 0 195 -24q83 -24 130 -48q46 -24 46 -27l-102 -264l-31 19
q-25 15 -85 35q-54 18 -126 18q-114 0 -186 -99q-72 -98 -88 -278q50 61 124 96q73 35 166 35zM674 305q92 0 130 62t38 147q0 99 -53 150t-125 51q-81 0 -132 -52q-50 -52 -61 -153q28 -99 82 -153q52 -52 121 -52z" />
    <glyph glyph-name="seven" unicode="7" horiz-adv-x="1202" 
d="M1196 1495l-696 -1495h-445l572 1180h-555v315h1124z" />
    <glyph glyph-name="eight" unicode="8" horiz-adv-x="1286" 
d="M942 801q133 -39 212 -133t79 -256q0 -150 -80 -245t-214 -142q-138 -48 -296 -48q-159 0 -297 48q-132 46 -213 142q-80 95 -80 245q0 161 77 256q76 94 212 135q-109 44 -161 123t-52 190q0 184 130 292q131 108 384 108q251 0 382 -108q130 -108 130 -292
q0 -226 -213 -315zM643 1214q-62 0 -104 -32q-43 -33 -43 -123q0 -59 39 -97q40 -38 108 -38q148 0 148 135q0 87 -42 122q-40 33 -106 33zM643 264q99 0 149 41t50 131q0 87 -55 131q-53 43 -144 43q-90 0 -145 -43q-56 -44 -56 -131q0 -172 201 -172z" />
    <glyph glyph-name="nine" unicode="9" horiz-adv-x="1286" 
d="M594 1516q188 0 329 -75q140 -74 218 -238t78 -427q0 -166 -39 -311t-120 -255t-204 -171q-124 -62 -289 -62q-109 0 -199 17q-93 18 -142 34q-52 17 -64 19l98 295q9 -2 48 -19q32 -14 103 -35q60 -18 126 -18q129 0 189 89t77 229q-44 -46 -108 -74q-66 -29 -156 -29
q-136 0 -248 56q-111 55 -177 167q-67 113 -67 283q0 152 64 272q62 117 185 185q122 68 298 68zM594 791q103 0 147 56q47 59 54 122q-21 112 -70 171q-49 60 -131 60q-80 0 -123 -54q-43 -53 -43 -155q0 -89 41 -145q40 -55 125 -55z" />
    <glyph glyph-name="colon" unicode=":" horiz-adv-x="430" 
d="M51 883q0 71 45 116t119 45q75 0 118 -45q44 -46 44 -116q0 -75 -44 -121q-43 -45 -118 -45q-74 0 -119 45t-45 121zM51 145q0 72 45 117t119 45q75 0 118 -45q44 -46 44 -117q0 -74 -44 -120q-43 -45 -118 -45q-74 0 -119 45t-45 120z" />
    <glyph glyph-name="semicolon" unicode=";" horiz-adv-x="536" 
d="M160 883q0 71 45 116t121 45q71 0 116 -45t45 -116q0 -76 -45 -121t-116 -45q-76 0 -121 45t-45 121zM483 254l-243 -496h-201l135 496h309z" />
    <glyph glyph-name="less" unicode="&#x3c;" horiz-adv-x="1044" 
d="M248 518q10 0 20 -1q15 -1 33 -3q12 -1 38 -5q22 -3 34 -7l620 -205v-289l-942 395v254l942 398v-289l-620 -205q-12 -4 -34 -7q-26 -4 -38 -5q-18 -1 -33 -3q-10 -1 -20 -1v-27z" />
    <glyph glyph-name="equal" unicode="=" horiz-adv-x="1083" 
d="M1032 840v-262h-981v262h981zM1032 436v-262h-981v262h981z" />
    <glyph glyph-name="greater" unicode="&#x3e;" horiz-adv-x="1044" 
d="M797 545q-13 0 -54 3q-43 3 -71 13l-621 205v289l942 -398v-254l-942 -395v289l621 205q30 10 71 12q31 1 54 4v27z" />
    <glyph glyph-name="question" unicode="?" horiz-adv-x="1171" 
d="M1122 1004q0 -105 -31 -174q-30 -67 -80 -122q-47 -51 -104 -93q-61 -44 -103 -80q-46 -39 -80 -89q-32 -47 -32 -114h-311q0 84 32 150q31 64 80 116q48 51 103 94q56 44 103 88t80 96q32 50 32 113q0 42 -11 75q-12 37 -37 63q-25 27 -69 45q-43 18 -104 18
q-62 0 -108 -19q-44 -18 -72 -48q-29 -31 -42 -66q-14 -39 -14 -76v-39h-307v47q0 109 27 185t70 128q41 49 101 81t116 47q55 15 120 20q53 4 109 4q117 0 218 -28q97 -27 168 -83t108 -140q38 -87 38 -199zM381 0v215h311v-215h-311z" />
    <glyph glyph-name="at" unicode="@" horiz-adv-x="1908" 
d="M1268 -197q-81 -34 -166 -52q-79 -17 -205 -17q-174 0 -324 56q-154 57 -269 162q-114 104 -184 259q-69 153 -69 350q0 207 68 375t190 281q124 115 297 176t387 61q186 0 343 -49q160 -50 276 -148q116 -99 182 -246q66 -148 66 -349q0 -102 -23 -203q-22 -96 -71 -173
q-49 -76 -122 -120q-75 -45 -182 -45q-66 0 -119 13t-98 44q-42 29 -70 79q-27 49 -38 118q-47 -101 -128 -152t-186 -51q-84 0 -153 32q-70 33 -115 88q-48 59 -73 133q-25 75 -25 167q0 90 24 166q23 74 71 131q46 55 111 87q66 32 144 32q44 0 93 -11t87 -35
q39 -25 75 -70q32 -40 54 -112l27 8q-2 6 -7 19t-9.5 25t-8.5 24q-14 36 -14 92v45h274l2 -467q0 -101 26 -139q25 -37 64 -37q58 0 92 72q33 69 33 237q0 156 -43 261q-44 109 -120 174q-77 66 -190 97q-111 30 -249 30q-129 0 -252 -36q-122 -36 -217 -114
q-94 -77 -151 -204q-58 -128 -58 -306q0 -166 58 -282t143 -186q84 -69 189 -100q102 -30 192 -30t154 13q62 13 143 47zM1104 616q0 62 -48 103q-49 41 -155 41q-71 0 -120 -42q-50 -42 -50 -128q0 -83 50 -127q49 -43 120 -43q107 0 155 42t48 103v51z" />
    <glyph glyph-name="A" unicode="A" horiz-adv-x="1458" 
d="M551 1434h356l525 -1434h-330l-105 301h-538l-105 -301h-329zM715 1106q0 -15 -4 -38q-5 -27 -12 -56q-2 -9 -4.5 -19.5t-5.5 -23.5t-5 -20q-5 -21 -16 -54l-117 -330h354l-114 328q-15 43 -17 54q-3 11 -8 32t-7 32q-4 15 -11 57q-5 28 -5 38h-28z" />
    <glyph glyph-name="B" unicode="B" horiz-adv-x="1234" 
d="M51 1434h545q133 0 226 -26q90 -25 149 -73q58 -47 82 -113t24 -147q0 -101 -38 -165q-37 -62 -96 -97q-60 -35 -127 -47q-69 -12 -132 -12v-29q48 0 104 -3q61 -3 112 -14q59 -12 108 -34q50 -22 91 -63q38 -38 63 -100q24 -60 24 -149q0 -88 -33 -155q-33 -68 -91 -114
q-56 -45 -140 -69q-82 -24 -183 -24h-688v1434zM563 862q85 0 145 33t60 121q0 50 -17 78q-18 31 -45 47q-26 16 -65 22q-37 6 -78 6h-203v-307h203zM360 598v-334h273q49 0 92 6q40 5 77 25q33 17 53 50q19 31 19 83q0 55 -21 88t-57 51q-39 19 -80 25q-44 6 -91 6h-265z
" />
    <glyph glyph-name="C" unicode="C" horiz-adv-x="1435" 
d="M49 717q0 165 42 302q42 135 128 232q88 98 216 150q132 53 306 53q282 0 441 -135q158 -134 202 -367l-309 -39q-24 135 -104 206t-230 71q-197 0 -289 -125t-92 -348t92 -348t289 -125q151 0 230 70q80 71 104 206l309 -39q-22 -118 -71 -208q-50 -90 -131 -158
q-80 -66 -190 -101q-108 -34 -251 -34q-174 0 -306 53q-130 52 -216 149t-128 233t-42 302z" />
    <glyph glyph-name="D" unicode="D" horiz-adv-x="1265" 
d="M51 1434h508q164 0 289 -52q123 -51 205 -145q81 -93 122 -226q39 -127 39 -294t-39 -294q-41 -133 -122 -226q-83 -96 -205 -146q-123 -51 -289 -51h-508v1434zM524 264q57 0 129 16q67 15 123 63q54 47 91 137q36 89 36 237q0 147 -36 236q-37 91 -91 138
q-56 48 -123 63t-129 15h-162v-905h162z" />
    <glyph glyph-name="E" unicode="E" horiz-adv-x="1032" 
d="M51 1434h936v-265h-627v-309h537v-264h-537v-332h627v-264h-936v1434z" />
    <glyph glyph-name="F" unicode="F" horiz-adv-x="1028" 
d="M51 1434h936v-265h-627v-309h537v-264h-537v-596h-309v1434z" />
    <glyph glyph-name="G" unicode="G" horiz-adv-x="1468" 
d="M49 717q0 165 42 302q42 135 128 232q88 98 216 150q132 53 306 53q282 0 441 -135q158 -134 202 -367l-309 -39q-24 135 -104 206t-230 71q-197 0 -289 -125t-92 -348q0 -221 93 -348q92 -125 272 -125q67 0 126 22t112 61q49 36 91 86q39 47 64 99h-321v264h620v-776
h-311v82q0 28 9 66t21 75q19 60 22 67q12 30 20 38l-29 10q-27 -44 -54 -105q-25 -56 -76 -117q-47 -56 -123 -97q-72 -39 -196 -39q-157 0 -280 53q-121 52 -204 149t-125 233t-42 302z" />
    <glyph glyph-name="H" unicode="H" horiz-adv-x="1263" 
d="M49 1434h309v-564h545v564h309v-1434h-309v604h-545v-604h-309v1434z" />
    <glyph glyph-name="I" unicode="I" 
d="M49 1434h311v-1434h-311v1434z" />
    <glyph glyph-name="J" unicode="J" horiz-adv-x="1144" 
d="M360 502q0 -51 8 -101t29 -82q22 -33 65 -55q40 -20 111 -20q70 0 110 20q43 22 65 55q21 32 29 82q7 43 7 101v932h312v-932q0 -281 -133 -402q-132 -120 -390 -120q-260 0 -390 120q-132 122 -132 402h309z" />
    <glyph glyph-name="K" unicode="K" horiz-adv-x="1359" 
d="M358 561v-561h-307v1434h307v-664l441 664h354l-371 -535q-33 -49 -64 -79q-26 -25 -61 -47q-27 -17 -53 -22q-32 -6 -43 -6v-28h135q95 0 161 -23q67 -23 110 -62q44 -39 74 -94q30 -54 57 -120q2 -4 19 -43.5t26 -62.5q18 -43 53 -111q31 -60 61 -108q34 -54 70 -93
h-358q-71 91 -111 193q-40 103 -88 202q-26 54 -57 88q-29 32 -69 51q-36 17 -83 22q-50 5 -100 5h-103z" />
    <glyph glyph-name="L" unicode="L" horiz-adv-x="1001" 
d="M51 1434h309v-1170h592v-264h-901v1434z" />
    <glyph glyph-name="M" unicode="M" horiz-adv-x="1515" 
d="M772 389q0 3 0.5 10.5t1 22.5t0.5 29q1 36 10 127q5 50 22 166q14 94 36 184l143 506h479v-1434h-309v582q0 92 8 194q7 90 20 176q18 116 21 134q11 56 15 67l-27 6l-295 -1159h-279l-294 1159l-27 -6q0 -1 15 -67q11 -48 22 -134q10 -79 18 -176q8 -102 8 -194v-582
h-309v1434h479l144 -506q22 -90 36 -184q14 -95 21 -166q9 -91 10 -127q0 -14 0.5 -29t1 -22.5t0.5 -10.5h29z" />
    <glyph glyph-name="N" unicode="N" horiz-adv-x="1232" 
d="M281 1110l-29 -10q11 -16 29 -75q13 -45 35 -140q16 -72 31 -165q13 -82 13 -151v-569h-309v1434h375l526 -1110l29 10q-11 23 -27 75q-18 58 -36 140q-20 87 -32 165q-14 89 -14 150v570h312v-1434h-375z" />
    <glyph glyph-name="O" unicode="O" horiz-adv-x="1497" 
d="M750 -20q-178 0 -310 53q-131 53 -218 149q-86 95 -130 233q-43 135 -43 302t43 302q44 137 130 232q89 98 218 150q132 53 310 53q175 0 307 -53q129 -52 218 -150q86 -95 130 -232q43 -135 43 -302t-43 -302q-44 -138 -130 -233q-87 -96 -218 -149q-132 -53 -307 -53z
M750 1190q-199 0 -294 -125q-96 -126 -96 -348t96 -348q95 -125 294 -125q197 0 292 125t95 348t-95 348t-292 125z" />
    <glyph glyph-name="P" unicode="P" horiz-adv-x="1206" 
d="M49 1434h563q260 0 402 -122q141 -121 141 -380q0 -258 -142 -381q-143 -123 -401 -123h-252v-428h-311v1434zM598 692q45 0 91 8q43 7 79 34q33 24 55 73q21 47 21 125t-21 124t-55 71q-36 27 -79 34q-46 8 -91 8h-238v-477h238z" />
    <glyph glyph-name="Q" unicode="Q" horiz-adv-x="1501" 
d="M750 -20q-178 0 -310 53q-131 53 -218 149q-86 95 -130 233q-43 135 -43 302t43 302q44 137 130 232q89 98 218 150q132 53 310 53q175 0 307 -53q129 -52 218 -150q86 -95 130 -232q43 -135 43 -302q0 -168 -43 -301q-43 -135 -129 -234l172 -358h-309l-99 203
q-130 -47 -290 -47zM750 1190q-199 0 -294 -125q-96 -126 -96 -348t96 -348q95 -125 294 -125q197 0 292 125t95 348t-95 348t-292 125z" />
    <glyph glyph-name="R" unicode="R" horiz-adv-x="1263" 
d="M903 0q-32 87 -40 162q-7 69 -7 164q0 77 -23 117q-24 42 -63 63q-36 19 -91 24q-58 5 -108 5h-209v-535h-311v1434h611q134 0 229 -30q93 -29 151 -83q58 -53 83 -129q26 -78 26 -166q0 -86 -28 -154q-26 -64 -73 -108t-108 -65q-62 -21 -131 -21v-31q37 0 101 -8
q58 -7 117 -40q54 -30 96 -92q40 -59 40 -165q0 -91 10 -179q9 -80 46 -163h-318zM629 801q34 0 74 8q39 8 69 32q32 25 50 62q20 40 20 101q0 58 -20 92q-19 33 -53 49q-32 15 -79 20q-40 4 -94 4h-234v-370z" />
    <glyph glyph-name="S" unicode="S" horiz-adv-x="1286" 
d="M49 1016q0 91 32 173q31 80 102 139q68 57 182 92q109 34 266 34q89 0 185 -16q97 -16 185 -67t144 -141q57 -92 57 -241v-51h-309v49q0 41 -12 78q-11 36 -43 64q-32 29 -81 45q-48 16 -126 16q-88 0 -145 -19q-54 -18 -82 -46t-35 -57q-9 -36 -9 -52q0 -38 21 -62
q23 -26 57 -41q30 -13 87 -27q40 -10 112 -22q101 -18 207 -42q110 -25 194 -69q89 -47 145 -125t56 -208q0 -93 -35 -174q-35 -80 -108 -140q-70 -57 -187 -93q-108 -33 -270 -33q-87 0 -187 16q-104 17 -194 66t-152 142q-61 91 -61 240v52h309v-50q0 -38 17 -77t50 -65
q36 -28 88 -44t130 -16q99 0 156 18q55 17 87 46q30 27 38 59t8 53q0 47 -28 78q-27 30 -76 50q-48 20 -111 33q-48 10 -138 25q-91 17 -188 42q-91 23 -170 68q-75 43 -122 115q-46 71 -46 185z" />
    <glyph glyph-name="T" unicode="T" horiz-adv-x="1284" 
d="M45 1434h1192v-265h-440v-1169h-310v1169h-442v265z" />
    <glyph glyph-name="U" unicode="U" horiz-adv-x="1245" 
d="M623 244q47 0 94 9q45 9 84 37q34 25 60 76q24 48 24 126v942h311v-961q0 -153 -50 -251q-49 -97 -131 -150q-83 -54 -184 -73q-99 -19 -208 -19q-110 0 -209 19q-101 19 -184 73q-80 52 -130 150q-49 97 -49 251v961h309v-942q0 -78 24 -126q26 -51 60 -76
q39 -28 84 -37q46 -9 95 -9z" />
    <glyph glyph-name="V" unicode="V" horiz-adv-x="1458" 
d="M743 328q0 10 5 38q7 42 11 57l15 63q3 14 17 55l311 893h330l-525 -1434h-356l-526 1434h329l314 -895q8 -32 14 -55q10 -42 15 -62q7 -29 12 -56q4 -23 4 -38h30z" />
    <glyph glyph-name="W" unicode="W" horiz-adv-x="2007" 
d="M989 1069q0 -5 -0.5 -16.5t-1 -32.5t-0.5 -40q-1 -59 -8 -162q-7 -102 -16 -186q-10 -94 -29 -165l-127 -467h-447l-329 1434h317l184 -867q9 -50 12 -80q6 -62 8 -93q4 -69 5 -82q0 -9 0.5 -20t1 -17t0.5 -9h27v36q0 38 1 62q2 50 5 78q4 42 12 88l182 904h435l182 -904
q15 -84 17 -166q1 -66 -1 -98h29q0 3 0.5 9t1 17t0.5 20q1 13 5 82q4 62 7 93q4 42 11 80l186 867h315l-327 -1434h-447l-127 467q-19 71 -29 165q-9 84 -16 186q-7 103 -8 162q0 19 -0.5 40t-1 32.5t-0.5 16.5h-29z" />
    <glyph glyph-name="X" unicode="X" horiz-adv-x="1470" 
d="M735 1032l312 402h391l-465 -603q-44 -58 -71 -80q-25 -20 -38 -20l-2 -29q17 0 40 -19q25 -21 71 -81l465 -602h-394l-309 401l-311 -401h-391l465 602q47 63 70 81q23 19 40 19l-2 29q-13 0 -38 20t-70 80l-465 603h391z" />
    <glyph glyph-name="Y" unicode="Y" horiz-adv-x="1349" 
d="M395 1434l236 -394q20 -38 25 -81q6 -56 6 -72h28q0 35 4 72q4 42 27 81l235 394h365l-490 -775v-659h-311v659l-489 775h364z" />
    <glyph glyph-name="Z" unicode="Z" horiz-adv-x="1093" 
d="M45 1434h989v-265l-604 -905h621v-264h-994v264l605 905h-617v265z" />
    <glyph glyph-name="bracketleft" unicode="[" horiz-adv-x="483" 
d="M49 1536h387v-240h-123v-1368h123v-239h-387v1847z" />
    <glyph glyph-name="backslash" unicode="\" horiz-adv-x="913" 
d="M600 -219l-565 1673h278l566 -1673h-279z" />
    <glyph glyph-name="bracketright" unicode="]" horiz-adv-x="483" 
d="M45 -311v239h123v1368h-123v240h387v-1847h-387z" />
    <glyph glyph-name="asciicircum" unicode="^" horiz-adv-x="1095" 
d="M532 1337q0 -12 -3 -54q-3 -43 -15 -77l-199 -579h-288l395 909h250l397 -909h-289l-198 579q-15 34 -18 77q-3 42 -3 54h-29z" />
    <glyph glyph-name="underscore" unicode="_" horiz-adv-x="1050" 
d="M1001 264v-264h-950v264h950z" />
    <glyph glyph-name="grave" unicode="`" horiz-adv-x="434" 
d="M35 1536h170l194 -305h-116z" />
    <glyph glyph-name="a" unicode="a" horiz-adv-x="1087" 
d="M59 297q0 95 36 159q35 63 93 104q54 38 129 57q72 18 142 18q75 0 146 -17q69 -16 120 -57v43q0 78 -48 126t-165 48q-104 0 -193 -30q-84 -28 -141 -66l-119 236q90 52 219 90q121 36 269 36q52 0 140 -8q81 -7 161 -46q76 -37 133 -118q55 -79 55 -221v-651h-309v66
q0 74 29 132q31 61 41 91l-25 12q-31 -75 -62 -129q-32 -56 -78 -102q-44 -44 -106 -68q-64 -25 -145 -25q-63 0 -124 22q-58 21 -102 62q-45 42 -70 101q-26 61 -26 135zM721 442q-23 29 -64 48q-39 18 -94 18q-51 0 -87 -15q-34 -14 -59 -41q-22 -24 -35 -60
q-11 -32 -11 -68q0 -72 38 -107t97 -35q78 0 138 69q61 70 77 191z" />
    <glyph glyph-name="b" unicode="b" horiz-adv-x="1247" 
d="M51 0v1536h309v-567q0 -68 -13 -116q-17 -61 -25 -85l24 -16q27 85 68 143q40 57 90 90q49 33 104 46q53 13 113 13q123 0 208 -39q88 -40 148 -111q59 -69 89 -169q30 -99 30 -213t-30 -213q-30 -100 -89 -169q-60 -71 -148 -111q-85 -39 -208 -39q-60 0 -113 13
q-55 13 -104 46q-51 34 -90 89q-42 59 -68 144l-24 -16q4 -12 26 -84q14 -45 12 -115v-57h-309zM362 539v-56q0 -34 13 -81q11 -40 43 -80q30 -37 83 -63q54 -26 132 -26q43 0 90 14q45 13 81 45q35 31 58 86t23 134t-23 133t-58 86t-81 46q-47 14 -90 14q-78 0 -132 -26
q-52 -25 -83 -64q-32 -39 -43 -81q-13 -47 -13 -81z" />
    <glyph glyph-name="c" unicode="c" horiz-adv-x="1122" 
d="M49 512q0 115 34 213q35 99 100 169q66 70 167 111q97 39 234 39q219 0 339 -104q121 -105 148 -297l-293 -20q-10 71 -61 114q-50 43 -133 43q-118 0 -170 -73q-54 -76 -54 -195t54 -195q52 -73 170 -73q83 0 133 43q51 43 61 114l293 -20q-27 -192 -148 -297
q-120 -104 -339 -104q-137 0 -234 39q-101 41 -167 111q-65 70 -100 169q-34 98 -34 213z" />
    <glyph glyph-name="d" unicode="d" horiz-adv-x="1247" 
d="M1196 0h-311v57q0 69 14 115q15 50 27 84l-27 16q-27 -90 -66 -144q-39 -55 -90 -89q-49 -33 -104 -46q-53 -13 -115 -13q-122 0 -207 39q-86 39 -147 111q-59 69 -89 169q-30 99 -30 213t30 213q30 100 89 169q61 72 147 111q85 39 207 39q62 0 115 -13q55 -13 104 -46
t90 -90q38 -53 66 -143l27 16q-10 28 -27 85q-14 46 -14 116v567h309zM885 539q0 34 -13 81q-11 42 -43 81q-31 39 -83 64q-54 26 -132 26q-43 0 -90 -14q-46 -14 -81 -46t-58 -86t-23 -133t23 -134t58 -86q36 -32 81 -45q47 -14 90 -14q78 0 132 26q53 26 83 63
q32 40 43 80q13 47 13 81v56z" />
    <glyph glyph-name="e" unicode="e" horiz-adv-x="1105" 
d="M49 512q0 111 31 213q29 97 94 169q63 70 162 111q95 39 231 39q110 0 197 -28q86 -28 152 -89q65 -61 100 -156q35 -96 35 -228v-86l-686 -6q10 -94 63 -151q52 -56 164 -56q86 0 137 42t78 95l246 -131q-52 -127 -177 -199q-123 -71 -298 -71q-138 0 -233 39
q-99 41 -165 111q-65 69 -98 169q-33 99 -33 213zM748 653q0 59 -45 102q-43 42 -125 42t-129 -39q-47 -40 -68 -105h367z" />
    <glyph glyph-name="f" unicode="f" horiz-adv-x="929" 
d="M39 1024h237v29q-24 0 -54 44q-29 42 -29 142q0 59 17 109q19 55 56 95q38 41 103 67q64 26 155 26h365v-264h-303q-66 0 -100 -37q-33 -36 -33 -96q0 -17 4 -34q5 -21 13 -36t28 -30q18 -13 45 -15h323v-262h-336v-762h-311v762h-180v262z" />
    <glyph glyph-name="g" unicode="g" horiz-adv-x="1247" 
d="M1196 -98q0 -107 -42 -188q-41 -80 -116 -136t-172 -83q-99 -27 -213 -27q-112 0 -211 27q-96 26 -172 82q-72 53 -115 134q-42 79 -42 185h311q0 -72 57 -118q56 -46 172 -46q119 0 175 46q57 47 57 124v155q0 69 14 115q15 50 27 84l-27 14q-28 -88 -66 -142
q-39 -55 -90 -89q-49 -33 -104 -46q-53 -13 -115 -13q-122 0 -207 39q-86 39 -147 111q-59 69 -89 169q-30 99 -30 213t30 213q30 100 89 169q61 72 147 111q85 39 207 39q62 0 115 -13q55 -13 104 -46t90 -90q38 -53 66 -143l27 16q-10 28 -27 85q-14 46 -14 116v55h309z
M885 483v56q0 34 -13 81q-11 42 -43 81q-31 39 -83 64q-54 26 -132 26q-43 0 -90 -14q-46 -14 -81 -46t-58 -86t-23 -133t23 -134t58 -86q36 -32 81 -45q47 -14 90 -14q78 0 132 26q53 26 83 63q32 40 43 80q13 47 13 81z" />
    <glyph glyph-name="h" unicode="h" horiz-adv-x="1079" 
d="M721 561q0 99 -39 137q-38 37 -90 37q-56 0 -100 -32t-72 -82q-29 -52 -44 -116q-16 -69 -16 -132v-373h-309v1536h309v-625q0 -99 -17 -140q-20 -47 -38 -71l21 -20q36 47 66 107q32 63 75 120q45 59 106 98t162 39q54 0 101 -11q51 -12 94 -46t70 -100q28 -68 28 -176
v-711h-307v561z" />
    <glyph glyph-name="i" unicode="i" horiz-adv-x="413" 
d="M51 1434h311v-228h-311v228zM51 1024h311v-1024h-311v1024z" />
    <glyph glyph-name="j" unicode="j" horiz-adv-x="411" 
d="M49 1434h311v-228h-311v228zM49 1024h311v-1004q0 -133 -32 -222q-32 -88 -86 -150q-51 -58 -121 -91q-69 -32 -137 -47q-75 -16 -136 -19q-66 -3 -114 -3v264q61 0 118 15q58 15 101 47q45 33 72 83q26 48 26 123z" />
    <glyph glyph-name="k" unicode="k" horiz-adv-x="1193" 
d="M537 569q26 1 64 14q43 14 68 31q30 20 54 49q22 26 22 62q0 45 -22 68q-23 24 -74 24q-66 0 -119 -41q-54 -41 -91 -110q-36 -67 -58 -161q-21 -91 -21 -190v-315h-309v1536h309v-571q0 -97 -10 -147q-12 -59 -26 -99l26 -8q27 75 70 144q37 60 89 104q51 43 115 64
t148 21q58 0 107 -13q51 -13 89 -44q37 -29 60 -79q23 -49 23 -117q0 -58 -19 -104q-19 -45 -44 -75q-27 -32 -55 -50q-30 -20 -54 -30l282 -532h-342z" />
    <glyph glyph-name="l" unicode="l" horiz-adv-x="411" 
d="M49 1536h311v-1536h-311v1536z" />
    <glyph glyph-name="m" unicode="m" horiz-adv-x="1748" 
d="M975 700l20 -20q39 51 67 107q32 63 75 120q45 59 106 98t162 39q53 0 100 -11q51 -12 94 -46q45 -35 71 -100q28 -68 28 -176v-711h-307v561q0 99 -39 137q-38 37 -90 37q-57 0 -101 -32q-42 -31 -71 -82q-29 -52 -44 -116q-16 -69 -16 -132l-2 -373h-307v561
q0 52 -10 85q-10 34 -28 53q-20 21 -41 28q-26 8 -48 8q-57 0 -101 -32q-46 -33 -73 -82q-29 -52 -44 -116q-16 -69 -16 -132v-373h-309v1024h309v-113q0 -99 -17 -140q-20 -47 -38 -71l21 -20q36 47 66 107q32 63 78 120q48 59 115 98q66 39 177 39q41 0 86 -9
q43 -9 83 -34q38 -24 63 -67q26 -44 26 -111q0 -47 -15 -75q-17 -33 -30 -48z" />
    <glyph glyph-name="n" unicode="n" horiz-adv-x="1079" 
d="M721 561q0 99 -39 137q-38 37 -90 37q-56 0 -100 -32t-72 -82q-29 -52 -44 -116q-16 -69 -16 -132v-373h-309v1024h309v-113q0 -99 -17 -140q-20 -47 -38 -71l21 -20q36 47 66 107q32 63 75 120q45 59 106 98t162 39q54 0 101 -11q51 -12 94 -46t70 -100q28 -68 28 -176
v-711h-307v561z" />
    <glyph glyph-name="o" unicode="o" horiz-adv-x="1169" 
d="M49 512q0 115 34 213q35 99 100 169q66 70 167 111q97 39 236 39q136 0 233 -39q101 -41 167 -111q65 -70 100 -169q34 -98 34 -213t-34 -213q-35 -99 -100 -169q-66 -70 -167 -111q-97 -39 -233 -39q-139 0 -236 39q-101 41 -167 111q-65 70 -100 169q-34 98 -34 213z
M360 512q0 -120 55 -195q54 -73 171 -73t171 73t54 195t-54 195t-171 73t-171 -73q-55 -75 -55 -195z" />
    <glyph glyph-name="p" unicode="p" horiz-adv-x="1247" 
d="M51 1024h309v-57q2 -70 -12 -115q-17 -57 -29 -84l27 -14q26 83 68 142q39 55 90 89q49 33 104 46q53 13 113 13q123 0 208 -39q88 -40 148 -111q59 -69 89 -169q30 -99 30 -213q0 -116 -30 -214q-31 -99 -89 -168q-60 -71 -148 -111q-85 -39 -208 -39q-60 0 -113 13
q-55 13 -104 46q-51 34 -90 89q-42 59 -68 142l-27 -14q14 -36 28 -86q13 -48 13 -117v-565h-309v1536zM362 483q0 -34 13 -81q11 -40 43 -80q30 -37 83 -63q54 -26 132 -26q43 0 90 14q46 14 81 46t58 86t23 135q0 79 -23 133q-23 55 -58 85q-36 32 -81 45q-47 14 -90 14
q-78 0 -132 -26q-53 -26 -83 -63q-32 -40 -43 -80q-13 -47 -13 -81v-58z" />
    <glyph glyph-name="q" unicode="q" horiz-adv-x="1247" 
d="M1196 1024l-2 -1536h-309v565q0 71 14 117q9 31 27 86l-27 14q-28 -88 -66 -142q-39 -55 -90 -89q-49 -33 -104 -46q-53 -13 -115 -13q-122 0 -207 39q-86 39 -147 111q-58 69 -89 168q-30 97 -30 214q0 114 30 213q30 100 89 169q61 72 147 111q85 39 207 39
q62 0 115 -13q55 -13 104 -46q51 -34 90 -89q38 -54 66 -142l27 14q-12 34 -27 84q-14 46 -14 115v57h311zM885 483v58q0 34 -13 81q-11 40 -43 80q-30 37 -83 63q-54 26 -132 26q-43 0 -90 -14q-45 -13 -81 -45q-35 -30 -58 -85q-23 -54 -23 -133q0 -81 23 -135t58 -86
t81 -46q47 -14 90 -14q78 0 132 26q53 26 83 63q32 40 43 80q13 47 13 81z" />
    <glyph glyph-name="r" unicode="r" horiz-adv-x="897" 
d="M854 731q-129 0 -225 -35q-94 -34 -154 -97t-87 -149q-28 -90 -28 -194v-256h-311v1024h311v-215q0 -58 -19 -92q-21 -36 -38 -64l23 -16q33 43 69 112q35 67 90 128q53 59 143 104q86 43 226 43v-293z" />
    <glyph glyph-name="s" unicode="s" horiz-adv-x="1097" 
d="M49 713q0 164 117 248q116 83 358 83q72 0 152 -7q87 -8 163 -39q77 -32 130 -98q53 -67 53 -185v-25h-309v29q0 44 -44 65q-43 21 -128 21q-92 0 -138 -20q-45 -19 -45 -54q0 -21 22 -37q17 -12 57 -24q36 -10 81 -18q65 -11 94 -17q72 -15 150 -30t141 -48
q65 -34 105 -90q41 -58 41 -156q0 -86 -36 -149q-36 -64 -102 -104q-64 -39 -157 -59q-89 -19 -205 -19q-85 0 -173 15q-89 15 -162 56q-74 42 -120 113q-47 73 -47 184v25h311v-29q0 -63 55 -94q56 -31 152 -31q35 0 63 4q30 4 56 14t40 25q15 16 15 39q0 30 -23 47
q-26 20 -60 31q-38 13 -78 21q-61 13 -84 16q-62 14 -151 31q-73 14 -144 46q-67 31 -108 80q-42 51 -42 140z" />
    <glyph glyph-name="t" unicode="t" horiz-adv-x="942" 
d="M43 1024h182v283h310v-283h358v-264h-358v-191q0 -145 76 -202q78 -58 233 -58v-309q-138 0 -254 26q-115 26 -196 90q-82 65 -125 175q-44 112 -44 278v191h-182v264z" />
    <glyph glyph-name="u" unicode="u" horiz-adv-x="1079" 
d="M358 463q0 -100 40 -137t89 -37q58 0 102 32q46 33 73 82q29 52 44 116q15 65 15 132v373h307v-1024h-307v115q0 43 5 81q4 34 12 58q8 25 18 41q4 6 10.5 16.5t7.5 12.5l-20 20q-39 -51 -67 -107q-31 -63 -75 -120q-45 -59 -106 -98t-162 -39q-53 0 -100 11
q-51 12 -94 46q-45 35 -71 100q-28 68 -28 176v711h307v-561z" />
    <glyph glyph-name="v" unicode="v" horiz-adv-x="1095" 
d="M373 0l-346 1024h327l146 -530q8 -30 22 -92q10 -44 10 -76h31q0 32 10 76q8 38 23 92l145 530h328l-346 -1024h-350z" />
    <glyph glyph-name="w" unicode="w" horiz-adv-x="1548" 
d="M926 1024l102 -465q6 -27 9 -58q2 -17 4 -60q0 -8 0.5 -25t1.5 -24q1 -14 1 -30h31q0 16 1 32q2 35 4 53q2 20 6 62q2 26 10 56l100 459h322l-281 -1024h-356l-74 307q-5 25 -10 85q-3 38 -5 115q0 18 -0.5 52.5t-1.5 50.5q0 13 -0.5 25.5t-1 18.5t-0.5 8h-28v-52
q0 -25 -2 -103q-1 -39 -5 -115q-3 -50 -10 -85l-73 -307h-357l-280 1024h321l101 -459q6 -24 9 -56q4 -42 6 -62q2 -18 4 -53q1 -16 1 -32h31q0 16 1 30q1 7 1.5 24t0.5 25q2 43 4 60q3 31 9 58l101 465h303z" />
    <glyph glyph-name="x" unicode="x" horiz-adv-x="1144" 
d="M721 498q20 0 51 -28t76 -91l266 -379h-377l-164 254l-163 -254h-377l266 379q45 64 74 91q31 28 51 28v28q-20 0 -51 28q-29 27 -74 91l-266 379h377l163 -254l164 254h377l-266 -379q-45 -63 -76 -91t-51 -28v-28z" />
    <glyph glyph-name="y" unicode="y" horiz-adv-x="1095" 
d="M723 0q-51 -158 -116 -260q-65 -100 -138 -156q-72 -55 -155 -76q-77 -20 -167 -20v309q68 0 115 21t80 51t51 65q20 39 27 66h-47l-346 1024h327l146 -530q8 -30 22 -92q10 -44 10 -76h31q0 32 10 76q8 38 23 92l145 530h328z" />
    <glyph glyph-name="z" unicode="z" horiz-adv-x="886" 
d="M43 1024h770v-264l-375 -496h404v-264h-791v264l371 496h-379v264z" />
    <glyph glyph-name="braceleft" unicode="{" horiz-adv-x="575" 
d="M303 598q16 0 43 -9q25 -8 52 -32t44 -62q19 -43 19 -102t-15 -101q-20 -57 -30 -78q-3 -6 -14 -31t-17 -37q-14 -29 -14 -68q0 -41 16 -64q17 -24 41 -38q24 -13 52 -18q30 -5 50 -5v-264q-124 0 -204 23q-86 25 -137 64t-75 91q-24 51 -24 106q0 67 16 115q18 53 37 93
q18 38 37 89q17 46 17 105q0 73 -42 105q-43 32 -106 32v201q65 0 106 31q42 32 42 106q0 58 -17 104q-18 50 -37 90t-37 95q-16 48 -16 114q0 57 24 106q25 51 75 90q49 38 137 63q84 24 204 24v-264q-20 0 -50 -5q-26 -4 -52 -19q-24 -14 -41 -38q-16 -23 -16 -63t14 -69
q5 -10 15 -32t16 -34q10 -21 30 -77q15 -42 15 -101q0 -60 -19 -103q-18 -40 -44 -63q-27 -24 -52 -32q-27 -9 -43 -9v-29z" />
    <glyph glyph-name="bar" unicode="|" horiz-adv-x="362" 
d="M49 1536h264v-1855h-264v1855z" />
    <glyph glyph-name="braceright" unicode="}" horiz-adv-x="575" 
d="M272 598v29q-16 0 -43 9q-25 8 -52 32q-26 23 -44 63q-18 41 -18 103t14 101q17 48 31 77q6 12 15.5 34t14.5 32q15 32 15 69q0 38 -17 63t-40 38q-27 15 -51 19q-30 5 -52 5v264q121 0 205 -24q86 -25 136 -63q52 -40 76 -90q23 -47 23 -106q0 -66 -16 -114
q-18 -55 -37 -95t-37 -90q-16 -44 -16 -104q0 -74 42 -106q41 -31 105 -31v-201q-62 0 -105 -32q-42 -32 -42 -105q0 -61 16 -105q19 -51 37 -89q19 -40 37 -93q16 -48 16 -115q0 -57 -23 -106q-24 -51 -76 -91t-136 -64q-80 -23 -205 -23v264q22 0 52 5q27 4 51 18
q23 13 40 38t17 64q0 36 -15 68q-5 11 -15 34t-15 34q-14 31 -31 78q-14 39 -14 101q0 61 18 102q17 38 44 62t52 32q27 9 43 9z" />
    <glyph glyph-name="asciitilde" unicode="~" horiz-adv-x="944" 
d="M637 584q25 0 38 12q12 11 19 29q6 16 6 37v34h199v-88q0 -53 -14 -96q-15 -46 -45 -84q-28 -35 -77 -59q-48 -23 -110 -23q-63 0 -110 22q-44 21 -83 47q-36 24 -73 47q-35 21 -78 21q-25 0 -38 -12q-12 -11 -19 -29q-6 -17 -6 -35v-36h-199v88q0 53 14 96q15 47 45 84
q28 35 77 59q48 23 110 23q63 0 110 -22q41 -19 82 -47q45 -30 72 -47q34 -21 80 -21z" />
    <glyph glyph-name="exclamdown" unicode="&#xa1;" horiz-adv-x="413" 
d="M362 1024v-215h-311v215h311zM362 692v-1102h-311v1102h311z" />
    <glyph glyph-name="cent" unicode="&#xa2;" horiz-adv-x="1122" 
d="M469 1454h201v-209q175 -21 277 -123q101 -101 124 -274l-293 -21q-6 50 -35 88q-29 39 -73 56v-508q45 18 73 55q29 38 35 88l293 -20q-23 -174 -124 -275q-102 -102 -277 -123v-208h-201v213q-210 34 -315 177q-105 142 -105 347t105 347q105 143 315 177v213zM469 958
q-58 -34 -83 -94q-26 -63 -26 -147q0 -85 26 -148q25 -60 83 -94v483z" />
    <glyph glyph-name="sterling" unicode="&#xa3;" horiz-adv-x="1120" 
d="M109 1018q0 204 129 320q130 116 370 116q28 0 75 -3q50 -3 97 -17q52 -15 104 -42q50 -26 94 -76q41 -47 69 -121q26 -69 26 -177v-33h-309v39q0 86 -43 126t-121 40q-92 0 -136 -47t-44 -125q0 -93 14 -155q4 -18 29 -140h338v-201h-324q-6 -70 -32 -138
q-27 -71 -64 -120h680v-264h-998v264q27 23 60 49q27 21 46 46q19 24 31 63q11 36 13 100h-168v201h129q-26 70 -44 131q-21 72 -21 164z" />
    <glyph glyph-name="yen" unicode="&#xa5;" horiz-adv-x="1372" 
d="M406 1434l235 -394q22 -40 26 -81q5 -47 5 -72h28q0 25 5 72q5 44 26 81l236 394h364l-444 -701h284v-201h-329v-94h329v-200h-329v-238h-312v238h-329v200h329v94h-329v201h284l-444 701h365z" />
    <glyph glyph-name="section" unicode="&#xa7;" horiz-adv-x="1099" 
d="M49 1122q0 164 117 248t358 84q72 0 152 -7q87 -8 163 -39q77 -32 130 -98q53 -67 53 -186v-24h-309v28q0 45 -44 66q-41 20 -128 20q-183 0 -183 -90q0 -30 22 -52q21 -21 57 -36q28 -12 81 -24q50 -12 94 -21q72 -15 150 -36q79 -21 142 -61q67 -42 106 -103
q41 -64 41 -162q0 -83 -34 -144q-35 -63 -95 -102q57 -43 93 -108q36 -64 36 -160q0 -91 -36 -155t-102 -105q-69 -42 -157 -61q-89 -19 -205 -19q-87 0 -175 15q-89 15 -162 56q-72 41 -119 113q-46 71 -46 184v25h311v-29q0 -63 55 -94q56 -31 152 -31q35 0 62 4
q30 4 55 17q26 13 40 33q15 21 15 51q0 42 -23 69q-26 31 -59 48q-34 18 -77 28q-61 15 -84 19q-90 18 -153 35q-75 20 -144 59q-67 38 -108 94q-42 57 -42 145q0 166 133 271q-57 37 -96 96q-37 56 -37 139zM739 621q0 36 -23 60q-24 26 -59 44q-36 19 -77 30
q-36 10 -84 17q-45 -6 -72 -18q-23 -10 -41 -28q-13 -13 -18 -32q-5 -18 -5 -30q0 -32 22 -60q20 -26 57 -46q34 -18 81 -34q33 -11 94 -24q65 12 96 47q29 33 29 74z" />
    <glyph glyph-name="dieresis" unicode="&#xa8;" horiz-adv-x="522" 
d="M51 1368q0 39 24 63q23 23 62 23q40 0 63 -23t23 -63q0 -39 -23 -62q-24 -24 -63 -24q-38 0 -62 24t-24 62zM299 1368q0 39 24 63q23 23 62 23t62 -23q24 -24 24 -63q0 -38 -24 -62t-62 -24t-62 24t-24 62z" />
    <glyph glyph-name="copyright" unicode="&#xa9;" horiz-adv-x="1574" 
d="M49 717q0 164 53 302q51 133 150 232t232 150q138 53 302 53q165 0 303 -53q133 -51 232 -150q97 -97 149 -232q54 -140 54 -302t-54 -302q-52 -136 -149 -233t-232 -149q-138 -53 -303 -53q-164 0 -302 53q-135 52 -232 149q-98 98 -150 233q-53 138 -53 302zM238 717
q0 -131 34 -234q33 -102 105 -178q70 -74 172 -115q101 -40 237 -40q137 0 239 40q103 40 173 115q72 76 105 178q34 103 34 234q0 130 -34 233q-33 101 -105 179q-69 75 -173 116q-105 41 -239 41t-237 -41t-172 -116q-72 -78 -105 -179q-34 -103 -34 -233zM414 717
q0 186 94 296q94 111 289 111q155 0 243 -73t111 -201l-170 -25q-15 78 -57 115q-43 39 -127 39q-112 0 -162 -70q-49 -68 -49 -192q0 -125 49 -193q49 -69 162 -69q83 0 127 39q42 38 57 114l170 -24q-23 -128 -111 -201q-89 -74 -243 -74q-194 0 -289 112q-94 110 -94 296
z" />
    <glyph glyph-name="ordfeminine" unicode="&#xaa;" horiz-adv-x="806" 
d="M57 1024q0 67 26 114q24 44 67 74q41 29 91 41q54 13 101 13q54 0 103 -12q52 -13 85 -40v29q0 56 -33 89q-34 34 -118 34q-72 0 -136 -23q-60 -21 -100 -47l-86 170q64 36 156 64q87 26 193 26q40 0 100 -6q62 -6 115 -32q56 -27 94 -83q39 -57 39 -159v-463h-222v47
q0 52 21 93q16 32 31 65l-19 8q-24 -55 -44 -90q-27 -46 -56 -72q-33 -30 -76 -48q-41 -17 -102 -17q-96 0 -162 59q-68 60 -68 166zM526 1128q-39 48 -110 48q-72 0 -104 -36q-31 -35 -31 -83t25 -70t67 -22q49 0 95 43t58 120z" />
    <glyph glyph-name="guillemotleft" unicode="&#xab;" horiz-adv-x="765" 
d="M49 594l313 340v-270l-149 -113q-11 -8 -28 -15q-19 -8 -31 -8l-2 -32q34 0 55 -15l155 -121v-268l-313 338v164zM403 594l312 340v-270l-150 -113q-13 -9 -27 -15q-19 -8 -32 -8v-32q32 0 53 -15l156 -121v-268l-312 338v164z" />
    <glyph glyph-name="registered" unicode="&#xae;" horiz-adv-x="1574" 
d="M49 717q0 164 53 302q51 133 150 232t232 150q138 53 302 53q165 0 303 -53q133 -51 232 -150q97 -97 149 -232q54 -140 54 -302t-54 -302q-52 -136 -149 -233t-232 -149q-138 -53 -303 -53q-164 0 -302 53q-135 52 -232 149q-98 98 -150 233q-53 138 -53 302zM238 717
q0 -131 34 -234q33 -102 105 -178q70 -74 172 -115q101 -40 237 -40q137 0 239 40q103 40 173 115q72 76 105 178q34 103 34 234q0 130 -34 233q-33 101 -105 179q-69 75 -173 116q-105 41 -239 41t-237 -41t-172 -116q-72 -78 -105 -179q-34 -103 -34 -233zM940 319
q-18 49 -21 91q-4 54 -4 90q0 42 -12 66q-12 23 -34 36t-50 14q-38 2 -59 2h-121v-299h-172v795h340q153 0 213 -61q59 -60 59 -166q0 -104 -55 -147q-56 -44 -133 -44v-16q18 0 55 -5q33 -5 64 -23q32 -19 53 -51q22 -34 22 -93q0 -40 6 -98q5 -46 25 -91h-176zM791 764
q41 0 79 21q37 21 37 92q0 33 -10 50q-9 16 -29 26q-21 11 -43 12q-32 2 -53 2h-133v-203h152z" />
    <glyph glyph-name="degree" unicode="&#xb0;" horiz-adv-x="790" 
d="M51 1214q0 149 86 246q85 96 258 96t258 -96q86 -97 86 -246q0 -146 -86 -243t-258 -97t-258 97t-86 243zM274 1214q0 -65 30 -107t91 -42t91 42t30 107q0 68 -30 110t-91 42t-91 -42t-30 -110z" />
    <glyph glyph-name="plusminus" unicode="&#xb1;" horiz-adv-x="1204" 
d="M469 551h-418v211h418v223h264v-223h420v-211h-420v-223h-264v223zM1153 209v-209h-1102v209h1102z" />
    <glyph glyph-name="twosuperior" unicode="&#xb2;" horiz-adv-x="843" 
d="M788 1233q0 -91 -31 -156q-31 -64 -81 -113t-110 -83q-79 -46 -116 -63q-27 -13 -103 -52q-44 -23 -68 -55h514v-191h-738v191q6 49 45 90q40 41 97 79q48 31 121 74q67 39 119 78q51 38 91 88q37 46 37 107q0 16 -5 43q-5 26 -19 46q-15 21 -42 36q-25 14 -73 14
q-49 0 -79 -15q-28 -14 -47 -38q-18 -23 -24 -46q-6 -24 -6 -42v-29h-223v25q0 110 38 177q38 66 95 101q56 34 122 46q59 11 120 11q165 0 266 -86q100 -85 100 -237z" />
    <glyph glyph-name="threesuperior" unicode="&#xb3;" horiz-adv-x="921" 
d="M803 1296q0 -58 -20 -100q-21 -43 -48 -66t-64 -35q-36 -12 -69 -12v-22q49 0 92 -7q46 -7 86 -32q39 -24 65 -71q25 -46 25 -124q0 -95 -39 -158t-100 -99q-59 -34 -134 -50q-67 -14 -140 -14t-142 13q-73 14 -130 50q-58 37 -96 104t-38 173v37h223v-43q0 -20 10 -48
t30 -48t59 -34t94 -14q27 0 58 6q30 6 59 22q27 15 45 42t18 68q0 73 -60 100t-188 27v190q70 0 124 33q55 34 55 88q0 48 -42 71q-43 23 -102 23q-77 0 -110 -37t-33 -90v-29h-223v35q0 67 19 123t65 99q45 42 115 66q68 23 173 23q166 0 263 -62q100 -64 100 -198z" />
    <glyph glyph-name="acute" unicode="&#xb4;" horiz-adv-x="434" 
d="M35 1231l194 305h170l-245 -305h-119z" />
    <glyph glyph-name="periodcentered" unicode="&#xb7;" horiz-adv-x="430" 
d="M51 575q0 72 45 117t119 45t119 -45t45 -117q0 -75 -45 -120t-119 -45t-119 45t-45 120z" />
    <glyph glyph-name="cedilla" unicode="&#xb8;" horiz-adv-x="475" 
d="M424 -250q0 -86 -48 -141t-153 -55q-91 0 -135 51q-43 50 -43 133v8h135v-10q0 -30 8 -59q8 -27 41 -27q24 0 42 17q20 18 20 83q0 42 -15 67t-49 25q-19 0 -32 -5t-19 -11q-9 -7 -10 -14h-105l35 188h119l-25 -90l33 8q15 4 39 4q28 0 57 -9t53 -30q23 -20 38 -53
q14 -31 14 -80z" />
    <glyph glyph-name="onesuperior" unicode="&#xb9;" horiz-adv-x="415" 
d="M141 1329l-102 -29v191l326 45v-1022h-224v815z" />
    <glyph glyph-name="ordmasculine" unicode="&#xba;" horiz-adv-x="811" 
d="M51 1178q0 79 22 151q22 71 66 120q46 50 112 79q65 28 155 28q91 0 156 -28q67 -29 111 -79q43 -49 66 -120t23 -151q0 -81 -23 -152t-66 -120q-44 -50 -111 -79q-65 -28 -156 -28q-90 0 -155 28q-66 29 -112 79q-44 49 -66 120q-22 72 -22 152zM274 1178q0 -86 32 -138
q32 -51 100 -51q67 0 100 51t33 138q0 86 -33 137t-100 51q-68 0 -100 -51q-32 -52 -32 -137z" />
    <glyph glyph-name="guillemotright" unicode="&#xbb;" horiz-adv-x="765" 
d="M403 92v268l156 121q21 15 53 15v32q-12 0 -31 8q-17 7 -28 15l-150 113v270l312 -340v-164zM49 92v268l158 121q14 10 24 12q15 3 29 3v32q-13 0 -32 8q-14 6 -27 15l-152 113v270l313 -340v-164z" />
    <glyph glyph-name="questiondown" unicode="&#xbf;" horiz-adv-x="1171" 
d="M791 1024v-215h-312v215h312zM51 16q0 101 32 174q30 69 79 124q50 56 103 94q60 42 104 81q43 38 78 89q32 47 32 114h312q0 -84 -32 -150q-31 -64 -80 -116q-48 -51 -104 -95q-49 -39 -103 -89q-47 -44 -80 -96q-32 -50 -32 -113q0 -39 12 -75t37 -64q27 -30 68 -47
t105 -17t107 18q44 18 73 49q29 30 42 67q13 36 13 77v37h309v-47q0 -111 -26 -185q-26 -75 -71 -127q-44 -51 -100 -81q-64 -34 -117 -47q-57 -14 -121 -19q-53 -4 -109 -4q-114 0 -217 28q-100 27 -168 82q-71 57 -108 140q-38 85 -38 198z" />
    <glyph glyph-name="Agrave" unicode="&#xc0;" horiz-adv-x="1458" 
d="M551 1434h356l525 -1434h-330l-105 301h-538l-105 -301h-329zM715 1106q0 -15 -4 -38q-5 -27 -12 -56q-2 -9 -4.5 -19.5t-5.5 -23.5t-5 -20q-5 -21 -16 -54l-117 -330h354l-114 328q-15 43 -17 54q-3 11 -8 32t-7 32q-4 15 -11 57q-5 28 -5 38h-28zM506 1892h170
l194 -305h-116z" />
    <glyph glyph-name="Aacute" unicode="&#xc1;" horiz-adv-x="1458" 
d="M551 1434h356l525 -1434h-330l-105 301h-538l-105 -301h-329zM715 1106q0 -15 -4 -38q-5 -27 -12 -56q-2 -9 -4.5 -19.5t-5.5 -23.5t-5 -20q-5 -21 -16 -54l-117 -330h354l-114 328q-15 43 -17 54q-3 11 -8 32t-7 32q-4 15 -11 57q-5 28 -5 38h-28zM586 1587l194 305h170
l-245 -305h-119z" />
    <glyph glyph-name="Acircumflex" unicode="&#xc2;" horiz-adv-x="1458" 
d="M551 1434h356l525 -1434h-330l-105 301h-538l-105 -301h-329zM715 1106q0 -15 -4 -38q-5 -27 -12 -56q-2 -9 -4.5 -19.5t-5.5 -23.5t-5 -20q-5 -21 -16 -54l-117 -330h354l-114 328q-15 43 -17 54q-3 11 -8 32t-7 32q-4 15 -11 57q-5 28 -5 38h-28zM729 1780l-123 -193
h-104l155 305h144l155 -305h-102z" />
    <glyph glyph-name="Atilde" unicode="&#xc3;" horiz-adv-x="1458" 
d="M551 1434h356l525 -1434h-330l-105 301h-538l-105 -301h-329zM715 1106q0 -15 -4 -38q-5 -27 -12 -56q-2 -9 -4.5 -19.5t-5.5 -23.5t-5 -20q-5 -21 -16 -54l-117 -330h354l-114 328q-15 43 -17 54q-3 11 -8 32t-7 32q-4 15 -11 57q-5 28 -5 38h-28zM803 1722q21 0 33 21
t12 74h94v-78q0 -22 -6 -49q-6 -26 -22 -50q-14 -21 -41 -37t-62 -16q-39 0 -63 16t-38 33q-6 7 -16 19.5t-11 14.5q-13 16 -30 16q-19 0 -31 -21t-12 -74h-94v78q0 22 6 49q5 24 22 49q15 23 41 38q27 16 62 16q40 0 64 -16q21 -14 37 -33q5 -7 13.5 -18.5t11.5 -15.5
q13 -16 30 -16z" />
    <glyph glyph-name="Adieresis" unicode="&#xc4;" horiz-adv-x="1458" 
d="M551 1434h356l525 -1434h-330l-105 301h-538l-105 -301h-329zM715 1106q0 -15 -4 -38q-5 -27 -12 -56q-2 -9 -4.5 -19.5t-5.5 -23.5t-5 -20q-5 -21 -16 -54l-117 -330h354l-114 328q-15 43 -17 54q-3 11 -8 32t-7 32q-4 15 -11 57q-5 28 -5 38h-28zM520 1675q0 39 24 63
q23 23 62 23q40 0 63 -23t23 -63q0 -39 -23 -62q-24 -24 -63 -24q-38 0 -62 24t-24 62zM768 1675q0 39 24 63q23 23 62 23t62 -23q24 -24 24 -63q0 -38 -24 -62t-62 -24t-62 24t-24 62z" />
    <glyph glyph-name="Aring" unicode="&#xc5;" horiz-adv-x="1458" 
d="M551 1434h356l525 -1434h-330l-105 301h-538l-105 -301h-329zM715 1106q0 -15 -4 -38q-5 -27 -12 -56q-2 -9 -4.5 -19.5t-5.5 -23.5t-5 -20q-5 -21 -16 -54l-117 -330h354l-114 328q-15 43 -17 54q-3 11 -8 32t-7 32q-4 15 -11 57q-5 28 -5 38h-28zM530 1733q0 81 55 131
q53 49 144 49t144 -49q55 -50 55 -131t-55 -131t-144 -50t-144 50t-55 131zM666 1733q0 -40 17 -63t46 -23t46 23q18 24 18 63q0 38 -18 62t-46 24t-46 -24q-17 -23 -17 -62z" />
    <glyph glyph-name="AE" unicode="&#xc6;" horiz-adv-x="2045" 
d="M1063 301l-483 -2l-189 -299h-366l909 1434h1067v-265h-627v-309h537v-264h-537v-332h627v-264h-938v301zM1038 1169q0 -14 -5 -47t-16 -69q-14 -46 -29 -82q-19 -45 -44 -86l-199 -320h318v604h-25z" />
    <glyph glyph-name="Ccedilla" unicode="&#xc7;" horiz-adv-x="1435" 
d="M49 717q0 165 42 302q42 135 128 232q88 98 216 150q132 53 306 53q282 0 441 -135q158 -134 202 -367l-309 -39q-24 135 -104 206t-230 71q-197 0 -289 -125t-92 -348t92 -348t289 -125q151 0 230 70q80 71 104 206l309 -39q-22 -118 -71 -208q-50 -90 -131 -158
q-80 -66 -190 -101q-108 -34 -251 -34q-174 0 -306 53q-130 52 -216 149t-128 233t-42 302zM989 -231q0 -87 -48 -142t-153 -55q-92 0 -135 51q-43 50 -43 133v8h135v-10q0 -26 9 -58q8 -28 41 -28q23 0 42 18t19 83q0 42 -14 66q-15 26 -49 26q-20 0 -33 -5q-11 -4 -19 -12
q-9 -7 -10 -14h-104l35 188h118l-24 -90l32 9q15 4 39 4q26 0 58 -10q30 -9 52 -29t38 -54q14 -31 14 -79z" />
    <glyph glyph-name="Egrave" unicode="&#xc8;" horiz-adv-x="1032" 
d="M51 1434h936v-265h-627v-309h537v-264h-537v-332h627v-264h-936v1434zM299 1892h170l195 -305h-117z" />
    <glyph glyph-name="Eacute" unicode="&#xc9;" horiz-adv-x="1032" 
d="M51 1434h936v-265h-627v-309h537v-264h-537v-332h627v-264h-936v1434zM377 1587l194 305h170l-245 -305h-119z" />
    <glyph glyph-name="Ecircumflex" unicode="&#xca;" horiz-adv-x="1032" 
d="M51 1434h936v-265h-627v-309h537v-264h-537v-332h627v-264h-936v1434zM520 1780l-123 -193h-104l156 305h143l156 -305h-103z" />
    <glyph glyph-name="Edieresis" unicode="&#xcb;" horiz-adv-x="1032" 
d="M51 1434h936v-265h-627v-309h537v-264h-537v-332h627v-264h-936v1434zM311 1675q0 39 24 63q23 23 62 23q40 0 63 -23t23 -63q0 -39 -23 -62q-24 -24 -63 -24q-38 0 -62 24t-24 62zM559 1675q0 39 24 63q23 23 62 23q40 0 63 -23t23 -63q0 -39 -23 -62q-24 -24 -63 -24
q-38 0 -62 24t-24 62z" />
    <glyph glyph-name="Igrave" unicode="&#xcc;" 
d="M49 1434h311v-1434h-311v1434zM-16 1892h170l194 -305h-117z" />
    <glyph glyph-name="Iacute" unicode="&#xcd;" 
d="M49 1434h311v-1434h-311v1434zM61 1587l195 305h170l-246 -305h-119z" />
    <glyph glyph-name="Icircumflex" unicode="&#xce;" 
d="M49 1434h311v-1434h-311v1434zM205 1780l-123 -193h-105l156 305h143l156 -305h-102z" />
    <glyph glyph-name="Idieresis" unicode="&#xcf;" 
d="M49 1434h311v-1434h-311v1434zM-4 1675q0 40 23 63t63 23q39 0 62 -23q24 -24 24 -63q0 -38 -24 -62t-62 -24q-39 0 -63 24q-23 23 -23 62zM244 1675q0 40 23 63t63 23q39 0 62 -23q24 -24 24 -63q0 -38 -24 -62t-62 -24q-39 0 -63 24q-23 23 -23 62z" />
    <glyph glyph-name="Ntilde" unicode="&#xd1;" horiz-adv-x="1232" 
d="M281 1110l-29 -10q11 -16 29 -75q13 -45 35 -140q16 -72 31 -165q13 -82 13 -151v-569h-309v1434h375l526 -1110l29 10q-11 23 -27 75q-18 58 -36 140q-20 87 -32 165q-14 89 -14 150v570h312v-1434h-375zM696 1722q21 0 33 21t12 74h95v-78q0 -17 -7 -49q-6 -28 -21 -50
q-14 -21 -41 -37t-62 -16q-40 0 -64 16t-38 33q-6 7 -14.5 18.5t-11.5 15.5q-13 16 -30 16q-20 0 -32 -21q-11 -19 -11 -74h-94v78q0 22 6 49q6 26 21 49t41 38q27 16 63 16q39 0 63 -16q21 -14 37 -33q6 -7 14.5 -18.5t11.5 -15.5q13 -16 29 -16z" />
    <glyph glyph-name="Ograve" unicode="&#xd2;" horiz-adv-x="1497" 
d="M750 -20q-178 0 -310 53q-131 53 -218 149q-86 95 -130 233q-43 135 -43 302t43 302q44 137 130 232q89 98 218 150q132 53 310 53q175 0 307 -53q129 -52 218 -150q86 -95 130 -232q43 -135 43 -302t-43 -302q-44 -138 -130 -233q-87 -96 -218 -149q-132 -53 -307 -53z
M750 1190q-199 0 -294 -125q-96 -126 -96 -348t96 -348q95 -125 294 -125q197 0 292 125t95 348t-95 348t-292 125zM526 1913h170l195 -305h-117z" />
    <glyph glyph-name="Oacute" unicode="&#xd3;" horiz-adv-x="1497" 
d="M750 -20q-178 0 -310 53q-131 53 -218 149q-86 95 -130 233q-43 135 -43 302t43 302q44 137 130 232q89 98 218 150q132 53 310 53q175 0 307 -53q129 -52 218 -150q86 -95 130 -232q43 -135 43 -302t-43 -302q-44 -138 -130 -233q-87 -96 -218 -149q-132 -53 -307 -53z
M750 1190q-199 0 -294 -125q-96 -126 -96 -348t96 -348q95 -125 294 -125q197 0 292 125t95 348t-95 348t-292 125zM606 1608l195 305h170l-246 -305h-119z" />
    <glyph glyph-name="Ocircumflex" unicode="&#xd4;" horiz-adv-x="1497" 
d="M750 -20q-178 0 -310 53q-131 53 -218 149q-86 95 -130 233q-43 135 -43 302t43 302q44 137 130 232q89 98 218 150q132 53 310 53q175 0 307 -53q129 -52 218 -150q86 -95 130 -232q43 -135 43 -302t-43 -302q-44 -138 -130 -233q-87 -96 -218 -149q-132 -53 -307 -53z
M750 1190q-199 0 -294 -125q-96 -126 -96 -348t96 -348q95 -125 294 -125q197 0 292 125t95 348t-95 348t-292 125zM750 1800l-123 -192h-105l156 305h143l156 -305h-103z" />
    <glyph glyph-name="Otilde" unicode="&#xd5;" horiz-adv-x="1497" 
d="M750 -20q-178 0 -310 53q-131 53 -218 149q-86 95 -130 233q-43 135 -43 302t43 302q44 137 130 232q89 98 218 150q132 53 310 53q175 0 307 -53q129 -52 218 -150q86 -95 130 -232q43 -135 43 -302t-43 -302q-44 -138 -130 -233q-87 -96 -218 -149q-132 -53 -307 -53z
M750 1190q-199 0 -294 -125q-96 -126 -96 -348t96 -348q95 -125 294 -125q197 0 292 125t95 348t-95 348t-292 125zM823 1743q22 0 33 20q12 21 12 74h95v-78q0 -17 -7 -49q-6 -26 -21 -49t-41 -38t-63 -15q-41 0 -63 15q-22 14 -38 34q-6 7 -16 19.5t-11 14.5
q-12 15 -29 15q-21 0 -32 -20q-11 -19 -11 -74h-94v78q0 22 6 49q6 26 21 49t41 38q25 15 63 15q40 0 63 -15q19 -13 37 -34q6 -7 14.5 -18.5t11.5 -15.5q12 -15 29 -15z" />
    <glyph glyph-name="Odieresis" unicode="&#xd6;" horiz-adv-x="1497" 
d="M750 -20q-178 0 -310 53q-131 53 -218 149q-86 95 -130 233q-43 135 -43 302t43 302q44 137 130 232q89 98 218 150q132 53 310 53q175 0 307 -53q129 -52 218 -150q86 -95 130 -232q43 -135 43 -302t-43 -302q-44 -138 -130 -233q-87 -96 -218 -149q-132 -53 -307 -53z
M750 1190q-199 0 -294 -125q-96 -126 -96 -348t96 -348q95 -125 294 -125q197 0 292 125t95 348t-95 348t-292 125zM541 1696q0 39 23 62q24 24 63 24q38 0 62 -24t24 -62q0 -39 -24 -63q-23 -23 -62 -23q-40 0 -63 23t-23 63zM788 1696q0 38 24 62t62 24q39 0 63 -24
t24 -62q0 -39 -24 -63q-23 -23 -63 -23q-39 0 -62 23q-24 24 -24 63z" />
    <glyph glyph-name="multiply" unicode="&#xd7;" horiz-adv-x="1320" 
d="M659 436l-436 -436l-186 186l436 439l-436 436l186 186l436 -436l439 436l186 -186l-438 -436l438 -439l-186 -186z" />
    <glyph glyph-name="Oslash" unicode="&#xd8;" horiz-adv-x="1497" 
d="M897 1589h291l-74 -215q169 -85 252 -256q82 -168 82 -401q0 -167 -43 -302q-44 -138 -130 -233q-87 -96 -218 -149q-132 -53 -307 -53q-38 0 -54 1q-8 1 -24.5 2t-24.5 1l-47 -140h-289l72 215q-168 86 -251 256q-83 171 -83 402q0 167 43 302q44 137 130 232
q89 98 218 150q132 53 310 53q35 0 51 -1q8 -1 24.5 -2t24.5 -1zM743 1126q-168 -1 -248 -111q-79 -109 -79 -298q0 -102 20 -176q21 -79 66 -131zM756 307q168 1 248 112q79 109 79 298q0 98 -21 176t-65 131z" />
    <glyph glyph-name="Ugrave" unicode="&#xd9;" horiz-adv-x="1245" 
d="M623 244q47 0 94 9q45 9 84 37q34 25 60 76q24 48 24 126v942h311v-961q0 -153 -50 -251q-49 -97 -131 -150q-83 -54 -184 -73q-99 -19 -208 -19q-110 0 -209 19q-101 19 -184 73q-80 52 -130 150q-49 97 -49 251v961h309v-942q0 -78 24 -126q26 -51 60 -76
q39 -28 84 -37q46 -9 95 -9zM399 1892h170l195 -305h-117z" />
    <glyph glyph-name="Uacute" unicode="&#xda;" horiz-adv-x="1245" 
d="M623 244q47 0 94 9q45 9 84 37q34 25 60 76q24 48 24 126v942h311v-961q0 -153 -50 -251q-49 -97 -131 -150q-83 -54 -184 -73q-99 -19 -208 -19q-110 0 -209 19q-101 19 -184 73q-80 52 -130 150q-49 97 -49 251v961h309v-942q0 -78 24 -126q26 -51 60 -76
q39 -28 84 -37q46 -9 95 -9zM479 1587l195 305h170l-246 -305h-119z" />
    <glyph glyph-name="Ucircumflex" unicode="&#xdb;" horiz-adv-x="1245" 
d="M623 244q47 0 94 9q45 9 84 37q34 25 60 76q24 48 24 126v942h311v-961q0 -153 -50 -251q-49 -97 -131 -150q-83 -54 -184 -73q-99 -19 -208 -19q-110 0 -209 19q-101 19 -184 73q-80 52 -130 150q-49 97 -49 251v961h309v-942q0 -78 24 -126q26 -51 60 -76
q39 -28 84 -37q46 -9 95 -9zM623 1780l-123 -193h-105l156 305h143l156 -305h-102z" />
    <glyph glyph-name="Udieresis" unicode="&#xdc;" horiz-adv-x="1245" 
d="M623 244q47 0 94 9q45 9 84 37q34 25 60 76q24 48 24 126v942h311v-961q0 -153 -50 -251q-49 -97 -131 -150q-83 -54 -184 -73q-99 -19 -208 -19q-110 0 -209 19q-101 19 -184 73q-80 52 -130 150q-49 97 -49 251v961h309v-942q0 -78 24 -126q26 -51 60 -76
q39 -28 84 -37q46 -9 95 -9zM414 1675q0 40 23 63t63 23q39 0 62 -23q24 -24 24 -63q0 -38 -24 -62t-62 -24q-39 0 -63 24q-23 23 -23 62zM662 1675q0 40 23 63t63 23q39 0 62 -23q24 -24 24 -63q0 -38 -24 -62t-62 -24q-39 0 -63 24q-23 23 -23 62z" />
    <glyph glyph-name="Yacute" unicode="&#xdd;" horiz-adv-x="1349" 
d="M395 1434l236 -394q20 -38 25 -81q6 -56 6 -72h28q0 35 4 72q4 42 27 81l235 394h365l-490 -775v-659h-311v659l-489 775h364zM532 1587l195 305h170l-246 -305h-119z" />
    <glyph glyph-name="germandbls" unicode="&#xdf;" horiz-adv-x="1370" 
d="M541 653v265h86q64 0 108 16q46 17 73 44q29 29 40 64q12 38 12 76q0 60 -23 93q-24 35 -59 53q-36 19 -73 23q-43 5 -70 5q-155 0 -215 -78t-60 -210v-1004h-311v1004q0 180 57 289q56 108 145 168q88 59 190 77q103 18 194 18q145 0 247 -30q100 -30 166 -86
q65 -56 93 -131t28 -166q0 -119 -47 -187q-46 -68 -111 -102q-66 -35 -131 -44q-66 -9 -108 -9v-29q76 0 171 -6q96 -6 179 -43q86 -39 142 -119q57 -83 57 -233q0 -78 -19 -147q-19 -70 -70 -125q-49 -53 -136 -87q-83 -32 -222 -32q-151 0 -236 49q-86 50 -126 115
q-41 67 -50 136t-9 107h311q0 -20 5 -48q4 -25 18 -46q13 -20 35 -34q20 -13 55 -13q60 0 97 37q38 38 38 120q0 133 -81 192q-80 58 -276 58h-114z" />
    <glyph glyph-name="agrave" unicode="&#xe0;" horiz-adv-x="1087" 
d="M59 297q0 95 36 159q35 63 93 104q54 38 129 57q72 18 142 18q75 0 146 -17q69 -16 120 -57v43q0 78 -48 126t-165 48q-104 0 -193 -30q-84 -28 -141 -66l-119 236q90 52 219 90q121 36 269 36q52 0 140 -8q81 -7 161 -46q76 -37 133 -118q55 -79 55 -221v-651h-309v66
q0 74 29 132q31 61 41 91l-25 12q-31 -75 -62 -129q-32 -56 -78 -102q-44 -44 -106 -68q-64 -25 -145 -25q-63 0 -124 22q-58 21 -102 62q-45 42 -70 101q-26 61 -26 135zM721 442q-23 29 -64 48q-39 18 -94 18q-51 0 -87 -15q-34 -14 -59 -41q-22 -24 -35 -60
q-11 -32 -11 -68q0 -72 38 -107t97 -35q78 0 138 69q61 70 77 191zM326 1503h170l194 -305h-117z" />
    <glyph glyph-name="aacute" unicode="&#xe1;" horiz-adv-x="1087" 
d="M59 297q0 95 36 159q35 63 93 104q54 38 129 57q72 18 142 18q75 0 146 -17q69 -16 120 -57v43q0 78 -48 126t-165 48q-104 0 -193 -30q-84 -28 -141 -66l-119 236q90 52 219 90q121 36 269 36q52 0 140 -8q81 -7 161 -46q76 -37 133 -118q55 -79 55 -221v-651h-309v66
q0 74 29 132q31 61 41 91l-25 12q-31 -75 -62 -129q-32 -56 -78 -102q-44 -44 -106 -68q-64 -25 -145 -25q-63 0 -124 22q-58 21 -102 62q-45 42 -70 101q-26 61 -26 135zM721 442q-23 29 -64 48q-39 18 -94 18q-51 0 -87 -15q-34 -14 -59 -41q-22 -24 -35 -60
q-11 -32 -11 -68q0 -72 38 -107t97 -35q78 0 138 69q61 70 77 191zM406 1198l194 305h170l-246 -305h-118z" />
    <glyph glyph-name="acircumflex" unicode="&#xe2;" horiz-adv-x="1087" 
d="M59 297q0 95 36 159q35 63 93 104q54 38 129 57q72 18 142 18q75 0 146 -17q69 -16 120 -57v43q0 78 -48 126t-165 48q-104 0 -193 -30q-84 -28 -141 -66l-119 236q90 52 219 90q121 36 269 36q52 0 140 -8q81 -7 161 -46q76 -37 133 -118q55 -79 55 -221v-651h-309v66
q0 74 29 132q31 61 41 91l-25 12q-31 -75 -62 -129q-32 -56 -78 -102q-44 -44 -106 -68q-64 -25 -145 -25q-63 0 -124 22q-58 21 -102 62q-45 42 -70 101q-26 61 -26 135zM721 442q-23 29 -64 48q-39 18 -94 18q-51 0 -87 -15q-34 -14 -59 -41q-22 -24 -35 -60
q-11 -32 -11 -68q0 -72 38 -107t97 -35q78 0 138 69q61 70 77 191zM549 1391l-123 -193h-104l155 305h144l155 -305h-102z" />
    <glyph glyph-name="atilde" unicode="&#xe3;" horiz-adv-x="1087" 
d="M59 297q0 95 36 159q35 63 93 104q54 38 129 57q72 18 142 18q75 0 146 -17q69 -16 120 -57v43q0 78 -48 126t-165 48q-104 0 -193 -30q-84 -28 -141 -66l-119 236q90 52 219 90q121 36 269 36q52 0 140 -8q81 -7 161 -46q76 -37 133 -118q55 -79 55 -221v-651h-309v66
q0 74 29 132q31 61 41 91l-25 12q-31 -75 -62 -129q-32 -56 -78 -102q-44 -44 -106 -68q-64 -25 -145 -25q-63 0 -124 22q-58 21 -102 62q-45 42 -70 101q-26 61 -26 135zM721 442q-23 29 -64 48q-39 18 -94 18q-51 0 -87 -15q-34 -14 -59 -41q-22 -24 -35 -60
q-11 -32 -11 -68q0 -72 38 -107t97 -35q78 0 138 69q61 70 77 191zM623 1333q20 0 32 21q13 23 13 73h94v-77q0 -23 -6 -50q-5 -24 -22 -49q-15 -23 -41 -38q-25 -15 -62 -15q-41 0 -64 15q-22 15 -38 34q-6 7 -14.5 18.5t-11.5 15.5q-12 15 -30 15q-21 0 -32 -20
q-11 -19 -11 -74h-94v78q0 22 6 49q5 24 22 49q16 24 40 38q27 16 63 16q39 0 63 -16q20 -13 37 -34q6 -7 15 -18.5t11 -14.5q13 -16 30 -16z" />
    <glyph glyph-name="adieresis" unicode="&#xe4;" horiz-adv-x="1087" 
d="M59 297q0 95 36 159q35 63 93 104q54 38 129 57q72 18 142 18q75 0 146 -17q69 -16 120 -57v43q0 78 -48 126t-165 48q-104 0 -193 -30q-84 -28 -141 -66l-119 236q90 52 219 90q121 36 269 36q52 0 140 -8q81 -7 161 -46q76 -37 133 -118q55 -79 55 -221v-651h-309v66
q0 74 29 132q31 61 41 91l-25 12q-31 -75 -62 -129q-32 -56 -78 -102q-44 -44 -106 -68q-64 -25 -145 -25q-63 0 -124 22q-58 21 -102 62q-45 42 -70 101q-26 61 -26 135zM721 442q-23 29 -64 48q-39 18 -94 18q-51 0 -87 -15q-34 -14 -59 -41q-22 -24 -35 -60
q-11 -32 -11 -68q0 -72 38 -107t97 -35q78 0 138 69q61 70 77 191zM340 1286q0 39 24 63q23 23 62 23t62 -23q24 -24 24 -63q0 -38 -24 -62t-62 -24t-62 24t-24 62zM588 1286q0 40 23 63t63 23q39 0 62 -23q24 -24 24 -63q0 -38 -24 -62t-62 -24q-39 0 -63 24q-23 23 -23 62
z" />
    <glyph glyph-name="aring" unicode="&#xe5;" horiz-adv-x="1087" 
d="M59 297q0 95 36 159q35 63 93 104q54 38 129 57q72 18 142 18q75 0 146 -17q69 -16 120 -57v43q0 78 -48 126t-165 48q-104 0 -193 -30q-84 -28 -141 -66l-119 236q90 52 219 90q121 36 269 36q52 0 140 -8q81 -7 161 -46q76 -37 133 -118q55 -79 55 -221v-651h-309v66
q0 74 29 132q31 61 41 91l-25 12q-31 -75 -62 -129q-32 -56 -78 -102q-44 -44 -106 -68q-64 -25 -145 -25q-63 0 -124 22q-58 21 -102 62q-45 42 -70 101q-26 61 -26 135zM721 442q-23 29 -64 48q-39 18 -94 18q-51 0 -87 -15q-34 -14 -59 -41q-22 -24 -35 -60
q-11 -32 -11 -68q0 -72 38 -107t97 -35q78 0 138 69q61 70 77 191zM350 1343q0 83 54 132q53 49 145 49q91 0 144 -49q55 -50 55 -132q0 -81 -55 -131q-53 -49 -144 -49q-92 0 -145 49q-54 50 -54 131zM485 1343q0 -38 18 -62t46 -24t46 24q17 23 17 62q0 40 -17 63
q-18 24 -46 24t-46 -24t-18 -63z" />
    <glyph glyph-name="ae" unicode="&#xe6;" horiz-adv-x="1781" 
d="M59 297q0 95 36 159q35 63 93 104q54 38 129 57q72 18 142 18q75 0 146 -17q69 -16 120 -57v43q0 78 -48 126t-165 48q-104 0 -193 -30q-84 -28 -141 -66l-119 236q90 52 219 90q121 36 269 36q19 0 81 -2q45 -1 95 -12q44 -9 98 -29q48 -18 90 -53q64 48 145 72
q82 24 189 24q109 0 196 -28q88 -28 152 -89t100 -156t36 -228v-86l-689 -6q12 -92 66 -151q52 -56 162 -56q86 0 138 42q51 41 79 95l246 -131q-52 -125 -179 -199q-123 -71 -297 -71q-195 0 -314 80q-121 81 -173 216q-44 -142 -131 -219t-244 -77q-69 0 -131 21
q-60 20 -106 62q-45 41 -71 100q-26 60 -26 134zM1425 653q0 60 -45 102t-125 42q-83 0 -129 -39t-69 -105h368zM721 442q-23 29 -64 48q-39 18 -94 18q-51 0 -87 -15q-34 -14 -59 -41q-22 -24 -35 -60q-11 -32 -11 -68q0 -72 38 -107t97 -35q78 0 138 69q61 70 77 191z" />
    <glyph glyph-name="ccedilla" unicode="&#xe7;" horiz-adv-x="1122" 
d="M49 512q0 115 34 213q35 99 100 169q66 70 167 111q97 39 234 39q219 0 339 -104q121 -105 148 -297l-293 -20q-10 71 -61 114q-50 43 -133 43q-118 0 -170 -73q-54 -76 -54 -195t54 -195q52 -73 170 -73q83 0 133 43q51 43 61 114l293 -20q-27 -192 -148 -297
q-120 -104 -339 -104q-137 0 -234 39q-101 41 -167 111q-65 70 -100 169q-34 98 -34 213zM831 -231q0 -87 -48 -142t-152 -55q-91 0 -135 51q-43 50 -43 133v8h135v-10q0 -29 8 -58q8 -28 41 -28q23 0 42 18t19 83q0 42 -14 66q-15 26 -49 26q-20 0 -33 -5q-10 -4 -18 -12
q-10 -8 -11 -14h-104l35 188h119l-25 -90l33 9q15 4 39 4q25 0 57 -10q30 -9 52 -29t38 -54q14 -31 14 -79z" />
    <glyph glyph-name="egrave" unicode="&#xe8;" horiz-adv-x="1105" 
d="M49 512q0 111 31 213q29 97 94 169q63 70 162 111q95 39 231 39q110 0 197 -28q86 -28 152 -89q65 -61 100 -156q35 -96 35 -228v-86l-686 -6q10 -94 63 -151q52 -56 164 -56q86 0 137 42t78 95l246 -131q-52 -127 -177 -199q-123 -71 -298 -71q-138 0 -233 39
q-99 41 -165 111q-65 69 -98 169q-33 99 -33 213zM748 653q0 59 -45 102q-43 42 -125 42t-129 -39q-47 -40 -68 -105h367zM346 1503h170l195 -305h-117z" />
    <glyph glyph-name="eacute" unicode="&#xe9;" horiz-adv-x="1105" 
d="M49 512q0 111 31 213q29 97 94 169q63 70 162 111q95 39 231 39q110 0 197 -28q86 -28 152 -89q65 -61 100 -156q35 -96 35 -228v-86l-686 -6q10 -94 63 -151q52 -56 164 -56q86 0 137 42t78 95l246 -131q-52 -127 -177 -199q-123 -71 -298 -71q-138 0 -233 39
q-99 41 -165 111q-65 69 -98 169q-33 99 -33 213zM748 653q0 59 -45 102q-43 42 -125 42t-129 -39q-47 -40 -68 -105h367zM424 1198l194 305h170l-245 -305h-119z" />
    <glyph glyph-name="ecircumflex" unicode="&#xea;" horiz-adv-x="1105" 
d="M49 512q0 111 31 213q29 97 94 169q63 70 162 111q95 39 231 39q110 0 197 -28q86 -28 152 -89q65 -61 100 -156q35 -96 35 -228v-86l-686 -6q10 -94 63 -151q52 -56 164 -56q86 0 137 42t78 95l246 -131q-52 -127 -177 -199q-123 -71 -298 -71q-138 0 -233 39
q-99 41 -165 111q-65 69 -98 169q-33 99 -33 213zM748 653q0 59 -45 102q-43 42 -125 42t-129 -39q-47 -40 -68 -105h367zM567 1391l-123 -193h-104l156 305h143l156 -305h-103z" />
    <glyph glyph-name="edieresis" unicode="&#xeb;" horiz-adv-x="1105" 
d="M49 512q0 111 31 213q29 97 94 169q63 70 162 111q95 39 231 39q110 0 197 -28q86 -28 152 -89q65 -61 100 -156q35 -96 35 -228v-86l-686 -6q10 -94 63 -151q52 -56 164 -56q86 0 137 42t78 95l246 -131q-52 -127 -177 -199q-123 -71 -298 -71q-138 0 -233 39
q-99 41 -165 111q-65 69 -98 169q-33 99 -33 213zM748 653q0 59 -45 102q-43 42 -125 42t-129 -39q-47 -40 -68 -105h367zM358 1286q0 39 24 63q23 23 62 23q40 0 63 -23t23 -63q0 -39 -23 -62q-24 -24 -63 -24q-38 0 -62 24t-24 62zM606 1286q0 39 24 63q23 23 62 23
q40 0 63 -23t23 -63q0 -39 -23 -62q-24 -24 -63 -24q-38 0 -62 24t-24 62z" />
    <glyph glyph-name="igrave" unicode="&#xec;" 
d="M49 1024h309v-1024h-309v1024zM-16 1483h170l194 -305h-117z" />
    <glyph glyph-name="iacute" unicode="&#xed;" 
d="M49 1024h309v-1024h-309v1024zM61 1178l195 305h170l-246 -305h-119z" />
    <glyph glyph-name="icircumflex" unicode="&#xee;" 
d="M49 1024h309v-1024h-309v1024zM205 1370l-123 -192h-105l156 305h143l156 -305h-102z" />
    <glyph glyph-name="idieresis" unicode="&#xef;" 
d="M49 1024h309v-1024h-309v1024zM-4 1266q0 39 23 62q24 24 63 24q38 0 62 -24t24 -62q0 -39 -24 -63q-23 -23 -62 -23q-40 0 -63 23t-23 63zM244 1266q0 39 23 62q24 24 63 24q38 0 62 -24t24 -62q0 -39 -24 -63q-23 -23 -62 -23q-40 0 -63 23t-23 63z" />
    <glyph glyph-name="ntilde" unicode="&#xf1;" horiz-adv-x="1079" 
d="M721 561q0 99 -39 137q-38 37 -90 37q-56 0 -100 -32t-72 -82q-29 -52 -44 -116q-16 -69 -16 -132v-373h-309v1024h309v-113q0 -99 -17 -140q-20 -47 -38 -71l21 -20q36 47 66 107q32 63 75 120q45 59 106 98t162 39q54 0 101 -11q51 -12 94 -46t70 -100q28 -68 28 -176
v-711h-307v561zM647 1411q21 0 33 21t12 73h94v-78q0 -22 -6 -49q-6 -26 -21 -49t-41 -38t-63 -15q-41 0 -63 15t-38 34q-6 7 -15.5 19.5t-11.5 14.5q-12 15 -29 15q-21 0 -32 -20q-11 -19 -11 -74h-95v78q0 18 7 49q6 26 21 49t41 38q25 15 63 15q40 0 63 -15
q19 -13 37 -34q5 -7 13.5 -18.5t11.5 -15.5q12 -15 30 -15z" />
    <glyph glyph-name="ograve" unicode="&#xf2;" horiz-adv-x="1169" 
d="M49 512q0 115 34 213q35 99 100 169q66 70 167 111q97 39 236 39q136 0 233 -39q101 -41 167 -111q65 -70 100 -169q34 -98 34 -213t-34 -213q-35 -99 -100 -169q-66 -70 -167 -111q-97 -39 -233 -39q-139 0 -236 39q-101 41 -167 111q-65 70 -100 169q-34 98 -34 213z
M360 512q0 -120 55 -195q54 -73 171 -73t171 73t54 195t-54 195t-171 73t-171 -73q-55 -75 -55 -195zM362 1503h170l195 -305h-117z" />
    <glyph glyph-name="oacute" unicode="&#xf3;" horiz-adv-x="1169" 
d="M49 512q0 115 34 213q35 99 100 169q66 70 167 111q97 39 236 39q136 0 233 -39q101 -41 167 -111q65 -70 100 -169q34 -98 34 -213t-34 -213q-35 -99 -100 -169q-66 -70 -167 -111q-97 -39 -233 -39q-139 0 -236 39q-101 41 -167 111q-65 70 -100 169q-34 98 -34 213z
M360 512q0 -120 55 -195q54 -73 171 -73t171 73t54 195t-54 195t-171 73t-171 -73q-55 -75 -55 -195zM442 1198l195 305h170l-246 -305h-119z" />
    <glyph glyph-name="ocircumflex" unicode="&#xf4;" horiz-adv-x="1169" 
d="M49 512q0 115 34 213q35 99 100 169q66 70 167 111q97 39 236 39q136 0 233 -39q101 -41 167 -111q65 -70 100 -169q34 -98 34 -213t-34 -213q-35 -99 -100 -169q-66 -70 -167 -111q-97 -39 -233 -39q-139 0 -236 39q-101 41 -167 111q-65 70 -100 169q-34 98 -34 213z
M360 512q0 -120 55 -195q54 -73 171 -73t171 73t54 195t-54 195t-171 73t-171 -73q-55 -75 -55 -195zM586 1391l-123 -193h-105l156 305h143l156 -305h-102z" />
    <glyph glyph-name="otilde" unicode="&#xf5;" horiz-adv-x="1169" 
d="M49 512q0 115 34 213q35 99 100 169q66 70 167 111q97 39 236 39q136 0 233 -39q101 -41 167 -111q65 -70 100 -169q34 -98 34 -213t-34 -213q-35 -99 -100 -169q-66 -70 -167 -111q-97 -39 -233 -39q-139 0 -236 39q-101 41 -167 111q-65 70 -100 169q-34 98 -34 213z
M360 512q0 -120 55 -195q54 -73 171 -73t171 73t54 195t-54 195t-171 73t-171 -73q-55 -75 -55 -195zM659 1333q21 0 33 21q13 23 13 73h94v-77q0 -23 -6 -50q-5 -24 -22 -49q-15 -23 -41 -38q-25 -15 -62 -15q-42 0 -64 15t-38 34q-6 7 -14.5 18.5t-11.5 15.5
q-12 15 -30 15q-21 0 -32 -20q-11 -19 -11 -74h-94v78q0 22 6 49q6 26 21 49t41 38q27 16 63 16q39 0 63 -16q19 -13 37 -34q6 -7 15 -18.5t11 -14.5q13 -16 29 -16z" />
    <glyph glyph-name="odieresis" unicode="&#xf6;" horiz-adv-x="1169" 
d="M49 512q0 115 34 213q35 99 100 169q66 70 167 111q97 39 236 39q136 0 233 -39q101 -41 167 -111q65 -70 100 -169q34 -98 34 -213t-34 -213q-35 -99 -100 -169q-66 -70 -167 -111q-97 -39 -233 -39q-139 0 -236 39q-101 41 -167 111q-65 70 -100 169q-34 98 -34 213z
M360 512q0 -120 55 -195q54 -73 171 -73t171 73t54 195t-54 195t-171 73t-171 -73q-55 -75 -55 -195zM377 1286q0 40 23 63t63 23q39 0 62 -23q24 -24 24 -63q0 -38 -24 -62t-62 -24q-39 0 -63 24q-23 23 -23 62zM625 1286q0 40 23 63t63 23q39 0 62 -23q24 -24 24 -63
q0 -38 -24 -62t-62 -24q-39 0 -63 24q-23 23 -23 62z" />
    <glyph glyph-name="divide" unicode="&#xf7;" horiz-adv-x="1105" 
d="M389 1040q0 72 45 117t121 45q72 0 117 -45t45 -117q0 -73 -45 -118t-117 -45q-76 0 -121 45t-45 118zM1055 788v-264h-1004v264h1004zM389 274q0 72 45 117t121 45q72 0 117 -45t45 -117q0 -75 -45 -120t-117 -45q-76 0 -121 45t-45 120z" />
    <glyph glyph-name="oslash" unicode="&#xf8;" horiz-adv-x="1169" 
d="M317 35q-135 63 -201 188q-67 126 -67 289q0 115 34 213q35 99 100 169q66 70 167 111q97 39 236 39q25 0 37 -1t34 -3l50 146h213l-68 -197q136 -63 202 -188t66 -289q0 -115 -34 -213q-35 -99 -100 -169q-66 -70 -167 -111q-97 -39 -233 -39q-26 0 -38 1l-36 3
l-49 -146h-211zM360 512q0 -124 54 -193l155 461q-108 -6 -158 -79q-51 -74 -51 -189zM600 244q108 6 160 79q51 72 51 189q0 125 -55 193z" />
    <glyph glyph-name="ugrave" unicode="&#xf9;" horiz-adv-x="1079" 
d="M358 463q0 -100 40 -137t89 -37q58 0 102 32q46 33 73 82q29 52 44 116q15 65 15 132v373h307v-1024h-307v115q0 43 5 81q4 34 12 58q8 25 18 41q4 6 10.5 16.5t7.5 12.5l-20 20q-39 -51 -67 -107q-31 -63 -75 -120q-45 -59 -106 -98t-162 -39q-53 0 -100 11
q-51 12 -94 46q-45 35 -71 100q-28 68 -28 176v711h307v-561zM319 1483h170l195 -305h-117z" />
    <glyph glyph-name="uacute" unicode="&#xfa;" horiz-adv-x="1079" 
d="M358 463q0 -100 40 -137t89 -37q58 0 102 32q46 33 73 82q29 52 44 116q15 65 15 132v373h307v-1024h-307v115q0 43 5 81q4 34 12 58q8 25 18 41q4 6 10.5 16.5t7.5 12.5l-20 20q-39 -51 -67 -107q-31 -63 -75 -120q-45 -59 -106 -98t-162 -39q-53 0 -100 11
q-51 12 -94 46q-45 35 -71 100q-28 68 -28 176v711h307v-561zM397 1178l195 305h170l-246 -305h-119z" />
    <glyph glyph-name="ucircumflex" unicode="&#xfb;" horiz-adv-x="1079" 
d="M358 463q0 -100 40 -137t89 -37q58 0 102 32q46 33 73 82q29 52 44 116q15 65 15 132v373h307v-1024h-307v115q0 43 5 81q4 34 12 58q8 25 18 41q4 6 10.5 16.5t7.5 12.5l-20 20q-39 -51 -67 -107q-31 -63 -75 -120q-45 -59 -106 -98t-162 -39q-53 0 -100 11
q-51 12 -94 46q-45 35 -71 100q-28 68 -28 176v711h307v-561zM541 1370l-123 -192h-105l156 305h143l156 -305h-102z" />
    <glyph glyph-name="udieresis" unicode="&#xfc;" horiz-adv-x="1079" 
d="M358 463q0 -100 40 -137t89 -37q58 0 102 32q46 33 73 82q29 52 44 116q15 65 15 132v373h307v-1024h-307v115q0 43 5 81q4 34 12 58q8 25 18 41q4 6 10.5 16.5t7.5 12.5l-20 20q-39 -51 -67 -107q-31 -63 -75 -120q-45 -59 -106 -98t-162 -39q-53 0 -100 11
q-51 12 -94 46q-45 35 -71 100q-28 68 -28 176v711h307v-561zM332 1266q0 39 23 62q24 24 63 24q38 0 62 -24t24 -62q0 -39 -24 -63q-23 -23 -62 -23q-40 0 -63 23t-23 63zM580 1266q0 39 23 62q24 24 63 24q38 0 62 -24t24 -62q0 -39 -24 -63q-23 -23 -62 -23q-40 0 -63 23
t-23 63z" />
    <glyph glyph-name="yacute" unicode="&#xfd;" horiz-adv-x="1095" 
d="M723 0q-51 -158 -116 -260q-65 -100 -138 -156q-72 -55 -155 -76q-77 -20 -167 -20v309q68 0 115 21t80 51t51 65q20 39 27 66h-47l-346 1024h327l146 -530q8 -30 22 -92q10 -44 10 -76h31q0 32 10 76q8 38 23 92l145 530h328zM406 1178l194 305h170l-246 -305h-118z" />
    <glyph glyph-name="ydieresis" unicode="&#xff;" horiz-adv-x="1095" 
d="M723 0q-51 -158 -116 -260q-65 -100 -138 -156q-72 -55 -155 -76q-77 -20 -167 -20v309q68 0 115 21t80 51t51 65q20 39 27 66h-47l-346 1024h327l146 -530q8 -30 22 -92q10 -44 10 -76h31q0 32 10 76q8 38 23 92l145 530h328zM340 1266q0 38 24 62t62 24t62 -24t24 -62
q0 -39 -24 -63q-23 -23 -62 -23t-62 23q-24 24 -24 63zM588 1266q0 39 23 62q24 24 63 24q38 0 62 -24t24 -62q0 -39 -24 -63q-23 -23 -62 -23q-40 0 -63 23t-23 63z" />
    <glyph glyph-name="dotlessi" unicode="&#x131;" 
d="M49 1024h309v-1024h-309v1024z" />
    <glyph glyph-name="OE" unicode="&#x152;" horiz-adv-x="1912" 
d="M930 1434h938v-265h-627v-309h537v-264h-537v-332h627v-264h-938q-44 -11 -85 -15q-47 -5 -95 -5q-178 0 -310 53q-131 53 -218 149q-86 95 -130 233q-43 135 -43 302t43 302q44 137 130 232q89 98 218 150q132 53 310 53q48 0 95 -5q41 -4 85 -15zM930 1077
q-68 49 -180 49q-173 0 -253 -110q-81 -111 -81 -299t81 -299t253 -111q112 0 180 49v721z" />
    <glyph glyph-name="oe" unicode="&#x153;" horiz-adv-x="1865" 
d="M49 512q0 115 34 213q35 99 100 169q66 70 167 111q97 39 236 39q126 0 216 -32q95 -34 159 -92q62 59 154 92q89 32 214 32q109 0 196 -28q88 -28 152 -89t99 -156q34 -93 34 -228v-86l-686 -6q12 -93 65 -151q52 -56 163 -56q86 0 137 42t78 95l248 -131
q-52 -125 -179 -199q-123 -71 -297 -71q-127 0 -217 33q-92 34 -159 96q-66 -62 -160 -96q-90 -33 -217 -33q-139 0 -236 39q-101 41 -167 111q-65 70 -100 169q-34 98 -34 213zM1507 653q0 60 -44 102q-43 42 -124 42q-83 0 -129 -39t-69 -105h366zM360 512q0 -120 55 -195
q54 -73 171 -73t171 73t54 195t-54 195t-171 73t-171 -73q-55 -75 -55 -195z" />
    <glyph glyph-name="Scaron" unicode="&#x160;" horiz-adv-x="1286" 
d="M49 1016q0 91 32 173q31 80 102 139q68 57 182 92q109 34 266 34q89 0 185 -16q97 -16 185 -67t144 -141q57 -92 57 -241v-51h-309v49q0 41 -12 78q-11 36 -43 64q-32 29 -81 45q-48 16 -126 16q-88 0 -145 -19q-54 -18 -82 -46t-35 -57q-9 -36 -9 -52q0 -38 21 -62
q23 -26 57 -41q30 -13 87 -27q40 -10 112 -22q101 -18 207 -42q110 -25 194 -69q89 -47 145 -125t56 -208q0 -93 -35 -174q-35 -80 -108 -140q-70 -57 -187 -93q-108 -33 -270 -33q-87 0 -187 16q-104 17 -194 66t-152 142q-61 91 -61 240v52h309v-50q0 -38 17 -77t50 -65
q36 -28 88 -44t130 -16q99 0 156 18q55 17 87 46q30 27 38 59t8 53q0 47 -28 78q-27 30 -76 50q-48 20 -111 33q-48 10 -138 25q-91 17 -188 42q-91 23 -170 68q-75 43 -122 115q-46 71 -46 185zM840 1913l-156 -305h-143l-156 305h104l123 -195l125 195h103z" />
    <glyph glyph-name="scaron" unicode="&#x161;" horiz-adv-x="1097" 
d="M49 713q0 164 117 248q116 83 358 83q72 0 152 -7q87 -8 163 -39q77 -32 130 -98q53 -67 53 -185v-25h-309v29q0 44 -44 65q-43 21 -128 21q-92 0 -138 -20q-45 -19 -45 -54q0 -21 22 -37q17 -12 57 -24q36 -10 81 -18q65 -11 94 -17q72 -15 150 -30t141 -48
q65 -34 105 -90q41 -58 41 -156q0 -86 -36 -149q-36 -64 -102 -104q-64 -39 -157 -59q-89 -19 -205 -19q-85 0 -173 15q-89 15 -162 56q-74 42 -120 113q-47 73 -47 184v25h311v-29q0 -63 55 -94q56 -31 152 -31q35 0 63 4q30 4 56 14t40 25q15 16 15 39q0 30 -23 47
q-26 20 -60 31q-38 13 -78 21q-61 13 -84 16q-62 14 -151 31q-73 14 -144 46q-67 31 -108 80q-42 51 -42 140zM750 1503l-156 -305h-143l-156 305h104l123 -194l125 194h103z" />
    <glyph glyph-name="Ydieresis" unicode="&#x178;" horiz-adv-x="1349" 
d="M395 1434l236 -394q20 -38 25 -81q6 -56 6 -72h28q0 35 4 72q4 42 27 81l235 394h365l-490 -775v-659h-311v659l-489 775h364zM467 1675q0 40 23 63t63 23q39 0 62 -23q24 -24 24 -63q0 -38 -24 -62t-62 -24q-39 0 -63 24q-23 23 -23 62zM715 1675q0 40 23 63t63 23
q39 0 62 -23q24 -24 24 -63q0 -38 -24 -62t-62 -24q-39 0 -63 24q-23 23 -23 62z" />
    <glyph glyph-name="Zcaron" unicode="&#x17d;" horiz-adv-x="1093" 
d="M45 1434h989v-265l-604 -905h621v-264h-994v264l605 905h-617v265zM776 1892l-155 -305h-144l-155 305h104l123 -194l125 194h102z" />
    <glyph glyph-name="zcaron" unicode="&#x17e;" horiz-adv-x="886" 
d="M43 1024h770v-264l-375 -496h404v-264h-791v264l371 496h-379v264zM670 1483l-156 -305h-143l-156 305h104l123 -195l125 195h103z" />
    <glyph glyph-name="circumflex" unicode="&#x2c6;" horiz-adv-x="509" 
d="M254 1423l-123 -192h-104l155 305h144l155 -305h-102z" />
    <glyph glyph-name="caron" unicode="&#x2c7;" horiz-adv-x="509" 
d="M481 1536l-155 -305h-144l-155 305h104l123 -195l125 195h102z" />
    <glyph glyph-name="ring" unicode="&#x2da;" horiz-adv-x="499" 
d="M51 1376q0 82 54 131q53 49 145 49q91 0 144 -49q55 -50 55 -131t-55 -131q-53 -49 -144 -49q-92 0 -145 49q-54 49 -54 131zM186 1376q0 -38 18 -62t46 -24t46 24q17 23 17 62q0 40 -17 63t-46 23t-46 -23q-18 -24 -18 -63z" />
    <glyph glyph-name="tilde" unicode="&#x2dc;" horiz-adv-x="509" 
d="M330 1356q21 0 32 20q13 23 13 74h94v-78q0 -22 -6 -49q-5 -24 -22 -49q-15 -23 -41 -38t-62 -15q-42 0 -64 15q-20 13 -37 34q-6 7 -15.5 19.5t-11.5 14.5q-12 15 -30 15q-20 0 -32 -21q-11 -19 -11 -73h-94v78q0 22 6 49q5 24 22 49q15 23 41 38t62 15q42 0 64 -15
q17 -12 36 -34q6 -7 14.5 -18.5t11.5 -15.5q12 -15 30 -15z" />
    <glyph glyph-name="endash" unicode="&#x2013;" horiz-adv-x="759" 
d="M709 788v-264h-658v264h658z" />
    <glyph glyph-name="emdash" unicode="&#x2014;" horiz-adv-x="1798" 
d="M1747 788v-264h-1696v264h1696z" />
    <glyph glyph-name="quoteleft" unicode="&#x2018;" horiz-adv-x="522" 
d="M39 1040l244 496h200l-135 -496h-309z" />
    <glyph glyph-name="quoteright" unicode="&#x2019;" horiz-adv-x="522" 
d="M483 1536l-243 -496h-201l135 496h309z" />
    <glyph glyph-name="quotesinglbase" unicode="&#x201a;" horiz-adv-x="522" 
d="M483 254l-243 -496h-201l135 496h309z" />
    <glyph glyph-name="quotedblleft" unicode="&#x201c;" horiz-adv-x="940" 
d="M455 1040l245 496h201l-135 -496h-311zM39 1040l244 496h200l-135 -496h-309z" />
    <glyph glyph-name="quotedblright" unicode="&#x201d;" horiz-adv-x="940" 
d="M483 1536l-243 -496h-201l135 496h309zM901 1536l-246 -496h-200l135 496h311z" />
    <glyph glyph-name="quotedblbase" unicode="&#x201e;" horiz-adv-x="940" 
d="M483 254l-243 -496h-201l135 496h309zM901 254l-246 -496h-200l135 496h311z" />
    <glyph glyph-name="dagger" unicode="&#x2020;" horiz-adv-x="872" 
d="M305 711q0 47 12 102q12 54 29 109q-46 -13 -123 -31q-59 -14 -104 -14h-68v262h68q36 0 101 -14q75 -16 122 -29q-13 44 -26 116q-11 60 -11 154v68h262v-68q0 -91 -10 -154q-10 -64 -27 -116q47 13 122 29q65 14 104 14h65v-262h-65q-44 0 -106 13t-124 30
q17 -54 29 -108t12 -101v-949h-262v949z" />
    <glyph glyph-name="daggerdbl" unicode="&#x2021;" horiz-adv-x="872" 
d="M119 1126q40 0 101 -13q58 -13 122 -30q-12 40 -26 118q-11 61 -11 153v80h262v-80q0 -90 -10 -153q-11 -68 -27 -118q64 17 122 30q61 13 104 13h65v-262h-65q-42 0 -106 15q-97 22 -124 30q18 -58 29 -108q12 -56 12 -103v-198q0 -48 -12 -103q-11 -50 -29 -108
q27 8 124 30q64 15 106 15h65v-262h-65q-43 0 -104 13q-58 13 -122 30q16 -50 27 -118q10 -63 10 -153v-80h-262v80q0 93 11 153q14 78 26 118q-64 -17 -122 -30q-61 -13 -101 -13h-68v262h68q41 0 104 -15q104 -25 123 -30q-18 57 -29 107q-12 54 -12 102v200q0 48 12 103
q11 50 29 108q-19 -5 -123 -30q-63 -15 -104 -15h-68v262h68z" />
    <glyph glyph-name="bullet" unicode="&#x2022;" horiz-adv-x="520" 
d="M51 575q0 93 57 150t154 57q93 0 150 -57t57 -150q0 -97 -57 -154q-56 -56 -150 -56q-98 0 -154 56q-57 57 -57 154z" />
    <glyph glyph-name="ellipsis" unicode="&#x2026;" horiz-adv-x="1288" 
d="M51 145q0 72 45 117t119 45q75 0 118 -45q44 -46 44 -117q0 -74 -44 -120q-43 -45 -118 -45q-74 0 -119 45t-45 120zM481 145q0 72 45 117t119 45q75 0 118 -45q44 -46 44 -117q0 -74 -44 -120q-43 -45 -118 -45q-74 0 -119 45t-45 120zM909 145q0 72 45 117t119 45
q75 0 118 -45q44 -46 44 -117q0 -74 -44 -120q-43 -45 -118 -45q-74 0 -119 45t-45 120z" />
    <glyph glyph-name="guilsinglleft" unicode="&#x2039;" horiz-adv-x="413" 
d="M49 594l313 340v-270l-149 -113q-11 -8 -28 -15q-19 -8 -31 -8l-2 -32q34 0 55 -15l155 -121v-268l-313 338v164z" />
    <glyph glyph-name="guilsinglright" unicode="&#x203a;" horiz-adv-x="413" 
d="M49 92v268l158 121q14 10 24 12q15 3 29 3v32q-13 0 -32 8q-14 6 -27 15l-152 113v270l313 -340v-164z" />
    <glyph glyph-name="Euro" unicode="&#x20ac;" horiz-adv-x="1564" 
d="M178 717v49h-133v199h160q52 225 218 357q165 132 447 132t441 -135q158 -134 202 -367l-309 -39q-24 135 -104 206t-230 71q-136 0 -219 -58q-84 -59 -125 -167h439v-199h-476v-49v-49h476v-199h-439q41 -108 125 -167q83 -58 219 -58q151 0 230 70q80 71 104 206
l309 -39q-22 -118 -71 -208q-50 -90 -131 -158q-80 -66 -190 -101q-108 -34 -251 -34q-282 0 -447 132q-166 132 -218 357h-160v199h133v49z" />
    <glyph glyph-name="trademark" unicode="&#x2122;" horiz-adv-x="1638" 
d="M45 1434h645v-177h-215v-534h-199v534h-231v177zM778 1434h314l90 -373l92 373h313v-711h-201v475l-116 -475h-176l-115 475v-475h-201v711z" />
    <glyph glyph-name="arrowleft" unicode="&#x2190;" horiz-adv-x="1536" 
d="M51 838l1065 624v-305l-438 -258q-7 -4 -18.5 -10t-16.5 -8q-21 -11 -29 -13l13 -26q15 15 54 22q43 8 91 8h713v-311h-713q-48 0 -91 8q-38 7 -54 23l-13 -27q12 -4 29 -12q5 -2 16.5 -8t18.5 -10l438 -259v-305l-1065 625v242z" />
    <glyph glyph-name="arrowup" unicode="&#x2191;" horiz-adv-x="1591" 
d="M915 1434l627 -1065h-305l-260 438l-18 35q-7 13 -11 28l-28 -12q15 -15 22 -54q8 -43 8 -91l2 -713h-311v713q0 48 8 91q7 38 23 54l-29 12q-5 -15 -11 -28l-18 -35l-258 -438h-307l627 1065h239z" />
    <glyph glyph-name="arrowright" unicode="&#x2192;" horiz-adv-x="1536" 
d="M1485 838v-242l-1065 -625v305l438 259q7 4 18.5 10t16.5 8q17 8 29 12l-13 27q-16 -16 -54 -23q-43 -8 -91 -8h-713v311h713q48 0 91 -8q39 -7 54 -22l13 26q-7 2 -29 13q-5 2 -16.5 8t-18.5 10l-438 258v305z" />
    <glyph glyph-name="arrowdown" unicode="&#x2193;" horiz-adv-x="1591" 
d="M915 0h-239l-627 1065h307l258 -438l18 -35q6 -12 11 -29l29 12q-16 16 -23 55q-8 43 -8 91v713h311l-2 -713q0 -48 -8 -91q-8 -40 -22 -55l28 -12q5 18 11 29l18 35l260 438h305z" />
    <glyph glyph-name="arrowboth" unicode="&#x2194;" horiz-adv-x="2533" 
d="M772 561q-48 0 -91 8q-38 7 -54 23l-13 -27q12 -4 29 -12q5 -2 16.5 -8t18.5 -10l438 -259v-305l-1065 625v242l1065 624v-305l-438 -258q-7 -4 -18.5 -10t-16.5 -8q-21 -11 -29 -13l13 -26q15 15 54 22q43 8 91 8h989q50 0 92 -8q40 -8 54 -22l12 26q-8 3 -28 13
q-15 7 -33 18l-441 258v305l1065 -624v-242l-1065 -625v305l441 259q18 11 33 18q12 6 28 12l-12 27q-16 -16 -54 -23q-42 -8 -92 -8h-989z" />
    <glyph glyph-name="arrowupdn" unicode="&#x2195;" horiz-adv-x="1593" 
d="M641 903q0 48 8 91q7 39 23 55l-27 12q-6 -20 -10 -30q-7 -17 -21 -34l-237 -350h-326l627 889h240l624 -889h-321l-242 350q-26 40 -31 64l-26 -12q14 -15 22 -55q8 -43 8 -91v-794q0 -49 -8 -92q-7 -39 -22 -54l26 -12q5 19 31 61l242 353h321l-624 -889h-240l-627 889
h326l237 -353q26 -35 31 -61l27 12q-16 16 -23 54q-8 43 -8 92v794z" />
    <glyph glyph-name="minus" unicode="&#x2212;" horiz-adv-x="1148" 
d="M1096 788v-264h-1045v264h1045z" />
    <glyph glyph-name="triagup" unicode="&#x25b2;" horiz-adv-x="835" 
d="M784 242h-733l367 581z" />
    <glyph glyph-name="triagrt" unicode="&#x25ba;" horiz-adv-x="684" 
d="M51 166v735l582 -369z" />
    <glyph glyph-name="triagdn" unicode="&#x25bc;" horiz-adv-x="835" 
d="M51 823h733l-366 -581z" />
    <glyph glyph-name="triaglf" unicode="&#x25c4;" horiz-adv-x="684" 
d="M633 901v-735l-582 366z" />
    <glyph glyph-name="smileface" unicode="&#x263a;" horiz-adv-x="1574" 
d="M49 717q0 164 53 302q51 133 150 232t232 150q138 53 302 53q165 0 303 -53q133 -51 232 -150q97 -97 149 -232q54 -140 54 -302t-54 -302q-52 -136 -149 -233t-232 -149q-138 -53 -303 -53q-164 0 -302 53q-135 52 -232 149q-98 98 -150 233q-53 138 -53 302zM168 717
q0 -145 39 -263t117 -202t193 -130q114 -46 269 -46q156 0 270 46q115 46 194 130q79 83 118 202q39 118 39 263t-39 263q-39 119 -118 202q-79 84 -194 130q-114 46 -270 46q-155 0 -269 -46q-115 -46 -193 -130t-117 -202t-39 -263zM674 942q0 -47 -33 -80t-80 -33t-80 33
q-32 32 -32 80t32 80q33 33 80 33t80 -33t33 -80zM1126 942q0 -48 -32 -80q-33 -33 -80 -33t-80 33t-33 80t33 80t80 33t80 -33q32 -32 32 -80zM786 426q83 0 150 23q68 23 111 62q46 41 69 92q25 55 25 112h100q0 -88 -33 -160q-33 -73 -93 -122q-63 -52 -143 -78
q-82 -27 -186 -27q-100 0 -184 27q-79 26 -143 78q-58 48 -92 122q-33 72 -33 160h98q0 -57 25 -112q24 -52 70 -92q45 -39 112 -62t147 -23z" />
    <glyph glyph-name="invsmileface" unicode="&#x263b;" horiz-adv-x="1574" 
d="M49 717q0 164 53 302q51 133 150 232t232 150q138 53 302 53q165 0 303 -53q133 -51 232 -150q97 -97 149 -232q54 -140 54 -302t-54 -302q-52 -136 -149 -233t-232 -149q-138 -53 -303 -53q-164 0 -302 53q-135 52 -232 149q-98 98 -150 233q-53 138 -53 302zM674 942
q0 47 -33 80t-80 33t-80 -33q-32 -32 -32 -80t32 -80q33 -33 80 -33t80 33t33 80zM1126 942q0 48 -32 80q-33 33 -80 33t-80 -33t-33 -80t33 -80t80 -33t80 33q32 32 32 80zM786 426q-80 0 -147 23t-112 62q-46 40 -70 92q-25 55 -25 112h-98q0 -88 33 -160q34 -74 92 -122
q64 -52 143 -78q84 -27 184 -27q104 0 186 27q80 26 143 78q60 49 93 122q33 72 33 160h-100q0 -57 -25 -112q-23 -51 -69 -92q-43 -39 -111 -62q-67 -23 -150 -23z" />
    <glyph glyph-name="uniE000" unicode="&#xe000;" horiz-adv-x="1247" 
d="M1196 0h-311v57q0 69 14 115q15 50 27 84l-27 16q-27 -90 -66 -144q-39 -55 -90 -89q-49 -33 -104 -46q-53 -13 -115 -13q-122 0 -207 39q-86 39 -147 111q-59 69 -89 169q-30 99 -30 213t30 213q30 100 89 169q61 72 147 111q85 39 207 39q62 0 115 -13q55 -13 104 -46
t90 -90q38 -53 66 -143l27 16q-10 28 -27 85q-14 46 -14 116v55h309zM885 539q0 34 -13 81q-11 42 -43 81q-31 39 -83 64q-54 26 -132 26q-43 0 -90 -14q-46 -14 -81 -46t-58 -86t-23 -133t23 -134t58 -86q36 -32 81 -45q47 -14 90 -14q78 0 132 26q53 26 83 63q32 40 43 80
q13 47 13 81v56z" />
    </font>
</defs>
</svg>
