<svg xmlns="http://www.w3.org/2000/svg">
<defs>
<font id="AetherTRIAL-AMono" horiz-adv-x="1306" >
  <font-face 
    font-family="AetherTRIAL A Mono"
    font-weight="400"
    font-stretch="normal"
    units-per-em="2048"
    panose-1="2 6 5 3 8 4 0 6 4 4"
    ascent="1638"
    descent="-410"
    x-height="1069"
    cap-height="1434"
    bbox="-78 -389 1384 1587"
    underline-thickness="102"
    underline-position="-255"
    unicode-range="U+000D-F8FF"
  />
<missing-glyph 
d="M846 63q-109 0 -187.5 73t-78.5 188q0 35 6 54t26 19q14 0 20.5 -10t7.5 -21t1 -35v-7q0 -88 57 -148.5t146 -60.5q102 0 167.5 58t65.5 159q0 29 -14 71q-7 21 4 35q14 19 61 19q78 0 135.5 60.5t57.5 150.5q0 93 -59 152t-144 59q-142 0 -200 -117q-13 -25 -37 -25
q-13 0 -20.5 11.5t-0.5 33.5q24 70 95 112t153 42q119 0 197.5 -73t78.5 -191q0 -123 -76.5 -194t-185.5 -79q11 -63 11 -82q0 -121 -82.5 -187.5t-204.5 -66.5zM338 -33q-71 0 -120.5 44.5t-63.5 131.5q-207 -14 -207 142q0 62 41.5 104.5t95.5 42.5q62 0 102 -35
q9 -7 11.5 -18.5t-2.5 -18.5q-7 -10 -31 -10q-13 0 -37.5 12.5t-40.5 12.5q-39 0 -61.5 -26t-22.5 -64q0 -37 22.5 -62.5t63.5 -25.5q21 0 42.5 1t30.5 1t15 -2q28 -7 39 -47q0 -1 4.5 -16t7.5 -22.5t10 -22.5t16.5 -23.5t22.5 -19t32 -15t42 -4.5q62 0 93.5 33.5t31.5 91.5
q0 14 -3 37t-3 32q0 35 23 35q40 0 40 -104q0 -50 -17.5 -88t-46.5 -58t-61.5 -29.5t-68.5 -9.5zM8 504q-29 0 -57.5 26t-28.5 76q0 47 31 81t63 34q9 0 17 -6t8 -17q0 -12 -14.5 -21.5t-29.5 -24.5t-15 -40q0 -21 8.5 -36.5t19 -22t19 -14.5t8.5 -17q0 -18 -29 -18z
M754 487q-64 5 -141.5 45t-112.5 89q-18 -15 -66 -37.5t-69 -22.5t-21 23q0 19 27 28q35 12 58 24.5t27 16.5l15 15q-12 37 -29 116q-7 27 11 39q22 12 30 -20q20 -89 27 -105q15 19 25.5 47.5t15 50.5t8 46.5t4.5 29.5q7 23 25 23t18 -37q0 -51 -20.5 -109.5t-48.5 -99.5
q29 -42 90 -74.5t133 -46.5q13 -3 19.5 -9.5t6.5 -12.5q0 -22 -32 -19zM147 770q-27 -9 -43 16q-81 131 -81 273q0 108 49.5 200.5t143.5 150t212 58.5q101 1 181 -28t127 -73t78.5 -100t42.5 -104.5t11 -93.5q0 -52 -14.5 -78t-36.5 -26q-5 0 -8.5 0.5t-5.5 2t-3 3.5

<glyph glyph-name=".notdef" 
d="M846 63q-109 0 -187.5 73t-78.5 188q0 35 6 54t26 19q14 0 20.5 -10t7.5 -21t1 -35v-7q0 -88 57 -148.5t146 -60.5q102 0 167.5 58t65.5 159q0 29 -14 71q-7 21 4 35q14 19 61 19q78 0 135.5 60.5t57.5 150.5q0 93 -59 152t-144 59q-142 0 -200 -117q-13 -25 -37 -25
q-13 0 -20.5 11.5t-0.5 33.5q24 70 95 112t153 42q119 0 197.5 -73t78.5 -191q0 -123 -76.5 -194t-185.5 -79q11 -63 11 -82q0 -121 -82.5 -187.5t-204.5 -66.5zM338 -33q-71 0 -120.5 44.5t-63.5 131.5q-207 -14 -207 142q0 62 41.5 104.5t95.5 42.5q62 0 102 -35
q9 -7 11.5 -18.5t-2.5 -18.5q-7 -10 -31 -10q-13 0 -37.5 12.5t-40.5 12.5q-39 0 -61.5 -26t-22.5 -64q0 -37 22.5 -62.5t63.5 -25.5q21 0 42.5 1t30.5 1t15 -2q28 -7 39 -47q0 -1 4.5 -16t7.5 -22.5t10 -22.5t16.5 -23.5t22.5 -19t32 -15t42 -4.5q62 0 93.5 33.5t31.5 91.5
q0 14 -3 37t-3 32q0 35 23 35q40 0 40 -104q0 -50 -17.5 -88t-46.5 -58t-61.5 -29.5t-68.5 -9.5zM8 504q-29 0 -57.5 26t-28.5 76q0 47 31 81t63 34q9 0 17 -6t8 -17q0 -12 -14.5 -21.5t-29.5 -24.5t-15 -40q0 -21 8.5 -36.5t19 -22t19 -14.5t8.5 -17q0 -18 -29 -18z
M754 487q-64 5 -141.5 45t-112.5 89q-18 -15 -66 -37.5t-69 -22.5t-21 23q0 19 27 28q35 12 58 24.5t27 16.5l15 15q-12 37 -29 116q-7 27 11 39q22 12 30 -20q20 -89 27 -105q15 19 25.5 47.5t15 50.5t8 46.5t4.5 29.5q7 23 25 23t18 -37q0 -51 -20.5 -109.5t-48.5 -99.5
q29 -42 90 -74.5t133 -46.5q13 -3 19.5 -9.5t6.5 -12.5q0 -22 -32 -19zM147 770q-27 -9 -43 16q-81 131 -81 273q0 108 49.5 200.5t143.5 150t212 58.5q101 1 181 -28t127 -73t78.5 -100t42.5 -104.5t11 -93.5q0 -52 -14.5 -78t-36.5 -26q-5 0 -8.5 0.5t-5.5 2t-3 3.5
t-1 5.5t0.5 8t1.5 11.5t2 14.5t1.5 18.5t0.5 22q0 159 -106.5 258.5t-256.5 99.5q-159 0 -258.5 -106t-99.5 -267q0 -115 70 -217q9 -13 7.5 -29t-14.5 -20z" />
    <glyph glyph-name=".null" horiz-adv-x="0" 
 />
    <glyph glyph-name="nonmarkingreturn" horiz-adv-x="682" 
 />
    <glyph glyph-name="CR" unicode="&#xd;" 
 />
    <glyph glyph-name="space" unicode=" " 
 />
    <glyph glyph-name="comma" unicode="," 
d="M651 -31q-92 0 -144 47.5t-52 124.5q0 76 51 126t127 50t127 -54t51 -142v-37q0 -67 -20.5 -129t-51 -107t-73 -86.5t-77.5 -67t-75 -48.5l-51 71l72 52q119 83 145 200h-29z" />
    <glyph glyph-name="hyphen" unicode="-" 
d="M991 545h-678v123h678v-123z" />
    <glyph glyph-name="period" unicode="." 
d="M653 -33q-73 0 -126.5 53.5t-53.5 126.5q0 74 53.5 127.5t126.5 53.5t127 -54t54 -127t-53.5 -126.5t-127.5 -53.5z" />
    <glyph glyph-name="zero" unicode="0" 
d="M653 -33q-158 0 -282 99.5t-190 269.5t-66 379q0 210 66 380.5t190 270.5t282 100t282 -99.5t190.5 -268.5t66.5 -377q0 -211 -66.5 -382.5t-190 -271.5t-282.5 -100zM360 373q0 -144 84 -229t209 -85t209 85t84 229v682q0 152 -82.5 235.5t-208.5 83.5
q-128 0 -211.5 -83.5t-83.5 -235.5v-682z" />
    <glyph glyph-name="one" unicode="1" 
d="M1171 0h-1036v80h438v1188l-319 -432l-74 55l361 483q36 49 64.5 70.5t68.5 21.5q92 0 92 -104v-1282h405v-80z" />
    <glyph glyph-name="two" unicode="2" 
d="M180 0v164l395 389q18 18 64 62t62.5 60.5t50 51.5t46.5 54t30.5 46.5t23.5 51t6 47.5v219q0 102 -64 164.5t-167 62.5h-31q-96 0 -158.5 -43.5t-62.5 -118.5q0 -34 25.5 -96t25.5 -96q0 -43 -30 -77t-95 -34q-54 0 -87.5 38t-33.5 104q0 179 115.5 298t310.5 119h41
q201 0 317.5 -110t116.5 -283q0 -54 -15 -105t-36.5 -88t-58 -79t-64.5 -68t-73 -66.5t-68 -62.5l-268 -262q-54 -51 -54 -96q0 -40 27 -65t72 -25h266q227 0 227 250v124h90v-528h-2v-2h-944z" />
    <glyph glyph-name="three" unicode="3" 
d="M621 -33q-201 0 -321 108.5t-120 291.5v98h90v-90q0 -140 90.5 -224.5t239.5 -84.5q135 0 218 74.5t83 197.5v133q0 101 -59.5 161.5t-165.5 61.5h-225v107h231q102 0 160.5 64t58.5 175v107q0 102 -66 164.5t-176 62.5h-26q-90 0 -155.5 -45t-65.5 -117q0 -29 21.5 -79
t21.5 -82q0 -47 -31 -75t-82 -28q-54 0 -85.5 36.5t-31.5 105.5q0 155 113 265.5t291 110.5h43q201 0 317.5 -104t116.5 -262q0 -127 -83.5 -221.5t-215.5 -124.5q148 -39 233.5 -139t85.5 -230q0 -178 -143.5 -298t-361.5 -120z" />
    <glyph glyph-name="four" unicode="4" 
d="M1217 0h-857v80h394v246q0 59 -30.5 89.5t-86.5 30.5h-547v64l682 903q40 53 88 53q40 0 63 -23t23 -59v-847h268v-91h-147q-60 0 -91.5 -30t-29.5 -86v-250h271v-80zM238 537h393q60 0 91.5 30t31.5 86v574z" />
    <glyph glyph-name="five" unicode="5" 
d="M621 -33q-198 0 -319.5 111t-121.5 289v112h90v-104q0 -143 95 -227.5t231 -84.5q140 0 222.5 79t82.5 202v221q0 117 -72 187.5t-192 70.5q-92 0 -148.5 -36t-78.5 -95q-26 -74 -86 -74q-41 0 -64 26.5t-16 68.5l116 721h586v153h90v-325h-495q-117 0 -117 -119l2 -232
h225q200 0 337.5 -134t137.5 -331q0 -202 -142.5 -340.5t-362.5 -138.5z" />
    <glyph glyph-name="six" unicode="6" 
d="M705 1466q175 0 286 -104t111 -252q0 -143 -117 -143q-56 0 -87.5 30t-31.5 74q0 27 12.5 66t12.5 63q0 28 -10 56t-31.5 56t-63.5 45t-98 17h-22q-139 0 -222.5 -99.5t-83.5 -238.5v-139h246q230 0 376 -131.5t146 -323.5q0 -130 -60.5 -238.5t-172 -172.5t-250.5 -64
q-231 0 -371.5 201.5t-140.5 531.5q0 228 67 401.5t191 269t287 95.5h27zM375 324q0 -121 74 -195t196 -74q116 0 186 74t70 195v204q0 126 -73.5 203.5t-194.5 77.5q-117 0 -187.5 -77.5t-70.5 -203.5v-204z" />
    <glyph glyph-name="seven" unicode="7" 
d="M721 80q0 -50 -32 -81.5t-77 -31.5q-50 0 -83 31.5t-33 81.5v135q0 114 116 322l285 510q49 89 49 131q0 100 -129 100h-323q-224 0 -224 -229v-99h-90l2 484h944v-164l-405 -742v-448z" />
    <glyph glyph-name="eight" unicode="8" 
d="M629 791h24h25h-49zM637 705q-112 0 -185 -62.5t-73 -163.5v-196q0 -101 73 -163.5t185 -62.5h31q112 0 185 62.5t73 163.5v196q0 101 -73 163.5t-185 62.5h-31zM1108 1106q0 -115 -78 -205t-213 -135q155 -41 247.5 -143.5t92.5 -233.5q0 -180 -144 -301t-360 -121
q-214 0 -358.5 118t-144.5 286q0 141 92.5 247.5t249.5 147.5q-136 44 -213.5 131t-77.5 193q0 104 63 191t167 136t222 49t223 -48.5t168.5 -132t63.5 -179.5zM641 1376q-105 0 -170 -61t-65 -160v-104q0 -103 64.5 -164.5t170.5 -61.5h18q109 0 175.5 62t66.5 164v102
q0 101 -65.5 162t-171.5 61h-23z" />
    <glyph glyph-name="nine" unicode="9" 
d="M602 -33q-174 0 -285.5 104t-111.5 253q0 143 117 143q56 0 87 -30.5t31 -74.5q0 -27 -12 -66t-12 -63q0 -28 10 -56t31.5 -56t63 -45t97.5 -17h23q139 0 222 99.5t83 238.5v140h-246q-230 0 -376 131.5t-146 322.5q0 130 61 238.5t172.5 172.5t250.5 64
q231 0 371.5 -201.5t140.5 -531.5q0 -228 -67 -401.5t-191 -269t-287 -95.5h-27zM932 1110q0 121 -74 194.5t-196 73.5q-116 0 -186 -73.5t-70 -194.5v-205q0 -126 73.5 -203t194.5 -77q117 0 187.5 77t70.5 203v205z" />
    <glyph glyph-name="A" unicode="A" 
d="M518 1376q15 50 38 70t65 20q76 0 100 -84l409 -1302h130v-80h-494v80h141l-125 412h-428l-118 -412h217v-80h-408v80h90zM383 598h367l-191 616z" />
    <glyph glyph-name="B" unicode="B" 
d="M414 301q0 -97 64 -156t181 -59h31q126 0 191 62.5t65 183.5v102q0 117 -61.5 181.5t-171.5 62.5l-299 2v-379zM670 0h-625v80h180v1274h-180v80h573q231 0 380 -102t149 -249q0 -121 -92.5 -214t-249.5 -130q175 -30 281 -128.5t106 -225.5q0 -165 -146 -274.5
t-376 -110.5zM416 782h272q108 0 161.5 66t53.5 176v84q0 113 -63.5 175.5t-180.5 62.5h-34q-94 0 -151.5 -59t-57.5 -154v-351z" />
    <glyph glyph-name="C" unicode="C" 
d="M717 -33q-126 0 -236 50.5t-192 143.5t-129 232.5t-47 308.5q0 62 10 129t32.5 139t56 138t84 126t112 104t145 70t178.5 26h418v-482h-90v41q0 85 -19 149t-49.5 102t-74.5 61.5t-87.5 32t-95.5 8.5h-22q-52 0 -99 -11.5t-92 -38.5t-78 -68.5t-53 -106.5t-20 -146v-479
q0 -212 95.5 -324.5t266.5 -112.5q93 0 162 28t109.5 80t59.5 118t19 149v94h90v-100q0 -104 -25.5 -185t-67 -132t-100 -84.5t-120 -46.5t-131.5 -13h-10z" />
    <glyph glyph-name="D" unicode="D" 
d="M45 0v80h135v1274h-135v80h584q133 0 248 -54.5t196 -148t127.5 -223t46.5 -275.5q0 -159 -48 -297t-129.5 -233t-190.5 -149t-230 -54h-604zM373 313q0 -104 63 -165.5t172 -61.5h49q155 0 244.5 98t89.5 267v493q0 199 -97.5 301.5t-246.5 102.5h-26q-118 0 -183 -61.5
t-65 -166.5v-807z" />
    <glyph glyph-name="E" unicode="E" 
d="M45 0v80h180v1274h-180v80h1071v-482h-90v138q0 126 -60 192t-171 66h-146q-110 0 -170.5 -63t-60.5 -179v-313h530v-107h-530v-371q0 -104 62 -166.5t171 -62.5h154q102 0 166.5 59.5t64.5 188.5v196h90v-530h-1081z" />
    <glyph glyph-name="F" unicode="F" 
d="M45 0v80h180v1274h-182v80h1083v-482h-90l-2 105q0 37 -2 63.5t-8 59.5t-16 55t-28 45t-43 37t-62 22.5t-84 8.5h-132q-116 0 -176.5 -58.5t-60.5 -197.5v-318h522v-106h-522v-588h297v-80h-674z" />
    <glyph glyph-name="G" unicode="G" 
d="M664 -33q-141 0 -256.5 61t-189 164t-113 232.5t-39.5 271.5q0 53 8 113t28.5 133t52 141t82 132.5t114 112.5t154 77t195.5 29h426v-484h-90l-2 64q-5 157 -84 243t-241 86h-35q-159 0 -255 -103.5t-97 -289.5l-3 -454q-1 -205 96.5 -321t258.5 -116h14q137 0 221 88
t84 220v206h-364v107h633v-107h-91v-573h-92v139h-63q-52 -83 -139.5 -127.5t-192.5 -44.5h-20z" />
    <glyph glyph-name="H" unicode="H" 
d="M45 1354v80h496v-80h-160v-549h545v549h-160v80h496v-80h-136v-1274h136v-80h-496v80h160v610h-545v-610h160v-80h-496v80h135v1274h-135z" />
    <glyph glyph-name="I" unicode="I" 
d="M1126 0h-944v80h371v1274h-371v80h944v-80h-372v-1274h372v-80z" />
    <glyph glyph-name="J" unicode="J" 
d="M135 436v94h90v-65q0 -181 84.5 -283t231.5 -102q143 0 218 87t75 247v940h-336v80h721v-80h-185v-1000q0 -165 -130 -276t-324 -111q-191 0 -318 134t-127 335z" />
    <glyph glyph-name="K" unicode="K" 
d="M731 883q-29 -39 -29 -72q0 -41 41 -98l435 -633h129v-80h-496v80h125l-416 604h-92v-604h248v-80h-631v80h182v1274h-182v80h631v-80h-248v-572h96l475 572h-186v80h451v-80h-152z" />
    <glyph glyph-name="L" unicode="L" 
d="M43 0v80h182v1274h-180v80h676v-80h-299v-992q0 -82 20.5 -138.5t57.5 -84t77 -38.5t91 -11h149q62 0 106 12.5t81 44.5t55 93t18 151v139h94v-530h-1128z" />
    <glyph glyph-name="M" unicode="M" 
d="M43 0v80h139v1274h-123v80h306l311 -1125l262 1125h307v-80h-119v-1274h136v-80h-451v80h135v997l-215 -934q-13 -61 -35.5 -84.5t-64.5 -23.5q-71 0 -96 92l-254 926v-973h129v-80h-367z" />
    <glyph glyph-name="N" unicode="N" 
d="M63 1354v80h295l670 -1166v1086h-309v80h543v-80h-136v-1284v-2q0 -44 -29 -72.5t-69 -28.5q-64 0 -98 58l-606 1058v-1003h262v-80h-543v80h182v1274h-162z" />
    <glyph glyph-name="O" unicode="O" 
d="M645 -33q-110 0 -218 63.5t-188.5 166.5t-130 239.5t-49.5 274.5q0 144 49.5 283t130 242t188 166.5t218.5 63.5h12q148 0 285.5 -106.5t221 -279t83.5 -357.5q0 -144 -49.5 -283.5t-130.5 -242.5t-189 -166.5t-219 -63.5h-14zM315 432q0 -155 89.5 -264t232.5 -109h33
q142 0 231.5 109t89.5 256v573q0 161 -89 269t-234 108h-27q-145 0 -235.5 -107.5t-90.5 -258.5v-576z" />
    <glyph glyph-name="P" unicode="P" 
d="M45 0v80h180v1274h-180v80h662q231 0 379.5 -114t148.5 -278q0 -177 -148 -294.5t-380 -114.5h-281v-553h293v-80h-674zM422 952q0 -107 62 -170t171 -63h101q109 0 171 63t62 170v170q0 101 -62 162t-171 64h-107q-103 2 -165 -61.5t-62 -170.5v-164z" />
    <glyph glyph-name="Q" unicode="Q" 
d="M645 -33q-110 0 -218 63.5t-188.5 166.5t-130 239.5t-49.5 274.5q0 144 49.5 283t130 242t188 166.5t218.5 63.5h12q148 0 285.5 -106.5t221 -279t83.5 -357.5q0 -193 -83 -367.5t-218 -279.5v-234q0 -102 94 -102q86 0 86 113v227h91v-143q0 -142 -53 -218t-175 -75
q-96 0 -157.5 52.5t-61.5 158.5v129q-60 -17 -111 -17h-14zM315 432q0 -93 36.5 -175.5t99.5 -133.5v149q0 110 63 172t174 62h21q112 0 174.5 -64t62.5 -184v-22q45 85 45 188v573q0 161 -89 269t-234 108h-27q-145 0 -235.5 -107.5t-90.5 -258.5v-576zM541 176
q0 -102 82 -117h14h33q46 0 102 17v215q0 59 -31.5 89t-87.5 30q-52 0 -82 -31.5t-30 -87.5v-115z" />
    <glyph glyph-name="R" unicode="R" 
d="M45 0v80h180v1274h-180v80h631q230 0 373 -105.5t143 -259.5q0 -143 -114.5 -245.5t-301.5 -127.5l17 -12q115 -80 158 -181.5t46 -238.5l2 -86q1 -47 24 -70.5t58 -23.5q40 0 65 27.5t25 74.5v279h91v-203q0 -141 -61 -218.5t-175 -76.5q-109 0 -174.5 62.5t-65.5 171.5
v229q0 117 -69 187.5t-156 70.5h-135v-608h203v-80h-584zM713 778q109 0 171 59.5t62 157.5v125q0 104 -62 166t-171 62h-64q-104 0 -165.5 -62.5t-61.5 -171.5v-119q0 -98 62 -157.5t171 -59.5h58z" />
    <glyph glyph-name="S" unicode="S" 
d="M180 0v530h90v-49q0 -92 17 -161.5t45 -113t69 -70.5t84.5 -37.5t96.5 -10.5h71q135 0 218 66.5t83 193.5q0 118 -59.5 175t-177.5 75l-244 37q-130 19 -211.5 119t-81.5 258q0 85 24.5 158.5t75.5 134t139 95t204 34.5h442v-482h-90v54q0 76 -14 133.5t-47.5 106
t-96 74.5t-153.5 26h-48q-142 0 -220.5 -67.5t-78.5 -172.5q0 -199 234 -236l203 -30q185 -28 267.5 -122.5t82.5 -281.5q0 -88 -25.5 -163.5t-79 -138t-146 -98.5t-216.5 -36h-457z" />
    <glyph glyph-name="T" unicode="T" 
d="M553 1122q0 230 -184 230q-91 0 -139 -53.5t-48 -176.5v-256h-92v568h1127v-568h-93v240q0 135 -46.5 190.5t-137.5 55.5q-88 0 -137 -54.5t-49 -169.5v-1048h282v-80h-768v80h285v1042z" />
    <glyph glyph-name="U" unicode="U" 
d="M670 -33q-74 0 -139 9t-131 34.5t-113.5 65.5t-77 106.5t-29.5 153.5v1018h-180v80h586v-80h-205l-2 -955q0 -79 19 -140t49.5 -97.5t73.5 -59.5t86 -31.5t91 -7.5h23q83 0 146 24.5t98.5 67t53 93.5t17.5 110v996h-180v80h451v-80h-170v-998q0 -103 -36 -179.5
t-100.5 -121.5t-147 -66.5t-183.5 -21.5z" />
    <glyph glyph-name="V" unicode="V" 
d="M539 1434v-80h-133l329 -1121l312 1121h-195v80h408v-80h-113l-365 -1293q-14 -52 -39.5 -73t-66.5 -21q-79 0 -103 78l-391 1309h-137v80h494z" />
    <glyph glyph-name="W" unicode="W" 
d="M991 1434h271v-80h-72l-195 -1295q-13 -92 -92 -92q-37 0 -64 20t-34 60l-143 748l-134 -727q-10 -50 -33.5 -75.5t-68.5 -25.5q-80 0 -94 80l-226 1307h-61v80h856v-80h-137l-16 -90l190 -998l162 1088h-109v80zM479 262l139 752l-65 340h-256z" />
    <glyph glyph-name="X" unicode="X" 
d="M45 1354v80h545v-80h-184l282 -486l303 486h-225v80h498v-80h-166l-357 -574l410 -700h111v-80h-498v80h156l-295 504l-312 -504h230v-80h-498v80h162l366 592l-399 682h-129z" />
    <glyph glyph-name="Y" unicode="Y" 
d="M223 0v80h330v569l-381 705h-127v80h541v-80h-191l318 -598l334 598h-193v80h408v-80h-109l-399 -711v-563h329v-80h-860z" />
    <glyph glyph-name="Z" unicode="Z" 
d="M272 0q-35 0 -63.5 26t-28.5 68q0 34 17 60l766 1187h-353q-179 0 -260.5 -74.5t-81.5 -256.5v-58h-90v482h895q44 0 70 -26t26 -69q0 -36 -18 -63l-764 -1184h369q81 0 141 20t94 50.5t54 77t26.5 88.5t7.5 96l2 106h90v-530h-899z" />
    <glyph glyph-name="a" unicode="a" 
d="M811 778q1 116 -58 176t-169 60h-6q-97 0 -144 -32t-47 -83q0 -25 14.5 -65t14.5 -66q0 -45 -28 -75.5t-87 -30.5t-90 32t-31 92q0 97 55.5 170t146.5 109.5t202 36.5q183 0 295 -86t112 -250v-582q0 -47 25.5 -75.5t66.5 -28.5t64.5 28t23.5 76v281h91v-203
q0 -136 -61 -211.5t-152 -75.5q-79 0 -136.5 44t-83.5 131q-53 -87 -144 -135t-206 -48h-22q-136 0 -229 82.5t-93 204.5q0 66 26 121t69 92t89.5 61t96.5 37l274 78q28 8 44 14.5t36 21t30 39t11 60.5zM350 184q0 -61 32 -95t110 -34t141.5 29.5t100.5 75t57 95.5t20 95
v238l-342 -99q-62 -19 -91 -47t-28 -80v-178z" />
    <glyph glyph-name="b" unicode="b" 
d="M311 135h-41v-135h-90v1354h-160v80h220q60 0 91 -30.5t29 -86.5v-248h312q86 0 174.5 -42t160 -113t117 -174.5t45.5 -217.5q0 -112 -46.5 -216.5t-119 -177.5t-162.5 -117t-175 -44q-46 0 -90 10t-72.5 20t-65 34.5t-49 34t-45 39t-33.5 30.5zM946 692q0 128 -82 209.5
t-209 81.5q-131 0 -213 -85.5t-82 -225.5v-324q0 -129 82 -211t211 -82q130 0 211.5 88t81.5 226v323z" />
    <glyph glyph-name="c" unicode="c" 
d="M645 -33q-95 0 -187.5 42.5t-163.5 114.5t-115 174t-44 214q0 63 20 135.5t64 148t105.5 136t154.5 99t201 38.5h342v-405h-88l-2 41q-7 144 -74.5 211t-204.5 67q-131 0 -214 -88.5t-83 -247.5v-254q0 -163 84 -249.5t217 -86.5q129 0 211 88.5t82 247.5v19h86v-25
q0 -104 -31.5 -185.5t-86.5 -132t-124.5 -76.5t-148.5 -26z" />
    <glyph glyph-name="d" unicode="d" 
d="M946 723q0 128 -81 209.5t-208 81.5q-130 0 -213.5 -87.5t-83.5 -224.5v-323q0 -129 82 -211t211 -82q130 0 211.5 87.5t81.5 225.5v324zM645 1102q194 0 301 -123v375h-315v80h375q60 0 91 -30.5t29 -86.5v-1237h136v-80h-621q-90 0 -181 43t-162 114t-116 172t-45 210
q0 94 30 182t81 156t116 119.5t138 78.5t143 27z" />
    <glyph glyph-name="e" unicode="e" 
d="M715 -33q-145 0 -267 72t-194 201.5t-72 289.5q0 117 43 224.5t113.5 183t162.5 120t187 44.5q128 0 229 -71.5t154 -186.5t53 -248v-61h-721v-144q0 -158 92.5 -246t235.5 -88q145 0 227 86.5t82 259.5v9h86v-25q0 -209 -113 -314.5t-298 -105.5zM403 625h402
q121 0 121 137q0 110 -65 180t-181 70q-122 0 -199.5 -89t-77.5 -251v-47z" />
    <glyph glyph-name="f" unicode="f" 
d="M496 848q0 60 -30.5 91.5t-86.5 29.5h-154v100h271v61q0 164 94.5 250t240.5 86q136 0 230 -63.5t94 -165.5q0 -49 -26.5 -78t-77.5 -29q-47 0 -76 28t-29 61q0 17 6 37.5t6 29.5q0 44 -38 70t-103 26q-61 0 -101 -32t-40 -84v-76q0 -60 30.5 -91.5t86.5 -29.5h333v-100
h-329q-59 0 -90 -30.5t-31 -86.5v-772h448v-80h-948v80h320v768z" />
    <glyph glyph-name="g" unicode="g" 
d="M494 -387q-177 0 -268 62t-91 173q0 104 90 179v227q0 202 183 217q-73 51 -114.5 121.5t-41.5 152.5q0 145 118 251t281 106q84 0 168 -33h352v-98h-206q90 -96 90 -219q0 -145 -119 -251t-283 -106h-16h-213q-43 0 -65.5 -22t-22.5 -58t21.5 -56.5t62.5 -20.5h397
q90 0 160 -25t111.5 -68t62 -95.5t20.5 -112.5q0 -65 -23 -122t-68 -103t-120.5 -72.5t-171.5 -26.5h-294zM791 -301q118 0 181.5 49.5t63.5 136.5q0 80 -53.5 126t-159.5 46h-329q-104 0 -164 -47.5t-60 -134.5q0 -176 207 -176h314zM657 477q89 0 144 57.5t55 157.5v115
q0 100 -55.5 156.5t-147.5 56.5t-147 -57t-55 -156v-115q0 -100 56.5 -157.5t149.5 -57.5z" />
    <glyph glyph-name="h" unicode="h" 
d="M285 1434q59 0 90 -30.5t31 -86.5v-248h303q180 1 276 -88.5t96 -237.5v-663h181v-80h-541v80h180v670q0 109 -62 171t-169 62h-31q-108 0 -170.5 -61.5t-62.5 -171.5v-670h182v-80h-543v80h180v1274h-159v80h219z" />
    <glyph glyph-name="i" unicode="i" 
d="M135 0v80h428v909h-403v80h463q120 0 120 -123v-866h428v-80h-1036zM631 1151q-65 0 -111.5 46.5t-46.5 111.5q0 64 46.5 110.5t111.5 46.5t111 -46t46 -111t-46.5 -111.5t-110.5 -46.5z" />
    <glyph glyph-name="j" unicode="j" 
d="M225 -51v178h90v-172q0 -117 61 -180.5t165 -63.5t164.5 62.5t60.5 171.5v1044h-406v80h465q59 0 90 -30.5t31 -86.5v-1003q0 -165 -102 -251.5t-262 -86.5t-258.5 86.5t-98.5 251.5zM854 1151q-64 0 -111 46.5t-47 111.5q0 64 46.5 110.5t111.5 46.5t111.5 -46.5
t46.5 -110.5q0 -65 -47 -111.5t-111 -46.5z" />
    <glyph glyph-name="k" unicode="k" 
d="M45 0v80h180v1274h-159v80h217q60 0 91.5 -30.5t31.5 -86.5v-748h73l395 420h-198v80h543v-80h-234l-285 -309q-36 -39 -36 -84q0 -48 38 -86l410 -430h150v-80h-543v80h153l-395 409h-71v-409h225v-80h-586z" />
    <glyph glyph-name="l" unicode="l" 
d="M135 0v80h426v1274h-401v80h461q60 0 91 -30.5t29 -86.5v-1237h428v-80h-1034z" />
    <glyph glyph-name="m" unicode="m" 
d="M43 989v80h119l782 -2q104 0 165.5 -62t61.5 -171v-834h-180v868q2 53 -32.5 85t-92.5 32t-92 -32t-31 -85v-868h-180v864q0 54 -34 87.5t-91 33.5q-55 0 -89 -33.5t-34 -87.5v-864h-180v989h-92z" />
    <glyph glyph-name="n" unicode="n" 
d="M45 0v80h180v909h-157v80h641q182 0 277 -89t95 -237v-663h181v-80h-541v80h180v670q0 106 -61 169.5t-166 63.5h-41q-104 0 -165.5 -63.5t-61.5 -169.5v-670h182v-80h-543z" />
    <glyph glyph-name="o" unicode="o" 
d="M1169 541q0 -152 -73.5 -285.5t-193.5 -211t-251 -77.5q-96 0 -190 47t-165 123t-115 179.5t-44 209.5q0 115 43.5 222.5t114.5 184.5t165.5 123t192.5 46q130 0 249.5 -79t193 -209.5t73.5 -272.5zM360 393q0 -165 82 -250.5t215 -85.5q125 0 207 86t82 250v283
q0 165 -82 250.5t-215 85.5q-125 0 -207 -86t-82 -250v-283z" />
    <glyph glyph-name="p" unicode="p" 
d="M43 -356v80h137v1265h-135v80h614q88 0 179.5 -43t164.5 -114.5t119.5 -172.5t46.5 -209q0 -117 -46 -223.5t-118.5 -179.5t-163 -116.5t-179.5 -43.5q-85 0 -167.5 30t-134.5 89v-362h408v-80h-725zM647 983q-128 0 -207.5 -85t-79.5 -228v-322q0 -128 83.5 -210.5
t209.5 -82.5q127 0 210 88.5t83 225.5v323q0 129 -83.5 210t-215.5 81z" />
    <glyph glyph-name="q" unicode="q" 
d="M543 -356v80h403v276h-305q-85 0 -175 43.5t-163 115t-119.5 172.5t-46.5 208q0 116 46.5 223t119.5 180t162 116.5t174 43.5q61 0 116 -13.5t92 -32.5t68.5 -45.5t49 -47t30.5 -41.5h41v147h90v-1345h138v-80h-721zM657 1016q-130 0 -213.5 -85.5t-83.5 -223.5v-322
q0 -127 82 -210t211 -83q131 0 212 88.5t81 225.5v321q0 129 -80 209t-209 80z" />
    <glyph glyph-name="r" unicode="r" 
d="M90 0v80h225v909h-204v80h663q92 0 171 -35.5t130 -106t51 -161.5q0 -69 -31 -105t-87 -36q-53 0 -85 29t-32 71q0 31 19.5 68t19.5 65q0 61 -48.5 95t-123.5 34h-29q-110 0 -171.5 -60t-61.5 -163v-684h407v-80h-813z" />
    <glyph glyph-name="s" unicode="s" 
d="M1057 360q0 -176 -100 -268t-273 -92h-414v412h86l2 -58q4 -137 91.5 -203.5t226.5 -66.5q126 0 187 49.5t61 140.5q0 126 -129 146l-273 43q-124 21 -177.5 85.5t-53.5 172.5q0 151 92.5 249.5t273.5 98.5h379v-385h-84v23q0 143 -64.5 209.5t-213.5 66.5
q-127 0 -189.5 -51t-62.5 -133q0 -57 30 -86.5t95 -40.5l276 -43q234 -38 234 -269z" />
    <glyph glyph-name="t" unicode="t" 
d="M504 1337h82v-268h540v-100h-419q-59 0 -90 -30.5t-31 -86.5v-549q0 -114 51 -173.5t149 -59.5q205 0 205 243v152h90v-162q0 -164 -93 -250t-236 -86q-155 0 -250.5 85.5t-95.5 250.5v545q0 60 -30.5 91.5t-86.5 29.5h-199v100h191q102 0 157.5 60.5t63.5 175.5z" />
    <glyph glyph-name="u" unicode="u" 
d="M961 1069q60 0 91 -30.5t29 -86.5v-872h158v-80h-698q-81 0 -144.5 29t-99.5 75.5t-54 97.5t-18 101v686h-180v80h240q59 0 90 -30.5t31 -86.5v-639q0 -109 61.5 -171t165.5 -62h29q113 0 176 61.5t63 171.5v676h-182v80h242z" />
    <glyph glyph-name="v" unicode="v" 
d="M88 991v80h451v-80h-162l307 -807l303 807h-221v80h451v-80h-125l-367 -956q-14 -36 -33.5 -53t-50.5 -17q-67 0 -92 66l-379 960h-82z" />
    <glyph glyph-name="w" unicode="w" 
d="M991 1069h316v-80h-72l-262 -944q-12 -44 -30.5 -61t-53.5 -17q-61 0 -80 62l-166 522l-139 -504q-11 -42 -31.5 -61t-56.5 -19q-66 0 -84 70l-287 952h-74v80h932v-80h-139l-37 -131l197 -649l215 780h-148v80zM229 989l226 -776l139 487l-92 289h-273z" />
    <glyph glyph-name="x" unicode="x" 
d="M92 989v80h494v-80h-148l248 -323l227 323h-190v80h496v-80h-193l-283 -399l390 -510h129v-80h-543v80h188l-270 356l-254 -356h203v-80h-494v80h176l312 430l-363 479h-125z" />
    <glyph glyph-name="y" unicode="y" 
d="M88 991v80h453v-80h-162l303 -801l305 801h-221v80h448v-80h-122l-373 -954v-80q1 -174 -83.5 -260t-221.5 -86q-152 0 -238 85.5t-86 260.5v170h90v-160q0 -134 59.5 -202t172.5 -68q106 0 161.5 61t55.5 176v56h-13q-56 0 -79 59l-367 942h-82z" />
    <glyph glyph-name="z" unicode="z" 
d="M297 0q-41 0 -64.5 24.5t-23.5 61.5q0 31 18 55l635 842h-301q-74 0 -123.5 -17t-75 -50.5t-35.5 -71.5t-12 -92l-2 -68h-88v385h742q38 0 63 -20t25 -60q0 -31 -31 -74l-623 -829h314q81 0 136.5 19t86 58t43 88.5t12.5 119.5v41h88v-412h-784z" />
    <glyph glyph-name="uni00A0" unicode="&#xa0;" 
 />
    <glyph glyph-name="uni2000" unicode="&#x2000;" 
 />
    <glyph glyph-name="uni2001" unicode="&#x2001;" 
 />
    <glyph glyph-name="uni2002" unicode="&#x2002;" 
 />
    <glyph glyph-name="uni2003" unicode="&#x2003;" 
 />
    <glyph glyph-name="uni2004" unicode="&#x2004;" horiz-adv-x="653" 
 />
    <glyph glyph-name="uni2005" unicode="&#x2005;" horiz-adv-x="327" 
 />
    <glyph glyph-name="uni2006" unicode="&#x2006;" horiz-adv-x="327" 
 />
    <glyph glyph-name="uni2007" unicode="&#x2007;" 
 />
    <glyph glyph-name="uni2008" unicode="&#x2008;" 
 />
    <glyph glyph-name="uni2009" unicode="&#x2009;" horiz-adv-x="653" 
 />
    <glyph glyph-name="uni200A" unicode="&#x200a;" horiz-adv-x="327" 
 />
    <glyph glyph-name="uni200B" unicode="&#x200b;" horiz-adv-x="0" 
 />
    <glyph glyph-name="uni202F" unicode="&#x202f;" horiz-adv-x="327" 
 />
    <glyph glyph-name="uni205F" unicode="&#x205f;" horiz-adv-x="454" 
 />
    <glyph glyph-name="uniF8FF" unicode="&#xf8ff;" 
d="M836 12q16 0 22 15q2 2 2 8q0 8 -5 17t-9 11q-10 20 -10 48v41q0 10 3 21.5t3 16.5q0 9 -6 21q20 6 30 22q2 2 2 7q0 4 -6 22q-5 8 -16 8q-12 0 -21 -6q-39 -23 -39 -47l5 -20l-5 -15q-2 -6 -2 -47q0 -3 -1 -9.5t-1 -10.5q0 -29 15 -66q3 -37 39 -37zM719 176
q9 0 17.5 6.5t8.5 16.5q0 12 -6 24q-11 18 -14 47q-6 50 -33 84q-11 11 -18 11q-8 0 -17 -9q-22 -18 -6 -37q19 -23 21 -55q3 -36 20 -63v-4q0 -21 27 -21zM657 88q8 0 17.5 7.5t9.5 17.5l4 67v4q0 21 -26 21q-8 0 -17.5 -7.5t-9.5 -15.5l-4 -67q0 -10 7.5 -18.5t18.5 -8.5z
M963 86q22 11 18 29l-14 67q-7 26 -29 19q-28 -8 -23 -31l15 -66q3 -13 15 -17.5t18 -0.5zM903 1163q16 0 25 21l12 30q21 56 21 101q0 41 -17 84q-10 25 -15 41t-5.5 20.5t-0.5 10t-1 8.5q-6 22 -29 22q-12 0 -20 -7t-7 -21q2 -11 29 -95q10 -25 10 -61q0 -31 -14 -82
l-8 -27q-6 -18 -6 -26q0 -19 26 -19zM485 115q13 0 25 12l2 -2q-7 -7 -11 -11.5t-6 -9t-2.5 -6.5t-1.5 -8t-2 -10q-26 -8 -26 -25q0 -24 29 -24q16 0 25.5 8.5t19.5 34.5q32 32 32 51q0 8 -7.5 23.5t-22.5 25.5l-7 2q-8 4 -12 4q-11 0 -18 -10q-6 -9 -6 -16q0 -13 14 -27
q15 15 22 49q7 31 5 45l-2 29q14 25 33.5 88.5t35.5 91.5q2 4 2 12q0 13 -10 23q-8 4 -12 4q-20 0 -27 -14q-16 -24 -39 -97q-17 -53 -33 -82q-8 -13 -8 -32q0 -15 2 -23l2 -20q0 -26 -16 -39q-6 -4 -9.5 -15t3.5 -24q5 -8 26 -8zM1217 639q20 0 44.5 6.5t30.5 7.5l2 -6
l19 -39q7 -14 41 -14q24 0 24 22q0 15 -9 22t-15 7l-11 21q-6 11 -16.5 15t-17.5 -1q-20 -11 -17 -27h6q15 0 23 -4q2 -2 8 -2q12 0 19 10q4 3 6 11q0 2 1 5t1 5q0 16 -21 22q-9 9 -41 9q-6 0 -22 -4l-58 -15l-36 10q-3 0 -21.5 5t-45 13.5t-42.5 16.5q-6 4 -18 4
q-13 0 -19 -12q-4 -12 -4 -16q0 -13 16 -21q66 -34 119 -43zM780 1192q9 0 14.5 1.5t10 9t2.5 20.5l-8 41q-19 89 -19 116q0 29 13 70q2 4 2 10q0 15 -19 23q-4 2 -10 2q-15 0 -23 -19q-12 -28 -12 -77q0 -50 17 -138l8 -39q3 -13 8 -16.5t16 -3.5zM377 266q12 0 20 8
q-15 11 -28 2l-9 -6q4 -4 17 -4zM109 477q16 0 32 2h4q7 11 7 19q0 7 -9 16q-13 10 -18 10q-6 0 -16 -10q-15 -17 -15 -29l-4 -2q6 -6 19 -6zM1198 973l12 2h-14h-70q7 -11 23 -8zM201 899q18 0 24 12q4 8 4 13q0 12 -14 22q-24 17 -82 21q-3 16 -22 24q-34 14 -52 10
q-3 17 -12 24.5t-20 2.5q-29 -12 -17 -35q1 -8 7 -17t6 -11l8 -7q23 -17 78 -20q19 0 24 18v7v4q-25 2 -49 2q-45 0 -53 -11q-6 -6 -6 -18q0 -8 2 -14q-20 4 -31 4q-38 0 -57 -19q-20 -20 -7 -37q5 -7 15.5 -9.5t21.5 3.5q16 13 27 13q6 0 39 -11q12 -4 33 -4q7 0 15 5.5
t9 13.5q0 1 1 4t1 4q0 15 -22 22l-15 5q-18 6 -30 6q7 -11 45 -11h24q60 0 94 -14q6 -2 11 -2zM1208 924q27 0 27 24t-25 27q70 9 99 29q10 -5 22 -5q21 0 27 9q4 8 4 12q0 15 -16 31q-10 10 -33 10q-18 0 -29 -8q-38 -27 -92 -27q-27 0 -51 -8q-19 -6 -19 -27q0 -10 4 -16
q-25 0 -49 6q-2 0 -5 1t-5 1q-18 0 -25 -20q0 -1 -1 -4.5t-1 -4.5q0 -16 23 -22q27 -8 145 -8zM373 1239q0 -53 30 -80q8 -8 17 -8q8 0 20 8q9 6 9 19q0 11 -13 24q-12 12 -12 29q0 11 14 69v7q0 14 -18 22q-4 2 -12 2q-13 0 -21 -16q-14 -37 -14 -76zM1096 1122q10 0 14 2
q22 11 82 11q45 0 45 26q0 25 -49 25q-70 0 -105 -17q-14 -7 -14 -22q0 -25 27 -25zM295 1063q12 0 20.5 7.5t8.5 21.5q0 16 -11 49q-10 34 -4 49v4q0 26 -20 29h-8h-9l-4 2q-16 12 -35 12q-17 0 -32 -20q-6 -6 -6 -23q0 -15 10 -20t12 -5q8 0 25 7q10 -7 14 -7q6 -2 14 -2
q20 0 25 19q0 1 1 3t1 3q0 14 -25 31q-9 -3 -14 -23q-2 -8 -2 -26v-5q0 -19 6 -43q8 -32 8 -36q0 -27 25 -27zM82 725q70 0 70 29q0 14 -11.5 22.5t-21.5 5.5q-14 -4 -96 -4q-23 0 -23 -26q0 -7 2 -11h-18q-16 0 -24.5 -8t-8.5 -20t9.5 -19.5t19.5 -7.5q9 0 12.5 1t19.5 1
q36 0 51 21q7 9 9 16v4q0 7 -9 16t-18 9q-12 0 -25 -13h-18q5 -16 27 -16h53zM1204 393q10 0 19.5 8t9.5 19v29q0 21 -14 28q16 0 22 19q10 -4 25 -4q30 0 30 20q0 14 -8.5 22t-21.5 5q-4 31 -33 41q-4 2 -10 2q-13 0 -21 -19q0 -1 -1 -4t-1 -4q0 -12 14 -20l9 -5
q0 -23 18 -34l2 4q0 1 1 3.5t1 4.5q0 18 -22 24l-90 21h-7q-19 0 -26 -21v-6q0 -18 22 -24l88 -23h2q5 -2 7 -2l-7 2h-4q-9 0 -30 -12l-13 18q-11 7 -18 7q-13 0 -19 -9q-8 -8 -8 -20q0 -11 6 -17q2 -2 7.5 -6.5t7.5 -7.5q25 -39 63 -39zM1024 297q27 0 27 22q0 26 -25 29
l-90 10h-4q-20 0 -23 -24v-6q0 -22 25 -25zM94 526h4q-16 -6 -16 -26q0 -12 8 -17q-12 -7 -12 -26q0 -21 26 -21q22 0 35 19q9 14 6 24q113 16 152 33q6 2 12.5 13t1.5 22q-3 8 -12.5 13t-19.5 1q-34 -16 -142 -26l-35 -7l-4 -2l4 2q10 5 15 13q2 4 5.5 8t5.5 6.5t4 6.5t3 7
v4q0 13 -9 24t-22 11q-12 0 -26 -2q-10 10 -21 10q-22 0 -22 -26q0 -5 4 -17q8 -13 33 -26q3 -21 22 -21zM1227 799q8 0 14 4q10 8 39 8q18 0 26.5 0.5t16.5 4.5t10 13q13 0 21 13q4 4 4 14q0 13 -8 21l-35 22q-2 0 -5.5 1t-6.5 1q-34 0 -50 -24q-6 -6 -6 -15v-4
q3 -8 13 -16q6 -6 14 -6q10 0 24 14l17 -12q12 -9 18 -9v7q0 24 -51 24q-23 0 -35 -2q-47 -6 -47 -31q0 -7 6 -16q7 -12 21 -12zM131 387q-11 -4 -15.5 -16t-0.5 -19q5 -16 20 -16q11 0 19 4l49 18q-21 -28 -21 -43q0 -30 29 -30q30 0 25 30l10 15q1 2 5 8l7 10q2 2 2 8
q0 17 -14 23q-8 4 -15 4h-6q-7 -2 -14 -12l-6 -9l-2 -4l4 2q15 6 18 23q0 8 -2 12q-4 9 -13.5 14.5t-23.5 0.5zM188 1075q9 0 19 10q4 4 4 17q0 12 -6 18q-19 19 -55 19q-37 0 -37 -27q0 -25 26 -25h31q10 -12 18 -12zM1294 305q21 5 21 27q0 14 -10 21.5t-23 4.5l-39 -10
q-22 -7 -22 -26q0 -30 34 -25zM987 199q22 0 27 16l10 33q2 4 2 14q0 14 -11 21.5t-22 7.5h-26q-11 0 -20 -7.5t-9 -17.5q0 -16 25 -30v-9q0 -28 24 -28zM1022 1339q21 0 34 17.5t15 34.5l2 8q2 4 2 10q0 21 -16 27q-4 2 -12 2q-14 0 -21 -17l-6 -14q-1 -1 -2 -6.5t-3 -9.5
t-5 -5q-15 -8 -15 -22q0 -10 7 -17.5t20 -7.5zM1137 1227q2 4 2 10q0 16 -17 23l-30 14q-4 2 -13 2q-18 0 -24 -16q-4 -12 -4 -15q0 -14 16 -20l35 -15q4 -2 10 -2q17 0 25 19zM410 186q13 0 21 9t1 26l-14 33q-5 10 -12 12q-2 5 -9 8q6 6 6 17v117q0 20 -2 30q0 1 -1 9
t-1 14q0 26 11 53q2 2 2 8q0 15 -15 25q-8 4 -12 4q-13 0 -23 -16q-10 -19 -10 -97v-147q0 -13 8 -21q-4 -2 -6 -4q-8 -2 -17.5 -3t-14 -1.5t-8.5 -5.5t-5 -16v-4q0 -11 5 -16t10.5 -6t17.5 -1q15 0 35 8l8 4q23 17 23 29q0 8 -2 12q-4 2 -9 2q-17 0 -24.5 -10.5t-1.5 -24.5
l14 -32q6 -15 25 -15zM483 1280q12 0 23 8q6 4 14 0q12 -4 17 -4q14 0 22 14q2 4 2 11q0 20 -26 30q-7 3 -14 7t-12 6t-13 2q-43 0 -43 -47q0 -27 30 -27z" />
    <glyph glyph-name="NUL" horiz-adv-x="0" 
 />
    <glyph glyph-name="four.swsh" 
d="M584 518q78 0 134 57t56 136q0 78 -56 134t-134 56q-79 0 -136 -56t-57 -134q0 -79 56.5 -136t136.5 -57zM1217 0h-857v80h394v246q0 59 -30.5 89.5t-86.5 30.5h-547v64l682 903q41 53 92 53q39 0 60.5 -23t21.5 -59v-852h268v-86h-147q-60 0 -91.5 -30t-29.5 -86v-250
h271v-80z" />
  </font>
</defs>
</svg>
