<?xml version="1.0" standalone="no"?>
<!DOCTYPE svg PUBLIC "-//W3C//DTD SVG 1.1//EN" "http://www.w3.org/Graphics/SVG/1.1/DTD/svg11.dtd" >
<svg xmlns="http://www.w3.org/2000/svg" xmlns:xlink="http://www.w3.org/1999/xlink" version="1.1">
<metadata>
Created by FontForge 20201107 at Sat Nov 15 22:39:01 2025
 By 
(c) 2024 by Prioritype Co.  All Rights Reserved.
</metadata>
<defs>
<font id="HeuvelGroteskDEMO-Regular" horiz-adv-x="327" >
  <font-face 
    font-family="Heuvel Grotesk DEMO"
    font-weight="400"
    font-stretch="normal"
    units-per-em="2048"
    panose-1="0 0 0 0 0 0 0 0 0 0"
    ascent="1638"
    descent="-410"
    x-height="1024"
    cap-height="1434"
    bbox="-303 -532 2296 1935"
    underline-thickness="102"
    underline-position="-255"
    unicode-range="U+000D-FB02"
  />
<missing-glyph horiz-adv-x="512" 
 />
    <glyph glyph-name="fi" unicode="fi" horiz-adv-x="1216" 
d="M72 1024h221v23q-19 0 -41 37q-23 38 -23 110q0 65 22 129q21 61 70 110q48 48 128 75q82 28 196 28h164v-139h-143q-133 0 -214 -55q-79 -54 -79 -183q0 -38 11 -72q11 -35 42 -63h545l2 -4v4h155v-1024h-155v887h-563v-887h-158v887h-180v137zM971 1434h159v-158h-159
v158z" />
    <glyph glyph-name="fl" unicode="fl" horiz-adv-x="1206" 
d="M72 1024h221v23q-19 0 -41 37q-23 38 -23 110q0 65 22 129q21 61 70 110q48 48 128 75q82 28 196 28h477v-1536h-157v1397h-299q-133 0 -214 -55q-79 -54 -79 -183q0 -38 11 -72q11 -35 42 -63h369v-137h-385v-887h-158v887h-180v137z" />
    <glyph glyph-name=".notdef" horiz-adv-x="512" 
 />
    <glyph glyph-name=".null" horiz-adv-x="0" 
 />
    <glyph glyph-name=".null" horiz-adv-x="0" 
 />
    <glyph glyph-name="uni000D" unicode="&#xd;" horiz-adv-x="512" 
 />
    <glyph glyph-name="space" unicode=" " horiz-adv-x="593" 
 />
    <glyph glyph-name="exclam" unicode="!" horiz-adv-x="331" 
d="M86 1434h160v-1102h-160v1102zM86 180h160v-180h-160v180z" />
    <glyph glyph-name="quotedbl" unicode="&#x22;" horiz-adv-x="595" 
d="M225 1536v-80q0 -22 -3 -72t-6 -102q-4 -67 -7 -102q-5 -50 -6 -72h-94q0 4 -2.5 28.5t-3.5 43.5q-4 69 -7 102t-7 102q-3 50 -3 72v80h139zM510 1536v-80q0 -22 -3 -72t-6 -102q-4 -67 -7 -102q-1 -15 -3.5 -39.5t-3.5 -32.5h-92q-1 22 -6 72q-2 18 -4.5 52t-3.5 50
q-3 33 -7 102q-3 50 -3 72v80h139z" />
    <glyph glyph-name="numbersign" unicode="#" horiz-adv-x="1525" 
d="M248 375h-180v137h217l112 410h-192v137h229l103 375h145l-102 -375h555l104 375h143l-102 -375h178v-137h-215l-113 -410h191v-137h-229l-103 -375h-143l102 375h-557l-102 -375h-144zM985 512l113 410h-557l-113 -410h557z" />
    <glyph glyph-name="dollar" unicode="$" horiz-adv-x="1325" 
d="M600 1659h119v-207q64 -1 155 -20q87 -18 166 -68t131 -139q54 -93 54 -236v-39h-158v43q0 83 -29 143q-29 59 -76 96q-48 38 -111 57t-132 24v-522q94 -15 190 -36q91 -20 169 -64q75 -42 121 -110t46 -180q0 -75 -28 -146q-29 -72 -92 -131t-162 -97q-101 -39 -244 -45
v-207h-119v207q-76 5 -161 23q-89 19 -171 70q-78 49 -135 139q-55 88 -55 230v39h155v-43q0 -81 32 -140q30 -56 83 -95q51 -37 117 -57q64 -19 135 -25v547q-116 18 -184 32q-88 18 -161 58q-71 39 -114 103t-43 171q0 74 27 145q28 72 86 129q59 57 155 97t234 47v207z
M600 1311q-104 -7 -171 -38q-67 -30 -105 -70q-39 -41 -54 -85q-14 -42 -14 -84q0 -62 28 -102q28 -41 73 -64q49 -25 110 -37q46 -9 133 -22v502zM719 121q113 6 183 36q74 31 112 71q41 43 56 88q15 47 15 85q0 66 -28 109t-79 71q-52 28 -117 43q-67 15 -142 27v-530z
" />
    <glyph glyph-name="percent" unicode="%" horiz-adv-x="1597" 
d="M377 705q-66 0 -118 26q-54 27 -94 76t-63 119q-22 67 -22 153q0 87 22 154q23 70 63 119q39 47 94 75q54 27 118 27q63 0 119 -27t95 -75q39 -47 62 -119q23 -71 23 -154q0 -82 -23 -153q-23 -72 -62 -119q-40 -49 -95 -76q-53 -26 -119 -26zM301 0l836 1434h159
l-835 -1434h-160zM377 1333q-71 0 -118 -65q-48 -66 -48 -189t48 -189q49 -67 118 -67q72 0 119 67t47 189t-47 189q-46 65 -119 65zM1221 -20q-66 0 -118 26q-54 27 -94 76t-63 119q-22 67 -22 153q0 87 22 154q23 70 63 119q39 47 94 75q54 27 118 27q65 0 119 -27
q57 -28 95 -75q39 -47 62 -119q23 -71 23 -154q0 -82 -23 -153q-23 -72 -62 -119q-39 -48 -95 -76q-52 -26 -119 -26zM1221 610q-70 0 -118 -66t-48 -190q0 -122 48 -188t118 -66q71 0 118 66q47 67 47 188q0 123 -47 190q-47 66 -118 66z" />
    <glyph glyph-name="ampersand" unicode="&#x26;" horiz-adv-x="1468" 
d="M221 1094q0 162 111 261t330 99q70 0 142 -13q76 -14 137 -53q62 -40 103 -113t41 -190v-32h-157v34q0 113 -68 170q-69 58 -192 58q-134 0 -211 -60q-76 -60 -76 -168q0 -95 65 -166q71 -77 167 -138q109 -69 223 -128q118 -61 231 -139q25 109 25 238v84h151v-78
q0 -89 -16 -173q-17 -91 -43 -161q93 -84 150 -185q59 -104 59 -241h-158q0 95 -34 162q-35 68 -81 114q-28 -65 -71 -117t-109 -94q-63 -41 -144 -63q-79 -22 -180 -22q-124 0 -220 29q-100 30 -170 87t-108 140q-38 84 -38 188q0 83 25 148q26 69 69 114q46 49 101 73
q57 25 124 25v23q-13 0 -41 15q-30 16 -59 49q-30 35 -54 88q-24 54 -24 135zM459 711q-32 -1 -74 -16q-37 -13 -73 -44q-32 -28 -56 -82q-23 -52 -23 -129q0 -80 31 -142q29 -58 84 -99q53 -39 126 -59q70 -19 155 -19q83 0 143 20q64 22 111 56q49 37 78 81q33 51 49 97
q-47 40 -126 88q-58 35 -149 85q-93 51 -148 82q-74 42 -128 81z" />
    <glyph glyph-name="quotesingle" unicode="'" horiz-adv-x="311" 
d="M225 1536v-80q0 -22 -3 -72t-6 -102q-4 -67 -7 -102q-5 -50 -6 -72h-94q0 4 -2.5 28.5t-3.5 43.5q-4 69 -7 102t-7 102q-3 50 -3 72v80h139z" />
    <glyph glyph-name="parenleft" unicode="(" horiz-adv-x="618" 
d="M86 612q0 238 44 414q43 171 112 288q68 114 147 168q80 54 150 54v-137q-55 0 -107 -49q-54 -51 -95 -148q-42 -99 -69 -246q-26 -142 -26 -344t26 -345q27 -148 69 -247q41 -96 95 -147q52 -49 107 -49v-137q-71 0 -150 54t-147 168q-69 117 -112 289q-44 178 -44 414z
" />
    <glyph glyph-name="parenright" unicode=")" horiz-adv-x="618" 
d="M532 612q0 -236 -44 -414q-43 -175 -111 -289q-67 -114 -147 -168t-148 -54v137q53 0 105 49q54 51 95 147q40 95 68 247q27 149 27 345q0 197 -27 344q-28 151 -68 246q-41 97 -95 148q-52 49 -105 49v137q68 0 148 -54t147 -168t111 -288q44 -176 44 -414z" />
    <glyph glyph-name="asterisk" unicode="*" horiz-adv-x="980" 
d="M565 1536v-72q0 -29 -1 -49q-2 -30 -3 -66q0 -12 -1.5 -36t-2.5 -37q-1 -14 -2.5 -37.5t-1.5 -30.5q25 11 64 30q2 1 71 34q12 6 34.5 16t32.5 15q23 11 50 20l65 29l48 -135l-66 -27q-37 -16 -53 -21q-12 -4 -36.5 -12t-37.5 -13l-78 -27q-41 -14 -67 -21q24 -22 52 -49
q9 -8 18.5 -18t21.5 -22l18 -18l54 -54q20 -20 40 -42l50 -51l-109 -92l-49 53q-5 6 -18 21t-20 22q-8 9 -50 58q-3 4 -52 64q-26 32 -42 54q-16 -22 -42 -54q-32 -39 -53 -64q-42 -49 -50 -58q-7 -7 -19.5 -22t-18.5 -21l-49 -53l-108 92l49 51q21 23 40 41q17 16 54 53
q38 38 58 57q32 30 53 50l-69 23l-80 27l-75 25q-13 5 -31.5 12t-23.5 9l-66 27l48 135l67 -29q27 -9 50 -20q9 -4 32.5 -15t36.5 -17l74 -35q40 -19 63 -32q0 7 -1.5 31t-2.5 38q-1 13 -2.5 37.5t-1.5 36.5q-1 32 -3 67q-1 21 -1 50v72h143z" />
    <glyph glyph-name="plus" unicode="+" horiz-adv-x="1460" 
d="M662 588h-576v137h576v588h139v-588h575v-137h-575v-588h-139v588z" />
    <glyph glyph-name="comma" unicode="," horiz-adv-x="409" 
d="M340 186l-168 -428h-102l108 428h162z" />
    <glyph glyph-name="hyphen" unicode="-" horiz-adv-x="952" 
d="M866 725v-137h-780v137h780z" />
    <glyph glyph-name="period" unicode="." horiz-adv-x="376" 
d="M86 84q0 45 28 73q27 27 74 27q48 0 75 -27q28 -28 28 -73q0 -46 -28 -76q-27 -28 -75 -28q-47 0 -74 28q-28 30 -28 76z" />
    <glyph glyph-name="slash" unicode="/" horiz-adv-x="841" 
d="M629 1454h147l-565 -1673h-148z" />
    <glyph glyph-name="zero" unicode="0" horiz-adv-x="1556" 
d="M782 -20q-211 0 -362 77q-154 79 -238 242t-84 420q0 263 84 429q84 167 238 247t362 80q209 0 361 -80q149 -78 233 -247q82 -165 82 -429q0 -257 -82 -420q-83 -165 -233 -242t-361 -77zM782 172q210 0 324 125q115 126 115 422q0 200 -54 328q-52 124 -151 181
q-97 56 -234 56q-134 0 -235 -57q-101 -58 -155 -181q-54 -124 -54 -327q0 -292 119 -420q118 -127 325 -127z" />
    <glyph glyph-name="one" unicode="1" horiz-adv-x="866" 
d="M541 1454h141v-1454h-238v1264l-350 -72l-61 143z" />
    <glyph glyph-name="two" unicode="2" horiz-adv-x="1253" 
d="M340 172h817v-172h-1100v172h2q104 77 232 170q90 65 229 172q106 82 199 173q87 86 139 174q51 87 51 175q0 131 -96 197q-95 65 -242 65q-82 0 -148 -20q-70 -21 -122 -48q-54 -28 -83 -48l-30 -21l-79 150l32 24q37 27 99 58q67 33 160 57q98 25 221 25q156 0 277 -47
q120 -47 186 -139q67 -94 67 -236q0 -126 -71 -241q-72 -116 -188 -219q-125 -111 -261 -210q-37 -27 -291 -211z" />
    <glyph glyph-name="three" unicode="3" horiz-adv-x="1306" 
d="M737 897q137 0 252 -44q114 -43 183 -135t69 -233q0 -167 -93 -280q-92 -112 -254 -169q-158 -56 -362 -56q-169 0 -286 34q-114 33 -191 70l82 168q63 -31 152 -65q88 -33 217 -33q133 0 245 31q113 31 183 107t70 202q0 104 -72 170t-189 87t-247 -12v2l-103 -39
l-49 74l424 508h-670v170h1035l-478 -569q45 12 82 12z" />
    <glyph glyph-name="four" unicode="4" horiz-adv-x="1282" 
d="M1227 496v-162h-170v-334h-215v334h-787v211l742 909h260v-958h170zM262 496h580v739z" />
    <glyph glyph-name="five" unicode="5" horiz-adv-x="1284" 
d="M719 928q87 0 176 -24q86 -23 160 -74q71 -49 115 -132t44 -198q0 -144 -72 -262q-72 -119 -218 -191t-363 -72q-111 0 -205 20q-90 19 -157 45q-66 26 -102 45l-36 19l74 162l32 -17q26 -15 88 -41q51 -22 129 -41q68 -17 155 -17q222 0 335 95t113 253q0 130 -90 207
q-88 75 -258 75q-68 0 -131 -20q-71 -22 -115 -44q-51 -25 -67 -38l-160 37l59 739h830l20 -170h-667l-35 -453q59 34 147 65q91 32 199 32z" />
    <glyph glyph-name="six" unicode="6" horiz-adv-x="1398" 
d="M788 961q148 0 274 -56q125 -56 197 -159t72 -248q0 -150 -67 -268q-66 -116 -196 -186q-128 -69 -310 -69q-189 0 -339 87q-152 88 -238 250q-87 164 -87 395q0 242 93 415q92 171 254 262t364 91q106 0 184 -20q77 -19 117 -39l41 -19l-88 -146q0 2 -29 17
q-24 13 -83 29q-58 16 -126 16q-89 0 -176 -34q-91 -35 -162 -105q-72 -71 -118 -187q-46 -117 -46 -276v-6q67 115 187 185q122 71 282 71zM758 152q113 0 192 47q77 46 118 125q40 77 40 174q0 86 -34 145t-89 95q-56 37 -119 53q-61 16 -121 16q-108 0 -189 -40
q-84 -41 -137 -109q-54 -69 -75 -152q45 -180 162 -267t252 -87z" />
    <glyph glyph-name="seven" unicode="7" horiz-adv-x="1239" 
d="M1208 1454l-848 -1454h-239l758 1284h-826v170h1155z" />
    <glyph glyph-name="eight" unicode="8" horiz-adv-x="1388" 
d="M961 774q151 -34 250 -124q98 -89 98 -247q0 -145 -82 -239q-83 -95 -221 -141q-144 -48 -312 -48t-310 48q-137 46 -220 141q-82 94 -82 239q0 159 93 247q94 90 251 124q-262 76 -262 311q0 181 140 285q141 105 390 105q252 0 391 -105q140 -105 140 -285
q0 -239 -264 -311zM694 1309q-71 0 -143 -22q-69 -21 -115 -75q-45 -52 -45 -147q0 -109 87 -169t216 -60q138 0 221 56q84 57 84 173q0 94 -44 147q-45 54 -114 75q-74 22 -147 22zM694 137q187 0 282 65t95 206q0 104 -54 164t-140 87q-85 27 -183 27q-94 0 -180 -27
t-140 -87q-55 -61 -55 -164q0 -132 96 -202q95 -69 279 -69z" />
    <glyph glyph-name="nine" unicode="9" horiz-adv-x="1402" 
d="M647 1475q202 0 348 -85q149 -87 229 -253q81 -168 81 -416q0 -228 -80 -397q-79 -167 -235 -258t-374 -91q-128 0 -247 22q-115 21 -164 36l57 164q36 -10 76 -20q47 -11 125 -25q75 -13 133 -13q163 0 267 71q103 70 153 196q48 122 53 286q-32 -56 -90 -106
q-56 -49 -148 -81q-91 -32 -223 -32q-245 0 -388 130q-144 131 -144 364q0 160 70 273q70 114 200 174q131 61 301 61zM647 641q112 0 188 29q75 28 118 73q45 46 67 94q24 52 31 85q-34 180 -136 282q-101 101 -268 101q-152 0 -249 -79t-97 -259q0 -158 84 -242t262 -84z
" />
    <glyph glyph-name="colon" unicode=":" horiz-adv-x="376" 
d="M86 944q0 45 28 73q27 27 74 27q48 0 75 -27q28 -28 28 -73q0 -46 -28 -76q-27 -28 -75 -28q-47 0 -74 28q-28 30 -28 76zM86 84q0 45 28 73q27 27 74 27q48 0 75 -27q28 -28 28 -73q0 -46 -28 -76q-27 -28 -75 -28q-47 0 -74 28q-28 30 -28 76z" />
    <glyph glyph-name="semicolon" unicode=";" horiz-adv-x="440" 
d="M150 944q0 46 28 73q29 27 76 27q46 0 73 -27t27 -73q0 -48 -27 -76t-73 -28q-48 0 -76 28t-28 76zM340 186l-168 -428h-100l108 428h160z" />
    <glyph glyph-name="less" unicode="&#x3c;" horiz-adv-x="1103" 
d="M188 520q2 0 36 -2q22 -1 46 -10l750 -262v-150l-934 355v163l934 355v-152l-750 -262q-23 -7 -46 -8q-14 -1 -36 -4v-23z" />
    <glyph glyph-name="equal" unicode="=" horiz-adv-x="1153" 
d="M1067 860v-137h-981v137h981zM1067 492v-138h-981v138h981z" />
    <glyph glyph-name="greater" unicode="&#x3e;" horiz-adv-x="1103" 
d="M915 543q-15 3 -33 4q-23 1 -46 8l-750 262v152l934 -355v-163l-934 -355v150l750 262q24 9 46 10q7 0 14.5 0.5t12 1t6.5 0.5v23z" />
    <glyph glyph-name="question" unicode="?" horiz-adv-x="1193" 
d="M1110 1024q0 -110 -36 -184q-37 -75 -91 -128q-59 -58 -118 -94q-67 -41 -117 -78q-58 -42 -92 -89q-35 -48 -35 -119h-158q0 85 36 145q37 62 91 107q57 48 118 87q59 38 117 88q55 48 91 109t36 152q0 133 -87 214t-263 81q-72 0 -140 -17q-67 -17 -116 -54
q-50 -38 -78 -100t-28 -153v-39h-158v37q0 109 28 188q27 77 72 129q44 52 102 82q54 29 113 44q48 13 112 18q48 4 93 4q233 0 371 -112q137 -111 137 -318zM463 0v180h158v-180h-158z" />
    <glyph glyph-name="at" unicode="@" horiz-adv-x="1925" 
d="M1319 -201q-86 -35 -174 -53q-90 -18 -201 -18q-186 0 -344 60q-157 60 -271 171t-178 268q-65 159 -65 353q0 200 63 361t181 276t280 176t365 61q192 0 350 -58q160 -59 274 -167q117 -111 179 -266q63 -158 63 -359q0 -104 -18 -202q-18 -96 -62 -172
q-43 -74 -110 -120q-68 -47 -166 -47q-51 0 -101 13q-46 12 -83 41q-36 28 -58 73q-23 46 -29 113q-112 -205 -354 -205q-105 0 -190 38t-142 104q-59 69 -88 156q-30 92 -30 198q0 110 29 197q30 90 87 156t141 104q79 36 187 36q58 0 109 -11q57 -12 104 -41
q48 -29 89 -82q41 -54 65 -132l24 8q-5 13 -26 79q-15 46 -15 108v53h146v-680q0 -60 11 -96q13 -41 31 -62q19 -22 45 -31q28 -10 52 -10q93 0 151 100q58 101 58 312q0 175 -52 309q-53 137 -147 228q-97 94 -227 139q-135 47 -297 47t-297 -49q-139 -50 -237 -144
q-97 -92 -155 -235q-57 -139 -57 -317q0 -175 57 -310q58 -138 153 -227q99 -93 228 -139q132 -47 277 -47q182 0 330 65zM1204 678q0 137 -90 206q-89 68 -229 68q-154 0 -242 -98t-88 -262q0 -81 24 -147q25 -69 66 -114q44 -49 105 -74q63 -26 137 -26q138 0 228 70
q89 69 89 209v168z" />
    <glyph glyph-name="A" unicode="A" horiz-adv-x="1433" 
d="M625 1434h184l582 -1434h-170l-164 406h-682l-164 -406h-168zM705 1274q0 -6 -5 -28q-9 -39 -10 -43q-4 -16 -12 -46q-6 -21 -12 -37l-234 -575h567l-229 567q-5 13 -13 38q-10 32 -14 49q-2 7 -10 46q-4 19 -4 29h-24z" />
    <glyph glyph-name="B" unicode="B" horiz-adv-x="1255" 
d="M86 1434h528q114 0 195 -26q80 -26 130 -71q52 -47 73 -107q22 -62 22 -138q0 -91 -30 -148q-30 -56 -78 -89q-47 -32 -102 -44q-54 -12 -103 -12v-23q79 0 156 -13q79 -13 145 -54q64 -40 107 -117q42 -76 42 -201q0 -92 -26 -161q-28 -74 -84 -124t-147 -78
q-92 -28 -214 -28h-614v1434zM604 852q147 0 209 62q64 64 64 157q0 123 -70 173t-203 50h-360v-442h360zM244 713v-574h422q188 1 268 69q78 66 78 204q0 86 -31 146q-29 56 -83 92q-49 32 -123 48q-71 15 -150 15h-381z" />
    <glyph glyph-name="C" unicode="C" horiz-adv-x="1441" 
d="M84 717q0 164 41 302q40 134 124 232t209 150q127 53 294 53q253 0 400 -117t204 -319l-156 -29q-47 154 -152 240q-106 86 -296 86q-132 0 -228 -42q-95 -42 -158 -121q-64 -80 -93 -189q-29 -107 -29 -246t29 -246q30 -109 93 -188q64 -79 158 -120q96 -42 228 -42
q192 0 296 85q106 86 152 238l156 -28q-57 -203 -204 -320q-146 -116 -400 -116q-167 0 -294 53q-126 53 -209 149q-84 98 -124 233q-41 138 -41 302z" />
    <glyph glyph-name="D" unicode="D" horiz-adv-x="1300" 
d="M86 1434h471q164 0 289 -52q123 -51 205 -145q80 -91 121 -226q40 -130 40 -294t-40 -294q-41 -135 -121 -226q-83 -96 -205 -146q-123 -51 -289 -51h-471v1434zM547 141q238 0 373 143q135 142 135 433q0 290 -135 434q-134 143 -373 143h-303v-1155z" />
    <glyph glyph-name="E" unicode="E" horiz-adv-x="1089" 
d="M86 1434h926v-140h-768v-454h680v-140h-680v-559h768v-141h-926v1434z" />
    <glyph glyph-name="F" unicode="F" horiz-adv-x="1085" 
d="M86 1434h926v-140h-768v-454h680v-140h-680v-700h-158v1434z" />
    <glyph glyph-name="G" unicode="G" horiz-adv-x="1454" 
d="M84 717q0 164 41 302q40 134 124 232t209 150q127 53 294 53q253 0 400 -117t204 -317l-156 -31q-46 155 -151 240q-107 86 -297 86q-132 0 -228 -42q-95 -42 -158 -121q-64 -80 -93 -189q-29 -107 -29 -246q0 -135 30 -246q29 -106 93 -189q61 -79 156 -121t225 -42
q119 0 208 49t150 119q60 69 90 144q31 77 31 124v23h-525v141h668v-719h-160v168q0 17 5 50q1 10 14 60q6 23 17 55l16 40l-23 8q-24 -66 -58 -131q-37 -70 -95 -130q-60 -61 -142 -101q-81 -39 -205 -39q-162 0 -286 53q-122 52 -205 149q-82 96 -123 233q-41 138 -41 302
z" />
    <glyph glyph-name="H" unicode="H" horiz-adv-x="1294" 
d="M84 1434h158v-627h811v627h157v-1434h-157v668h-811v-668h-158v1434z" />
    <glyph glyph-name="I" unicode="I" 
d="M84 1434h158v-1434h-158v1434z" />
    <glyph glyph-name="J" unicode="J" horiz-adv-x="1138" 
d="M244 457q0 -174 88 -256t237 -82q153 0 239 82q87 83 87 256v977h158v-977q0 -144 -43 -234q-44 -93 -112 -146q-71 -55 -156 -76q-87 -21 -173 -21t-173 21q-84 20 -155 76q-68 53 -112 146q-43 90 -43 234h158z" />
    <glyph glyph-name="K" unicode="K" horiz-adv-x="1337" 
d="M242 590v-590h-156v1434h156v-744l635 744h190l-557 -633q-36 -49 -69 -66q-35 -18 -62 -18v-23h184q116 0 193 -19q80 -19 135 -54q53 -33 92 -86q36 -49 64 -117q2 -4 19 -43.5t26 -62.5q18 -43 53 -111q31 -60 61 -108q34 -54 70 -93h-186q-74 92 -116 193
q-44 104 -91 202q-26 53 -60 92q-32 37 -78 61q-45 24 -108 33t-152 9h-243z" />
    <glyph glyph-name="L" unicode="L" horiz-adv-x="1085" 
d="M86 1434h158v-1293h755v-141h-913v1434z" />
    <glyph glyph-name="M" unicode="M" horiz-adv-x="1505" 
d="M764 182q0 7 6 37q9 45 15 73q4 16 11 48t9 40q15 66 20 85l349 969h245v-1434h-157v1018q0 98 13 167q14 74 19 87l-20 8l-432 -1280h-178l-433 1280l-22 -8q7 -15 21 -87q14 -75 14 -167v-1018h-158v1434h246l348 -969q5 -19 20 -85q2 -8 9 -40t11 -48q6 -28 15 -73
q6 -30 6 -37h23z" />
    <glyph glyph-name="N" unicode="N" horiz-adv-x="1284" 
d="M219 1276l-20 -10q4 -5 12 -31q8 -25 15 -58q10 -45 13 -74q5 -45 5 -77v-1026h-158v1434h211l766 -1276l22 10q-4 5 -12 31q-8 25 -15 58q-8 36 -12 74q-6 54 -6 77v1026h158v-1434h-211z" />
    <glyph glyph-name="O" unicode="O" horiz-adv-x="1509" 
d="M756 -20q-169 0 -296 53q-125 52 -210 149t-125 233q-41 138 -41 302t41 302q40 135 125 232q86 98 210 150q127 53 296 53t295 -53q123 -52 209 -150q83 -95 124 -232q41 -138 41 -302t-41 -302t-124 -233q-84 -96 -209 -149q-126 -53 -295 -53zM756 1315
q-132 0 -229 -42q-96 -41 -159 -121q-65 -82 -94 -189q-30 -111 -30 -246t30 -246q29 -108 94 -188q64 -79 159 -120q97 -42 229 -42q131 0 227 42q98 43 160 120q65 80 94 188q31 115 31 246t-31 246q-29 107 -94 189q-62 78 -160 121q-96 42 -227 42z" />
    <glyph glyph-name="P" unicode="P" horiz-adv-x="1253" 
d="M86 1434h573q258 0 382 -130t124 -362q0 -229 -124 -359t-382 -130h-415v-453h-158v1434zM653 592q355 0 355 352q0 174 -87 262t-268 88h-409v-702h409z" />
    <glyph glyph-name="Q" unicode="Q" horiz-adv-x="1523" 
d="M756 -20q-169 0 -296 53q-125 52 -210 149t-125 233q-41 138 -41 302t41 302q40 135 125 232q86 98 210 150q127 53 296 53t295 -53q123 -52 209 -150q83 -95 124 -232q41 -138 41 -302q0 -168 -40 -300q-42 -137 -123 -233l176 -360h-162l-127 262q-155 -106 -393 -106z
M756 1315q-132 0 -229 -42q-96 -41 -159 -121q-65 -82 -94 -189q-30 -111 -30 -246t30 -246q29 -108 94 -188q64 -79 159 -120q97 -42 229 -42q131 0 227 42q98 43 160 120q65 80 94 188q31 115 31 246t-31 246q-29 107 -94 189q-62 78 -160 121q-96 42 -227 42z" />
    <glyph glyph-name="R" unicode="R" horiz-adv-x="1271" 
d="M1030 0q-32 87 -40 164q-7 71 -7 172q0 87 -29 139q-30 53 -77 79q-53 29 -113 36q-67 8 -131 8h-389v-598h-158v1434h576q129 0 224 -29q91 -28 151 -82q59 -53 86 -128q28 -78 28 -167q0 -160 -93 -254t-251 -94v-25q40 0 97 -12t109 -46t89 -95t37 -160q0 -100 9 -179
t48 -163h-166zM651 737q173 0 258 73q84 72 84 212q0 137 -86 205q-85 67 -268 67h-395v-557h407z" />
    <glyph glyph-name="S" unicode="S" horiz-adv-x="1325" 
d="M98 1034q0 78 30 153q30 74 97 134q65 58 177 96q108 37 268 37q34 0 97 -5q47 -4 118 -21q57 -14 123 -46q59 -29 109 -82q48 -51 78 -128q30 -76 30 -183v-39h-158v43q0 93 -33 154q-32 60 -88 98q-54 36 -127 53q-74 17 -149 17q-126 0 -207 -29q-79 -28 -126 -71
q-47 -42 -63 -91q-16 -48 -16 -90q0 -70 33 -110q34 -42 88 -65q51 -22 128 -35q4 -1 152 -23q102 -17 207 -36q103 -19 189 -62q85 -43 137 -112q53 -71 53 -190q0 -74 -31 -153q-29 -74 -99 -135q-68 -59 -178 -97q-105 -36 -269 -36q-32 0 -99 5q-55 4 -125 20
q-60 14 -131 46q-61 28 -117 82q-51 50 -85 128q-33 77 -33 183v39h158v-43q0 -93 38 -153q40 -63 102 -100q64 -38 139 -53q77 -15 153 -15q130 0 211 28t128 72q45 42 63 92q17 47 17 90q0 75 -36 120q-37 46 -100 73q-64 27 -143 42q-103 19 -169 28q-126 19 -196 32
q-93 17 -174 57q-77 38 -124 104q-47 67 -47 177z" />
    <glyph glyph-name="T" unicode="T" horiz-adv-x="1419" 
d="M78 1434h1263v-140h-553v-1294h-157v1294h-553v140z" />
    <glyph glyph-name="U" unicode="U" horiz-adv-x="1284" 
d="M643 119q89 0 160 13q77 14 127 53q54 42 84 113q30 72 30 191v945h158v-951q0 -165 -48 -266q-48 -100 -127 -152q-80 -53 -179 -69q-97 -16 -205 -16t-205 16q-100 16 -180 69q-81 53 -128 152q-48 101 -48 266v951h158v-945q0 -119 30 -191q30 -71 84 -113
q51 -39 128 -53q72 -13 161 -13z" />
    <glyph glyph-name="V" unicode="V" horiz-adv-x="1433" 
d="M729 162q0 8 4 27l4 19q4 18 6 28q4 16 14 48q8 25 13 38l453 1112h168l-582 -1434h-184l-582 1434h168l455 -1121q6 -16 12 -37q8 -30 12 -46q1 -4 10 -43q5 -22 5 -25h24z" />
    <glyph glyph-name="W" unicode="W" horiz-adv-x="2019" 
d="M999 1249q0 -2 -2 -38q0 -8 -5 -65q-3 -40 -9 -82q-7 -50 -16 -85l-273 -979h-237l-408 1434h162l317 -1104q20 -73 25 -114q6 -48 6 -64h23q4 14 7 53q3 40 19 106l287 1123h229l289 -1123q17 -72 20 -106q1 -15 3 -34l2 -19h22q0 19 7 64q7 48 24 114l317 1104h162
l-407 -1434h-236l-272 979q-14 46 -19 85q-6 42 -9 82q-1 16 -4 65q-1 18 -1 38h-23z" />
    <glyph glyph-name="X" unicode="X" horiz-adv-x="1396" 
d="M698 868l439 566h200l-491 -637q-28 -35 -42 -49q-19 -19 -26 -19v-24q7 0 26 -19q18 -18 42 -51l491 -635h-200l-439 565l-438 -565h-201l494 635q21 31 41 51q19 19 27 19v24q-8 0 -27 19q-17 17 -41 49l-494 637h201z" />
    <glyph glyph-name="Y" unicode="Y" horiz-adv-x="1374" 
d="M238 1434l413 -572q27 -44 27 -90h22q0 51 27 90l414 572h188l-561 -775v-659h-158v659l-563 775h191z" />
    <glyph glyph-name="Z" unicode="Z" horiz-adv-x="1185" 
d="M78 1434h989v-140l-774 -1155h815v-139h-1006v139l777 1155h-801v140z" />
    <glyph glyph-name="bracketleft" unicode="[" horiz-adv-x="440" 
d="M84 1536h274v-129h-133v-1589h133v-129h-274v1847z" />
    <glyph glyph-name="backslash" unicode="\" horiz-adv-x="841" 
d="M629 -219l-566 1673h148l565 -1673h-147z" />
    <glyph glyph-name="bracketright" unicode="]" horiz-adv-x="440" 
d="M80 -311v129h133v1589h-133v129h274v-1847h-274z" />
    <glyph glyph-name="asciicircum" unicode="^" horiz-adv-x="946" 
d="M461 1427q0 -13 -3 -43t-24 -75l-237 -545h-152l356 772h142l360 -772h-153l-238 545q-21 45 -24 75t-3 43h-24z" />
    <glyph glyph-name="underscore" unicode="_" horiz-adv-x="1144" 
d="M1059 137v-137h-973v137h973z" />
    <glyph glyph-name="grave" unicode="`" horiz-adv-x="444" 
d="M66 1536h116l195 -305h-72z" />
    <glyph glyph-name="a" unicode="a" horiz-adv-x="1110" 
d="M90 328q0 86 33 152q34 68 91 112q58 44 136 67q80 23 166 23q220 0 348 -121v105q0 114 -81 176q-80 61 -218 61q-118 0 -207 -34q-88 -34 -161 -87l-68 123q98 65 208 103q105 36 241 36q77 0 154 -16q81 -17 144 -58q64 -41 105 -112q41 -70 41 -178v-680h-156v100
q0 68 20 122q27 74 32 87l-23 8q-55 -162 -163 -250q-110 -90 -265 -90q-89 0 -159 27t-119 74q-47 46 -73 111q-26 66 -26 139zM864 453q-45 58 -121 97q-74 38 -190 38q-132 0 -219 -64q-86 -63 -86 -188q0 -105 67 -171q69 -67 193 -67q75 0 139 26t111 73q49 49 75 111
q26 63 31 145z" />
    <glyph glyph-name="b" unicode="b" horiz-adv-x="1187" 
d="M86 0v1536h158v-567q0 -66 -14 -117q-16 -59 -27 -84l22 -10q27 86 70 142q44 57 95 88q54 32 111 44q58 12 115 12q122 0 209 -39q91 -41 152 -111q62 -71 93 -169q32 -101 32 -213t-32 -213q-31 -98 -93 -169q-61 -70 -152 -111q-87 -39 -209 -39q-56 0 -115 12
q-57 12 -111 44q-51 31 -95 88q-43 56 -70 142l-22 -8q7 -17 28 -85q15 -48 13 -116v-57h-158zM246 596v-168q0 -142 90 -227q91 -86 250 -86q81 0 145 26q66 27 114 78q49 52 74 125q25 72 25 168q0 188 -99 292q-99 103 -259 103t-250 -84t-90 -227z" />
    <glyph glyph-name="c" unicode="c" horiz-adv-x="1148" 
d="M84 512q0 112 32 213q31 97 95 169q62 69 159 111q91 39 220 39q197 0 316 -95q118 -94 157 -259l-150 -24q-27 111 -107 175t-216 64q-89 0 -154 -28q-64 -27 -108 -81q-43 -52 -64 -124q-20 -69 -20 -160t20 -160q21 -73 64 -123q44 -51 108 -79q67 -29 154 -29
q135 0 216 63q80 62 107 174l150 -24q-39 -165 -157 -259q-119 -95 -316 -95q-129 0 -220 39q-97 42 -159 111q-64 72 -95 169q-32 101 -32 213z" />
    <glyph glyph-name="d" unicode="d" horiz-adv-x="1187" 
d="M1100 0h-158v57q0 70 14 116q17 57 27 85l-22 8q-27 -85 -69 -142t-94 -88q-54 -32 -111 -44q-59 -12 -116 -12q-122 0 -209 39q-89 40 -151 111t-93 169q-32 101 -32 213t32 213q31 98 93 169t151 111q87 39 209 39q57 0 116 -12q57 -12 111 -44q52 -31 94 -88t69 -142
l22 10q-12 34 -27 84q-14 46 -14 117v567h158v-1536zM942 596q0 143 -91 227t-251 84q-81 0 -145 -26q-66 -27 -113 -77q-48 -51 -73 -124q-25 -72 -25 -168t25 -168q25 -73 73 -125q46 -51 113 -78q64 -26 145 -26q159 0 251 86q91 85 91 227v168z" />
    <glyph glyph-name="e" unicode="e" horiz-adv-x="1142" 
d="M84 512q0 111 31 213q30 98 93 169t157 111q91 39 221 39q98 0 180 -27q80 -26 142 -85q59 -56 93 -144q33 -86 33 -202v-82l-790 -2q0 -87 21 -156q21 -70 65 -120q46 -53 108 -78q66 -27 156 -27q136 0 216 62q81 63 114 167l133 -61q-47 -141 -166 -226
q-117 -83 -303 -83q-129 0 -220 39q-95 41 -158 111q-62 70 -94 169q-32 101 -32 213zM881 623q0 142 -79 214q-80 72 -214 72q-153 0 -233 -79q-81 -79 -103 -207h629z" />
    <glyph glyph-name="f" unicode="f" horiz-adv-x="884" 
d="M72 1024h221v23q-19 0 -41 37q-23 38 -23 110q0 65 22 129q21 61 70 110q48 48 128 75q82 28 196 28h164v-139h-143q-133 0 -214 -55q-79 -54 -79 -183q0 -38 11 -72q11 -35 42 -63h369v-137h-385v-887h-158v887h-180v137z" />
    <glyph glyph-name="g" unicode="g" horiz-adv-x="1187" 
d="M1100 -86q0 -134 -42 -219q-43 -87 -111 -136q-71 -51 -156 -71q-84 -20 -181 -20q-86 0 -166 20q-84 21 -152 70q-70 50 -113 129q-44 80 -44 198h158q0 -141 86 -210q84 -68 231 -68q164 0 247 69q83 70 85 238v141q2 67 15 116q13 47 26 85l-22 10q-26 -87 -69 -143
q-42 -56 -94 -87q-54 -32 -111 -44q-59 -12 -116 -12q-122 0 -209 39q-89 40 -151 111t-93 169q-32 101 -32 213t32 213q31 98 93 169t151 111q87 39 209 39q57 0 116 -12q57 -12 111 -44q52 -31 94 -88t69 -142l22 10q-12 34 -27 84q-14 46 -14 117v55h158v-1110zM942 426
v170q0 143 -91 228t-251 85q-81 0 -145 -26q-67 -27 -113 -78q-48 -52 -73 -125q-25 -72 -25 -168q0 -192 98 -294q99 -103 258 -103q160 0 251 85t91 226z" />
    <glyph glyph-name="h" unicode="h" horiz-adv-x="1079" 
d="M838 631q0 86 -24 137q-25 53 -57 78q-35 28 -72 35q-40 8 -67 8q-103 0 -176 -44q-70 -42 -115 -106q-45 -63 -65 -127q-20 -63 -20 -108v-504h-156v1536h156v-666q0 -73 -16 -111q-16 -37 -33 -65l16 -14q29 40 66 107q35 63 84 120q49 56 123 98q69 39 184 39
q52 0 104 -11q59 -12 107 -49q45 -34 82 -111q34 -71 34 -193v-680h-155v631z" />
    <glyph glyph-name="i" unicode="i" horiz-adv-x="331" 
d="M86 1434h160v-158h-160v158zM88 1024h156v-1024h-156v1024z" />
    <glyph glyph-name="j" unicode="j" 
d="M84 1434h160v-158h-160v158zM86 1024h158v-1004q0 -124 -27 -213q-26 -87 -72 -146q-45 -59 -102 -93q-54 -33 -118 -52q-62 -19 -120 -23q-67 -5 -108 -5v139q61 0 129 12t126 52t96 119t38 210v1004z" />
    <glyph glyph-name="k" unicode="k" horiz-adv-x="1083" 
d="M578 569q25 1 61 16q32 13 61 36q30 24 49 57q19 34 19 80q0 88 -47 124t-119 36q-100 0 -170 -59t-111 -140q-44 -86 -61 -171q-18 -88 -18 -151v-397h-156v1536h156v-645q0 -45 -3 -78q-3 -28 -8 -57q-5 -27 -9 -44q-1 -6 -11 -42l22 -4q28 81 66 151q39 72 87 120
q51 51 116 79t151 28q55 0 101 -14q50 -15 87 -45q36 -29 60 -81q23 -51 23 -124q0 -50 -15 -91q-16 -43 -37 -71q-24 -32 -51 -52q-31 -23 -59 -34l260 -532h-174z" />
    <glyph glyph-name="l" unicode="l" 
d="M84 1536h160v-1536h-160v1536z" />
    <glyph glyph-name="m" unicode="m" horiz-adv-x="1830" 
d="M944 694l17 -14q29 40 66 107q35 63 84 120q49 56 123 98q69 39 183 39q53 0 105 -11q57 -12 106 -49q47 -35 83 -111q34 -71 34 -193v-680h-156v631q0 88 -23 137q-24 52 -58 78q-36 28 -71 35q-40 8 -67 8q-103 0 -176 -44q-72 -43 -116 -106q-43 -61 -64 -127
t-21 -108v-504h-155v631q0 87 -23 139q-23 51 -54 78q-31 26 -69 34q-35 7 -67 7q-107 0 -180 -44q-71 -43 -117 -106q-45 -62 -66 -127q-20 -63 -20 -108v-504h-156v1024h156v-154q0 -73 -16 -111q-16 -37 -33 -65l16 -14q29 40 66 107q35 64 85 120q52 58 127 98
q74 39 193 39q41 0 92 -9q52 -9 95 -36q47 -29 75 -73q31 -48 31 -123q0 -40 -8 -66q-7 -22 -21 -43z" />
    <glyph glyph-name="n" unicode="n" horiz-adv-x="1079" 
d="M838 631q0 86 -24 137q-25 53 -57 78q-35 28 -72 35q-40 8 -67 8q-103 0 -176 -44q-70 -42 -115 -106q-45 -63 -65 -127q-20 -63 -20 -108v-504h-156v1024h156v-154q0 -73 -16 -111q-16 -37 -33 -65l16 -14q29 40 66 107q35 63 84 120q49 56 123 98q69 39 184 39
q52 0 104 -11q59 -12 107 -49q45 -34 82 -111q34 -71 34 -193v-680h-155v631z" />
    <glyph glyph-name="o" unicode="o" horiz-adv-x="1181" 
d="M84 512q0 112 32 213q31 97 95 169q62 69 159 111q91 39 222 39q130 0 221 -39q95 -41 158 -111q64 -72 95 -169q32 -101 32 -213t-32 -213q-31 -97 -95 -169q-63 -70 -158 -111q-91 -39 -221 -39q-131 0 -222 39q-97 42 -159 111q-64 72 -95 169q-32 101 -32 213z
M244 512q0 -91 20 -160q21 -73 64 -123q44 -51 108 -79q67 -29 156 -29t156 29q64 28 108 79q43 50 64 123q20 69 20 160t-20 160q-21 72 -64 124q-44 54 -108 81q-65 28 -156 28t-156 -28q-64 -27 -108 -81q-43 -52 -64 -124q-20 -69 -20 -160z" />
    <glyph glyph-name="p" unicode="p" horiz-adv-x="1187" 
d="M86 1024h158v-55q0 -67 -15 -117q-22 -72 -26 -84l22 -10q27 85 69 142t94 88q54 32 111 44q59 12 115 12q122 0 209 -39q91 -41 152 -111q62 -71 93 -169q32 -101 32 -213t-32 -213q-31 -98 -93 -169q-61 -70 -152 -111q-87 -39 -209 -39q-56 0 -115 12q-57 12 -111 44
q-52 31 -94 88t-69 142l-22 -8q2 -5 26 -85q15 -49 15 -118v-567h-158v1536zM244 428q0 -141 91 -226t251 -85q159 0 258 103q98 102 98 294q0 91 -26 166q-26 74 -72 125t-113 78q-64 26 -145 26q-160 0 -251 -85t-91 -226v-170z" />
    <glyph glyph-name="q" unicode="q" horiz-adv-x="1187" 
d="M1100 1024v-1536h-158v567q0 72 14 118q17 57 27 85l-22 8q-27 -85 -69 -142t-94 -88q-54 -32 -111 -44q-59 -12 -116 -12q-122 0 -209 39q-89 40 -151 111t-93 169q-32 101 -32 213t32 213q31 98 93 169t151 111q87 39 209 39q57 0 116 -12q57 -12 111 -44
q52 -31 94 -88t69 -142l22 10q-12 34 -27 84q-14 46 -14 117v55h158zM942 428v170q0 141 -91 226t-251 85q-81 0 -145 -26q-67 -27 -113 -78q-48 -52 -73 -125q-25 -72 -25 -166q0 -192 98 -294q99 -103 258 -103q160 0 251 85t91 226z" />
    <glyph glyph-name="r" unicode="r" horiz-adv-x="825" 
d="M750 872q-133 0 -230 -41t-158 -105t-91 -145q-29 -78 -29 -161v-420h-156v1024h156v-215q0 -61 -16 -96q-16 -34 -36 -62l19 -14q31 42 69 112q37 68 94 128t148 104q89 43 230 43v-152z" />
    <glyph glyph-name="s" unicode="s" horiz-adv-x="1091" 
d="M86 725q0 66 24 124q24 59 75 101q52 43 137 69q82 25 202 25q52 0 123 -7q77 -7 150 -39q74 -32 127 -98q53 -67 53 -185v-25h-158v29q0 62 -25 100t-67 60q-36 19 -92 27q-48 7 -105 7q-82 0 -137 -15q-54 -15 -88 -41q-32 -25 -47 -58q-14 -31 -14 -68q0 -49 26 -75
q29 -29 70 -43t100 -22q39 -5 119 -11q48 -4 156 -16q76 -9 144 -37q64 -27 106 -81q41 -53 41 -147q0 -145 -114 -232t-347 -87q-77 0 -155 13q-82 14 -148 52q-67 39 -113 109q-45 69 -45 182v24h160v-28q0 -66 23 -106q23 -41 65 -67q40 -25 97 -37q52 -11 122 -11
q152 0 225 50q72 50 72 136q0 52 -29 83q-29 30 -75 45q-47 15 -105 21q-80 8 -119 9q-82 7 -151 16q-76 10 -141 38q-60 26 -102 79q-40 50 -40 137z" />
    <glyph glyph-name="t" unicode="t" horiz-adv-x="880" 
d="M70 1024h182v283h156v-283h395v-139h-395v-340q0 -133 30 -210q30 -76 80 -117q47 -39 111 -51q56 -11 125 -11v-156q-94 0 -186 18q-90 18 -160 77t-113 166t-43 284v340h-182v139z" />
    <glyph glyph-name="u" unicode="u" horiz-adv-x="1079" 
d="M242 393q0 -88 23 -137q24 -52 58 -78q36 -28 71 -35q40 -8 67 -8q104 0 175 44q70 43 116 106q44 61 64 127q20 68 20 108v504h157v-1024h-157v154q0 76 16 111t35 65l-17 14q-29 -40 -66 -107q-34 -63 -84 -120q-49 -56 -123 -98q-69 -39 -183 -39q-53 0 -105 11
q-57 12 -106 49q-47 35 -83 111q-34 71 -34 193v680h156v-631z" />
    <glyph glyph-name="v" unicode="v" horiz-adv-x="1060" 
d="M430 0l-387 1024h170l266 -731q16 -41 27 -79q12 -41 12 -56l25 -2q0 19 13 58q15 47 28 79l266 731h168l-385 -1024h-203z" />
    <glyph glyph-name="w" unicode="w" horiz-adv-x="1548" 
d="M868 1024l191 -721q13 -52 14 -86q0 -10 0.5 -21.5t1 -17.5t0.5 -10h25q0 16 6 61q7 50 22 99l207 696h164l-309 -1024h-205l-184 676q-4 14 -7 47q-1 7 -2.5 18t-2.5 20.5t-1 17.5q-2 31 -3 49q-1 14 -1 28h-20q0 -14 -1 -28q-1 -18 -3 -49q-1 -18 -5 -56q-3 -33 -7 -47
l-183 -676h-207l-309 1024h164l207 -696q15 -49 22 -99q7 -53 7 -61h24q0 12 3 49q2 30 16 86l188 721h188z" />
    <glyph glyph-name="x" unicode="x" horiz-adv-x="1058" 
d="M608 500q14 0 38 -26q26 -27 48 -58l307 -416h-194l-277 379l-278 -379h-193l308 416q23 33 46 58q24 26 40 26l-2 24q-14 0 -38 26q-23 25 -46 58l-308 416h193l278 -379l277 379h194l-307 -416q-22 -31 -48 -58q-24 -26 -38 -26v-24z" />
    <glyph glyph-name="y" unicode="y" horiz-adv-x="1060" 
d="M631 0q-39 -106 -85 -194q-47 -90 -110 -163q-62 -71 -134 -113t-159 -42v154q67 0 122 41q56 42 95 97q45 63 69 118q27 62 42 102h-43l-385 1024h168l268 -731q4 -13 26 -79q13 -39 13 -56l25 -2q0 19 13 58q22 66 26 79l268 731h166z" />
    <glyph glyph-name="z" unicode="z" horiz-adv-x="933" 
d="M76 1024h749v-141l-546 -744h577v-139h-774v139l547 744h-553v141z" />
    <glyph glyph-name="braceleft" unicode="{" horiz-adv-x="563" 
d="M221 600q25 0 54 -13q30 -14 56 -41q24 -25 43 -72q17 -41 17 -105q0 -62 -10 -103q-11 -44 -24 -81q-10 -28 -23 -76q-10 -37 -10 -89q0 -54 16 -90q15 -35 41 -59q22 -21 52 -34q25 -11 50 -11v-137q-136 0 -221 80q-84 79 -84 215q0 65 11 106q15 55 25 86q9 27 25 85
q11 40 11 102q0 56 -13 92q-13 37 -37 59q-25 23 -54 32q-30 9 -62 9v117q66 0 116 41t50 149q0 63 -11 103q-14 52 -25 84q-10 31 -25 86q-11 41 -11 106q0 135 84 215q85 80 221 80v-137q-24 0 -50 -10q-29 -11 -52 -34q-25 -25 -41 -60t-16 -89q0 -53 10 -90
q14 -52 23 -77q13 -37 24 -81q10 -41 10 -102q0 -64 -17 -105q-19 -47 -43 -72q-26 -27 -56 -41q-29 -13 -54 -13v-25z" />
    <glyph glyph-name="bar" unicode="|" horiz-adv-x="309" 
d="M84 1536h141v-1831h-141v1831z" />
    <glyph glyph-name="braceright" unicode="}" horiz-adv-x="563" 
d="M342 600v25q-25 0 -54 13q-30 14 -56 41q-24 25 -43 72q-17 41 -17 105q0 61 10 102q10 44 24 81q9 25 23 77q11 41 11 90q0 52 -17 89q-16 35 -41 60q-23 23 -52 34q-26 10 -50 10v137q134 0 219 -80q84 -80 84 -215q0 -65 -11 -106q-15 -55 -25 -86q-5 -14 -24 -84
q-12 -43 -12 -103q0 -55 15 -91q16 -38 36 -58q23 -23 54 -32q30 -9 61 -9v-117q-31 0 -61 -9q-31 -9 -54 -32q-21 -21 -36 -59q-15 -37 -15 -93q0 -58 12 -101q21 -75 24 -85q10 -31 25 -86q11 -41 11 -106q0 -136 -84 -215q-85 -80 -219 -80v137q25 0 50 11q30 13 52 34
q26 24 41 59q17 39 17 90q0 48 -11 89q-13 48 -23 76q-14 37 -24 81q-10 41 -10 103q0 64 17 105q19 47 43 72q26 27 56 41q29 13 54 13z" />
    <glyph glyph-name="asciitilde" unicode="~" horiz-adv-x="897" 
d="M612 524q52 0 70 36t18 102h115v-66q0 -42 -10 -78q-11 -38 -34 -64q-25 -28 -61 -44q-39 -17 -92 -17q-60 0 -104 24t-79 52q-34 27 -70 52q-35 24 -78 24q-52 0 -70 -37q-18 -38 -18 -102h-115v65q0 82 45 142q46 61 152 61q61 0 104 -24q42 -23 79 -51q30 -22 71 -51
q35 -24 77 -24z" />
    <glyph glyph-name="exclamdown" unicode="&#xa1;" horiz-adv-x="331" 
d="M246 1024v-178h-160v178h160zM246 692v-1102h-160v1102h160z" />
    <glyph glyph-name="cent" unicode="&#xa2;" horiz-adv-x="1148" 
d="M518 1454h119v-207q178 -11 283 -104t143 -248l-150 -25q-24 100 -93 163q-68 62 -183 73v-778q116 11 183 72q69 63 93 163l150 -24q-38 -155 -143 -248q-106 -94 -283 -105v-206h-119v208q-104 12 -189 57q-82 44 -135 112q-55 71 -82 161q-28 95 -28 199q0 103 28 198
q27 90 82 161q55 70 135 113q82 44 189 56v209zM518 1104q-142 -23 -208 -126q-66 -104 -66 -261t66 -261q66 -103 208 -126v774z" />
    <glyph glyph-name="sterling" unicode="&#xa3;" horiz-adv-x="1228" 
d="M182 995q0 103 33 188t96 145q62 59 157 93q93 33 214 33q28 0 75 -3q50 -3 97 -17q50 -15 103 -42q52 -27 95 -76q40 -45 68 -121q27 -72 27 -177v-33h-158v39q0 87 -25 141q-24 53 -68 89q-42 35 -98 48q-55 13 -118 13q-84 0 -150 -25q-64 -24 -105 -67
q-42 -43 -63 -102q-20 -56 -20 -126q0 -84 11 -144q13 -73 28 -132h455v-115h-428q9 -40 16 -94q6 -46 6 -98q0 -79 -29 -155q-28 -74 -75 -118h809v-139h-998v139q13 10 72 60q26 22 46 52q17 26 25 65q7 35 7 96q0 47 -9 95q-5 28 -22 97h-176v115h143q-15 57 -28 130
q-13 75 -13 146z" />
    <glyph glyph-name="yen" unicode="&#xa5;" horiz-adv-x="1400" 
d="M250 1434l414 -572q26 -42 26 -90h23q0 52 26 90l414 572h188l-561 -775v-41h383v-114h-383v-121h383v-117h-383v-266h-157v266h-383v117h383v121h-383v114h383v41l-564 775h191z" />
    <glyph glyph-name="section" unicode="&#xa7;" horiz-adv-x="1095" 
d="M84 1135q0 62 25 123q24 59 76 102q50 42 137 68q86 26 202 26q52 0 123 -7q78 -8 150 -40q75 -34 127 -99q53 -67 53 -186v-22h-158v28q0 63 -25 101q-24 37 -67 59q-39 20 -92 28q-48 7 -105 7q-82 0 -137 -15t-88 -42q-32 -26 -47 -61q-14 -32 -14 -70q0 -52 26 -81
q27 -30 70 -46q44 -17 100 -24q39 -5 119 -11q77 -6 156 -21q83 -16 144 -47q66 -34 106 -90q41 -58 41 -151q0 -168 -152 -246q67 -34 113 -102q45 -66 45 -183q0 -174 -114 -266q-115 -92 -347 -92q-77 0 -155 13q-82 14 -148 52q-67 39 -113 109q-45 69 -45 182v25h158
v-29q0 -65 23 -105q24 -43 66 -68q41 -25 98 -37q52 -11 122 -11q154 0 225 56q72 57 72 173q0 75 -29 119q-28 43 -74 64q-48 22 -106 29q-60 8 -119 9q-75 6 -152 21q-82 16 -141 47q-62 33 -103 87q-40 53 -40 140q0 77 35 144q34 64 113 110q-65 29 -110 84
q-44 53 -44 146zM578 479q148 5 208 53q62 50 62 130q0 55 -29 90q-28 34 -75 55q-49 22 -105 29q-61 8 -119 12q-79 -1 -135 -19q-54 -17 -84 -41t-42 -56q-11 -29 -11 -64q0 -52 26 -85q27 -35 71 -56q42 -20 101 -31q57 -10 119 -15q6 -2 13 -2z" />
    <glyph glyph-name="dieresis" unicode="&#xa8;" horiz-adv-x="550" 
d="M86 1382q0 34 19 53t55 19q31 0 51 -19t20 -53q0 -33 -20 -53t-51 -20q-36 0 -55 20t-19 53zM319 1382q0 33 20 53q19 19 54 19q33 0 52 -19q20 -20 20 -53q0 -31 -20 -53q-19 -20 -52 -20q-35 0 -54 20q-20 22 -20 53z" />
    <glyph glyph-name="copyright" unicode="&#xa9;" horiz-adv-x="1644" 
d="M84 717q0 164 53 302q51 133 150 232t232 150q138 53 302 53t302 -53q135 -52 233 -150q97 -97 149 -232q54 -140 54 -302t-54 -302q-53 -136 -149 -233q-96 -96 -233 -149q-138 -53 -302 -53t-302 53q-135 52 -232 149q-98 98 -150 233q-53 138 -53 302zM203 717
q0 -143 43 -257q44 -117 123 -199q80 -83 194 -128t258 -45t258 45q115 45 196 128q80 81 124 199q43 114 43 257q0 142 -43 258q-44 117 -124 199q-78 79 -196 126q-117 46 -258 46t-258 -46t-194 -126q-80 -83 -123 -199t-43 -258zM412 717q0 105 25 189q26 86 78 146
t130 94q77 34 184 34q156 0 249 -73q90 -71 128 -198l-108 -26q-28 98 -88 147q-59 49 -181 49q-85 0 -142 -25t-94 -74q-35 -46 -52 -115q-17 -68 -17 -148q0 -81 17 -149q17 -67 52 -114q37 -49 94 -74q60 -26 142 -26q122 0 181 49q60 49 88 148l108 -27
q-38 -126 -128 -197q-93 -73 -249 -73q-107 0 -184 34q-78 34 -130 94q-53 60 -78 145q-25 84 -25 190z" />
    <glyph glyph-name="ordfeminine" unicode="&#xaa;" horiz-adv-x="843" 
d="M88 1049q0 61 24 109t64 82q38 32 96 51q56 18 119 18q154 0 246 -86v65q0 79 -59 119q-61 41 -154 41q-80 0 -142 -25t-112 -63l-53 98q71 49 146 73q78 25 171 25q59 0 111 -11q60 -13 104 -41q49 -32 78 -79q31 -51 31 -127v-479h-121v70q0 50 16 85q17 36 27 60
l-18 8q-39 -116 -117 -178q-77 -61 -191 -61q-125 0 -195 70q-71 71 -71 176zM635 1137q-34 40 -85 68t-134 28q-95 0 -150 -43t-55 -129q0 -72 43 -115t129 -43q107 0 176 63q70 64 76 171z" />
    <glyph glyph-name="guillemotleft" unicode="&#xab;" horiz-adv-x="804" 
d="M84 561l313 328v-164l-161 -152q-3 -3 -33 -29q-23 -20 -39 -20v-24q16 0 36 -17q19 -16 29 -26l168 -158v-162l-313 326v98zM408 561l313 328v-164l-162 -152q-7 -7 -34 -29q-25 -20 -38 -20v-24q13 0 35 -17q23 -18 31 -26l168 -158v-162l-313 326v98z" />
    <glyph glyph-name="registered" unicode="&#xae;" horiz-adv-x="1644" 
d="M84 717q0 164 53 302q51 133 150 232t232 150q138 53 302 53t302 -53q135 -52 233 -150q97 -97 149 -232q54 -140 54 -302t-54 -302q-53 -136 -149 -233q-96 -96 -233 -149q-138 -53 -302 -53t-302 53q-135 52 -232 149q-98 98 -150 233q-53 138 -53 302zM203 717
q0 -143 43 -257q44 -117 123 -199q80 -83 194 -128t258 -45t258 45q115 45 196 128q80 81 124 199q43 114 43 257q0 142 -43 258q-44 117 -124 199q-78 79 -196 126q-117 46 -258 46t-258 -46t-194 -126q-80 -83 -123 -199t-43 -258zM1073 268q-19 47 -24 102q-5 53 -5 109
q0 55 -15 88q-14 32 -42 50q-28 19 -64 23q-42 5 -81 5h-252v-377h-113v897h381q89 0 146 -17q59 -18 95 -49t51 -79q15 -47 15 -107q0 -118 -58 -163q-59 -45 -159 -45v-21q23 0 61 -8q32 -7 68 -31q35 -24 56 -62q22 -40 22 -102q0 -63 6 -111q6 -47 31 -102h-119z
M852 745q112 0 158 38q45 37 45 126q0 87 -46 121q-47 35 -163 35h-256v-322z" />
    <glyph glyph-name="degree" unicode="&#xb0;" horiz-adv-x="761" 
d="M86 1247q0 67 18 124q18 55 56 97q39 42 92 65t129 23t129 -23t92 -65q37 -40 55 -97q19 -60 19 -124t-19 -124q-18 -57 -55 -97t-92 -64q-56 -24 -129 -24t-129 24q-55 24 -92 64q-38 42 -56 97q-18 57 -18 124zM207 1247q0 -88 43 -144t131 -56t131 56t43 144
q0 89 -43 145t-131 56t-131 -56t-43 -145z" />
    <glyph glyph-name="plusminus" unicode="&#xb1;" horiz-adv-x="1415" 
d="M637 596h-551v121h551v340h139v-340h553v-121h-553v-340h-139v340zM1329 119v-119h-1243v119h1243z" />
    <glyph glyph-name="twosuperior" unicode="&#xb2;" horiz-adv-x="890" 
d="M780 1260q0 -98 -40 -166q-43 -74 -101 -123q-61 -52 -134 -93q-121 -68 -136 -77q-67 -40 -110 -76q-46 -39 -54 -86h598v-111h-715v111q2 62 45 110q41 46 107 91q59 40 136 84q72 40 135 90q62 49 104 107q42 59 42 136q0 34 -10 67q-11 34 -37 61q-30 30 -69 46
q-41 17 -109 17q-100 0 -165 -51q-64 -51 -64 -154v-29h-123v25q0 109 40 171q40 63 96 95q57 33 116 42q60 9 98 9q87 0 150 -23q65 -24 110 -64q46 -42 68 -94q22 -53 22 -115z" />
    <glyph glyph-name="threesuperior" unicode="&#xb3;" horiz-adv-x="927" 
d="M774 1311q0 -55 -18 -93q-18 -37 -46 -62q-25 -23 -63 -34q-33 -10 -67 -10v-22q41 0 91 -13q46 -12 84 -41t62 -77q25 -50 25 -119q0 -164 -105 -246q-104 -82 -274 -82q-45 0 -110 9q-64 9 -124 42q-58 32 -101 96q-42 63 -42 172v29h123v-33q0 -60 20 -99
q20 -38 56 -63q33 -23 81 -34q44 -10 99 -10q117 0 187 53q69 52 69 168q0 60 -20 100t-56 60q-39 22 -88 29q-48 7 -113 7v109q108 0 157 46q50 47 50 110q0 43 -17 68q-18 28 -46 45q-27 17 -66 25q-35 7 -78 7q-111 0 -164 -46q-55 -47 -55 -126v-29h-123v27q0 80 30 134
q30 55 79 87q47 31 111 47q57 14 124 14q71 0 127 -14q62 -16 105 -44q46 -31 71 -76q25 -46 25 -111z" />
    <glyph glyph-name="acute" unicode="&#xb4;" horiz-adv-x="444" 
d="M66 1231l194 305h117l-240 -305h-71z" />
    <glyph glyph-name="periodcentered" unicode="&#xb7;" horiz-adv-x="376" 
d="M86 575q0 45 28 73t74 28q47 0 75 -28t28 -73t-28 -75q-27 -29 -75 -29q-47 0 -74 29q-28 30 -28 75z" />
    <glyph glyph-name="cedilla" unicode="&#xb8;" horiz-adv-x="505" 
d="M422 -219q0 -81 -44 -137t-136 -56q-68 0 -116 39t-48 121v10h84v-12q0 -33 14 -61q16 -31 66 -31q45 0 72 29q28 30 28 98q0 41 -19 67q-19 27 -61 27q-38 0 -61 -18q-14 -7 -21 -17h-74l37 160h78l-22 -88q33 20 80 20q25 0 47 -7q28 -9 46 -24q21 -18 36 -46
q14 -27 14 -74z" />
    <glyph glyph-name="onesuperior" unicode="&#xb9;" horiz-adv-x="370" 
d="M162 1411l-101 -29v109l224 45v-1014h-123v889z" />
    <glyph glyph-name="ordmasculine" unicode="&#xba;" horiz-adv-x="870" 
d="M86 1180q0 78 22 150q21 69 65 119q45 51 110 79t151 28q89 0 154 -28q64 -28 109 -79q46 -52 66 -119q21 -69 21 -150q0 -82 -21 -151q-20 -67 -66 -119q-45 -51 -109 -79q-65 -28 -154 -28q-86 0 -151 28t-110 79q-44 50 -65 119q-22 72 -22 151zM207 1180
q0 -118 56 -193q57 -76 171 -76q116 0 173 76q57 77 57 193t-57 192t-173 76q-114 0 -171 -76q-56 -75 -56 -192z" />
    <glyph glyph-name="guillemotright" unicode="&#xbb;" horiz-adv-x="804" 
d="M408 137v162l167 158q8 8 31 26q22 17 35 17v24q-13 0 -38 20q-27 22 -34 29l-161 152v164l313 -328v-98zM84 137v162l170 158q4 4 30 26q20 17 35 17v24q-15 0 -38 20q-30 26 -33 29l-164 152v164l313 -328v-98z" />
    <glyph glyph-name="questiondown" unicode="&#xbf;" horiz-adv-x="1193" 
d="M733 1024v-178h-158v178h158zM86 -14q0 110 36 186t91 130q57 55 118 96q49 33 118 83q53 39 91 91q36 50 36 120h155q0 -86 -36 -146q-37 -62 -90 -109q-51 -45 -118 -90q-65 -43 -117 -91q-53 -49 -90 -113q-36 -63 -36 -153q0 -133 86 -214t264 -81q75 0 139 16
q65 16 116 55t79 100q28 62 28 152v39h158v-37q0 -108 -28 -187q-27 -77 -72 -129q-44 -52 -102 -82q-54 -29 -113 -44q-48 -13 -112 -18q-48 -4 -93 -4q-236 0 -372 109t-136 321z" />
    <glyph glyph-name="Agrave" unicode="&#xc0;" horiz-adv-x="1433" 
d="M625 1434h184l582 -1434h-170l-164 406h-682l-164 -406h-168zM705 1274q0 -6 -5 -28q-9 -39 -10 -43q-4 -16 -12 -46q-6 -21 -12 -37l-234 -575h567l-229 567q-5 13 -13 38q-10 32 -14 49q-2 7 -10 46q-4 19 -4 29h-24zM547 1892h117l194 -305h-72z" />
    <glyph glyph-name="Aacute" unicode="&#xc1;" horiz-adv-x="1433" 
d="M625 1434h184l582 -1434h-170l-164 406h-682l-164 -406h-168zM705 1274q0 -6 -5 -28q-9 -39 -10 -43q-4 -16 -12 -46q-6 -21 -12 -37l-234 -575h567l-229 567q-5 13 -13 38q-10 32 -14 49q-2 7 -10 46q-4 19 -4 29h-24zM573 1587l195 305h117l-240 -305h-72z" />
    <glyph glyph-name="Acircumflex" unicode="&#xc2;" horiz-adv-x="1433" 
d="M625 1434h184l582 -1434h-170l-164 406h-682l-164 -406h-168zM705 1274q0 -6 -5 -28q-9 -39 -10 -43q-4 -16 -12 -46q-6 -21 -12 -37l-234 -575h567l-229 567q-5 13 -13 38q-10 32 -14 49q-2 7 -10 46q-4 19 -4 29h-24zM719 1819l-168 -232h-68l181 305h108l180 -305h-65
z" />
    <glyph glyph-name="Atilde" unicode="&#xc3;" horiz-adv-x="1433" 
d="M625 1434h184l582 -1434h-170l-164 406h-682l-164 -406h-168zM705 1274q0 -6 -5 -28q-9 -39 -10 -43q-4 -16 -12 -46q-6 -21 -12 -37l-234 -575h567l-229 567q-5 13 -13 38q-10 32 -14 49q-2 7 -10 46q-4 19 -4 29h-24zM813 1667q28 0 43 24q14 22 14 83h64v-52
q0 -49 -25 -93q-24 -42 -94 -42q-38 0 -65 18q-33 22 -48 36q-14 13 -38 37q-18 18 -43 18q-29 0 -44 -24q-16 -26 -16 -81h-61v51q0 52 24 94t94 42q39 0 66 -18t47 -38q7 -7 20 -19.5t19 -18.5q17 -17 43 -17z" />
    <glyph glyph-name="Adieresis" unicode="&#xc4;" horiz-adv-x="1433" 
d="M625 1434h184l582 -1434h-170l-164 406h-682l-164 -406h-168zM705 1274q0 -6 -5 -28q-9 -39 -10 -43q-4 -16 -12 -46q-6 -21 -12 -37l-234 -575h567l-229 567q-5 13 -13 38q-10 32 -14 49q-2 7 -10 46q-4 19 -4 29h-24zM528 1661q0 32 20 52t54 20q29 0 51 -20
q21 -20 21 -52t-21 -53t-51 -21q-34 0 -54 21q-20 22 -20 53zM762 1661q0 33 19 52q20 20 55 20q32 0 52 -20q19 -19 19 -52t-19 -53q-20 -21 -52 -21q-36 0 -55 21q-19 20 -19 53z" />
    <glyph glyph-name="Aring" unicode="&#xc5;" horiz-adv-x="1433" 
d="M625 1434h184l582 -1434h-170l-164 406h-682l-164 -406h-168zM705 1274q0 -6 -5 -28q-9 -39 -10 -43q-4 -16 -12 -46q-6 -21 -12 -37l-234 -575h567l-229 567q-5 13 -13 38q-10 32 -14 49q-2 7 -10 46q-4 19 -4 29h-24zM530 1755q0 81 52 131q50 49 135 49q87 0 136 -49
q50 -50 50 -131t-50 -131q-49 -49 -136 -49q-85 0 -135 49q-52 50 -52 131zM612 1755q0 -52 29 -83q29 -30 76 -30t76 30q28 29 28 83q0 55 -28 84q-29 31 -76 31t-76 -31t-29 -84z" />
    <glyph glyph-name="AE" unicode="&#xc6;" horiz-adv-x="2060" 
d="M1057 406h-563l-265 -406h-186l932 1434h1007v-140h-768v-454h680v-140h-680v-559h768v-141h-925v406zM1034 1294q-5 -23 -25 -74q-19 -47 -51 -98l-374 -577h473v749h-23z" />
    <glyph glyph-name="Ccedilla" unicode="&#xc7;" horiz-adv-x="1441" 
d="M84 717q0 164 41 302q40 134 124 232t209 150q127 53 294 53q253 0 400 -117t204 -319l-156 -29q-47 154 -152 240q-106 86 -296 86q-132 0 -228 -42q-95 -42 -158 -121q-64 -80 -93 -189q-29 -107 -29 -246t29 -246q30 -109 93 -188q64 -79 158 -120q96 -42 228 -42
q192 0 296 85q106 86 152 238l156 -28q-57 -203 -204 -320q-146 -116 -400 -116q-167 0 -294 53q-126 53 -209 149q-84 98 -124 233q-41 138 -41 302zM975 -213q0 -81 -44 -137q-43 -55 -136 -55q-69 0 -116 38q-48 39 -48 121v10h84v-12q0 -33 14 -61q15 -31 66 -31
q45 0 72 29q28 30 28 98q0 42 -19 68t-61 26q-39 0 -61 -18q-14 -7 -21 -17h-74l37 160h78l-22 -88q34 21 79 21q22 0 48 -8q28 -9 46 -24q21 -18 36 -46q14 -27 14 -74z" />
    <glyph glyph-name="Egrave" unicode="&#xc8;" horiz-adv-x="1089" 
d="M86 1434h926v-140h-768v-454h680v-140h-680v-559h768v-141h-926v1434zM393 1892h117l195 -305h-72z" />
    <glyph glyph-name="Eacute" unicode="&#xc9;" horiz-adv-x="1089" 
d="M86 1434h926v-140h-768v-454h680v-140h-680v-559h768v-141h-926v1434zM420 1587l194 305h117l-239 -305h-72z" />
    <glyph glyph-name="Ecircumflex" unicode="&#xca;" horiz-adv-x="1089" 
d="M86 1434h926v-140h-768v-454h680v-140h-680v-559h768v-141h-926v1434zM563 1819l-168 -232h-67l180 305h108l181 -305h-66z" />
    <glyph glyph-name="Edieresis" unicode="&#xcb;" horiz-adv-x="1089" 
d="M86 1434h926v-140h-768v-454h680v-140h-680v-559h768v-141h-926v1434zM373 1661q0 33 19 52q20 20 54 20q30 0 52 -20q20 -19 20 -52t-20 -53q-21 -21 -52 -21q-34 0 -54 21q-19 20 -19 53zM606 1661q0 32 20 52t54 20q32 0 52 -20t20 -52q0 -31 -20 -53q-20 -21 -52 -21
q-34 0 -54 21q-20 22 -20 53z" />
    <glyph glyph-name="Igrave" unicode="&#xcc;" 
d="M84 1434h158v-1434h-158v1434zM-4 1892h117l194 -305h-71z" />
    <glyph glyph-name="Iacute" unicode="&#xcd;" 
d="M84 1434h158v-1434h-158v1434zM20 1587l195 305h117l-240 -305h-72z" />
    <glyph glyph-name="Icircumflex" unicode="&#xce;" 
d="M84 1434h158v-1434h-158v1434zM166 1819l-168 -232h-68l181 305h108l180 -305h-65z" />
    <glyph glyph-name="Idieresis" unicode="&#xcf;" 
d="M84 1434h158v-1434h-158v1434zM-25 1661q0 32 20 52t54 20q29 0 51 -20q21 -19 21 -52q0 -32 -21 -53t-51 -21q-35 0 -54 21q-20 22 -20 53zM209 1661q0 33 19 52q20 20 55 20q32 0 52 -20q19 -19 19 -52t-19 -53q-20 -21 -52 -21q-35 0 -55 21q-19 20 -19 53z" />
    <glyph glyph-name="Ntilde" unicode="&#xd1;" horiz-adv-x="1284" 
d="M219 1276l-20 -10q4 -5 12 -31q8 -25 15 -58q10 -45 13 -74q5 -45 5 -77v-1026h-158v1434h211l766 -1276l22 10q-4 5 -12 31q-8 25 -15 58q-8 36 -12 74q-6 54 -6 77v1026h158v-1434h-211zM725 1667q28 0 43 24q14 22 14 83h64v-52q0 -49 -25 -93q-24 -42 -94 -42
q-38 0 -65 18q-33 22 -48 36q-28 26 -39 37q-18 18 -43 18q-29 0 -44 -24t-15 -81h-61v51q0 52 24 94t94 42q39 0 66 -18t47 -38q7 -7 20 -19.5t19 -18.5q17 -17 43 -17z" />
    <glyph glyph-name="Ograve" unicode="&#xd2;" horiz-adv-x="1509" 
d="M756 -20q-169 0 -296 53q-125 52 -210 149t-125 233q-41 138 -41 302t41 302q40 135 125 232q86 98 210 150q127 53 296 53t295 -53q123 -52 209 -150q83 -95 124 -232q41 -138 41 -302t-41 -302t-124 -233q-84 -96 -209 -149q-126 -53 -295 -53zM756 1315
q-132 0 -229 -42q-96 -41 -159 -121q-65 -82 -94 -189q-30 -111 -30 -246t30 -246q29 -108 94 -188q64 -79 159 -120q97 -42 229 -42q131 0 227 42q98 43 160 120q65 80 94 188q31 115 31 246t-31 246q-29 107 -94 189q-62 78 -160 121q-96 42 -227 42zM586 1913h116
l195 -305h-72z" />
    <glyph glyph-name="Oacute" unicode="&#xd3;" horiz-adv-x="1509" 
d="M756 -20q-169 0 -296 53q-125 52 -210 149t-125 233q-41 138 -41 302t41 302q40 135 125 232q86 98 210 150q127 53 296 53t295 -53q123 -52 209 -150q83 -95 124 -232q41 -138 41 -302t-41 -302t-124 -233q-84 -96 -209 -149q-126 -53 -295 -53zM756 1315
q-132 0 -229 -42q-96 -41 -159 -121q-65 -82 -94 -189q-30 -111 -30 -246t30 -246q29 -108 94 -188q64 -79 159 -120q97 -42 229 -42q131 0 227 42q98 43 160 120q65 80 94 188q31 115 31 246t-31 246q-29 107 -94 189q-62 78 -160 121q-96 42 -227 42zM612 1608l195 305
h117l-240 -305h-72z" />
    <glyph glyph-name="Ocircumflex" unicode="&#xd4;" horiz-adv-x="1509" 
d="M756 -20q-169 0 -296 53q-125 52 -210 149t-125 233q-41 138 -41 302t41 302q40 135 125 232q86 98 210 150q127 53 296 53t295 -53q123 -52 209 -150q83 -95 124 -232q41 -138 41 -302t-41 -302t-124 -233q-84 -96 -209 -149q-126 -53 -295 -53zM756 1315
q-132 0 -229 -42q-96 -41 -159 -121q-65 -82 -94 -189q-30 -111 -30 -246t30 -246q29 -108 94 -188q64 -79 159 -120q97 -42 229 -42q131 0 227 42q98 43 160 120q65 80 94 188q31 115 31 246t-31 246q-29 107 -94 189q-62 78 -160 121q-96 42 -227 42zM756 1839l-168 -231
h-68l180 305h109l180 -305h-65z" />
    <glyph glyph-name="Otilde" unicode="&#xd5;" horiz-adv-x="1509" 
d="M756 -20q-169 0 -296 53q-125 52 -210 149t-125 233q-41 138 -41 302t41 302q40 135 125 232q86 98 210 150q127 53 296 53t295 -53q123 -52 209 -150q83 -95 124 -232q41 -138 41 -302t-41 -302t-124 -233q-84 -96 -209 -149q-126 -53 -295 -53zM756 1315
q-132 0 -229 -42q-96 -41 -159 -121q-65 -82 -94 -189q-30 -111 -30 -246t30 -246q29 -108 94 -188q64 -79 159 -120q97 -42 229 -42q131 0 227 42q98 43 160 120q65 80 94 188q31 115 31 246t-31 246q-29 107 -94 189q-62 78 -160 121q-96 42 -227 42zM852 1688q29 0 43 23
q14 22 14 83h64v-51q0 -49 -25 -93q-24 -42 -94 -42q-41 0 -66 17t-47 37q-28 26 -39 37q-17 17 -43 17q-30 0 -44 -23q-15 -24 -15 -81h-61v51q0 51 24 93t94 42q41 0 66 -17q27 -18 47 -38q7 -7 20 -19.5t19 -18.5q17 -17 43 -17z" />
    <glyph glyph-name="Odieresis" unicode="&#xd6;" horiz-adv-x="1509" 
d="M756 -20q-169 0 -296 53q-125 52 -210 149t-125 233q-41 138 -41 302t41 302q40 135 125 232q86 98 210 150q127 53 296 53t295 -53q123 -52 209 -150q83 -95 124 -232q41 -138 41 -302t-41 -302t-124 -233q-84 -96 -209 -149q-126 -53 -295 -53zM756 1315
q-132 0 -229 -42q-96 -41 -159 -121q-65 -82 -94 -189q-30 -111 -30 -246t30 -246q29 -108 94 -188q64 -79 159 -120q97 -42 229 -42q131 0 227 42q98 43 160 120q65 80 94 188q31 115 31 246t-31 246q-29 107 -94 189q-62 78 -160 121q-96 42 -227 42zM565 1681q0 33 20 53
q19 19 54 19q31 0 51 -19q21 -20 21 -53q0 -32 -21 -53q-20 -20 -51 -20q-35 0 -54 20q-20 22 -20 53zM799 1681q0 34 19 53t54 19q34 0 53 -19t19 -53q0 -33 -19 -53t-53 -20q-35 0 -54 20t-19 53z" />
    <glyph glyph-name="multiply" unicode="&#xd7;" horiz-adv-x="1292" 
d="M645 481l-479 -481l-100 98l481 482l-481 481l100 98l479 -481l481 481l99 -98l-480 -481l480 -482l-99 -98z" />
    <glyph glyph-name="Oslash" unicode="&#xd8;" horiz-adv-x="1509" 
d="M973 1589h151l-65 -192q184 -78 275 -256t91 -424q0 -164 -41 -302t-124 -233q-84 -96 -209 -149q-126 -53 -295 -53q-52 0 -88 4q-54 6 -80 10l-51 -150h-152l66 193q-185 78 -276 256t-91 424q0 164 41 302q40 135 125 232q86 98 210 150q127 53 296 53q50 0 86 -4
q54 -6 80 -10zM756 1292q-126 0 -220 -41t-155 -115t-91 -182q-30 -106 -30 -237q0 -190 59 -321q60 -132 185 -199l366 1085q-32 7 -56 8q-36 2 -58 2zM639 152q38 -8 57 -9q38 -2 60 -2q126 0 220 41q93 40 153 117q62 79 91 181q29 101 29 237q0 189 -59 320
q-60 135 -184 200z" />
    <glyph glyph-name="Ugrave" unicode="&#xd9;" horiz-adv-x="1284" 
d="M643 119q89 0 160 13q77 14 127 53q54 42 84 113q30 72 30 191v945h158v-951q0 -165 -48 -266q-48 -100 -127 -152q-80 -53 -179 -69q-97 -16 -205 -16t-205 16q-100 16 -180 69q-81 53 -128 152q-48 101 -48 266v951h158v-945q0 -119 30 -191q30 -71 84 -113
q51 -39 128 -53q72 -13 161 -13zM473 1892h117l194 -305h-71z" />
    <glyph glyph-name="Uacute" unicode="&#xda;" horiz-adv-x="1284" 
d="M643 119q89 0 160 13q77 14 127 53q54 42 84 113q30 72 30 191v945h158v-951q0 -165 -48 -266q-48 -100 -127 -152q-80 -53 -179 -69q-97 -16 -205 -16t-205 16q-100 16 -180 69q-81 53 -128 152q-48 101 -48 266v951h158v-945q0 -119 30 -191q30 -71 84 -113
q51 -39 128 -53q72 -13 161 -13zM500 1587l194 305h117l-240 -305h-71z" />
    <glyph glyph-name="Ucircumflex" unicode="&#xdb;" horiz-adv-x="1284" 
d="M643 119q89 0 160 13q77 14 127 53q54 42 84 113q30 72 30 191v945h158v-951q0 -165 -48 -266q-48 -100 -127 -152q-80 -53 -179 -69q-97 -16 -205 -16t-205 16q-100 16 -180 69q-81 53 -128 152q-48 101 -48 266v951h158v-945q0 -119 30 -191q30 -71 84 -113
q51 -39 128 -53q72 -13 161 -13zM643 1819l-168 -232h-67l180 305h108l181 -305h-66z" />
    <glyph glyph-name="Udieresis" unicode="&#xdc;" horiz-adv-x="1284" 
d="M643 119q89 0 160 13q77 14 127 53q54 42 84 113q30 72 30 191v945h158v-951q0 -165 -48 -266q-48 -100 -127 -152q-80 -53 -179 -69q-97 -16 -205 -16t-205 16q-100 16 -180 69q-81 53 -128 152q-48 101 -48 266v951h158v-945q0 -119 30 -191q30 -71 84 -113
q51 -39 128 -53q72 -13 161 -13zM453 1661q0 33 19 52q20 20 54 20q30 0 52 -20q20 -19 20 -52t-20 -53q-21 -21 -52 -21q-34 0 -54 21q-19 20 -19 53zM686 1661q0 32 20 52t54 20q32 0 52 -20q19 -19 19 -52t-19 -53q-20 -21 -52 -21q-34 0 -54 21q-20 22 -20 53z" />
    <glyph glyph-name="Yacute" unicode="&#xdd;" horiz-adv-x="1374" 
d="M238 1434l413 -572q27 -44 27 -90h22q0 51 27 90l414 572h188l-561 -775v-659h-158v659l-563 775h191zM545 1587l194 305h117l-240 -305h-71z" />
    <glyph glyph-name="germandbls" unicode="&#xdf;" horiz-adv-x="1300" 
d="M520 731v139h105q79 0 134 23t87 59t47 86q14 46 14 101q0 75 -24 128q-23 50 -68 86q-43 34 -101 49t-128 15q-182 0 -263 -78t-81 -231v-1108h-158v1108q0 140 47 229q46 88 120 137q69 46 162 65q84 17 173 17q127 0 217 -30q88 -29 148 -85q58 -54 85 -130
q27 -77 27 -166q0 -105 -34 -169t-82 -100q-50 -37 -102 -49q-54 -12 -95 -12v-24q73 0 159 -14q82 -13 151 -54q68 -40 112 -120q45 -82 45 -210q0 -82 -23 -159q-22 -73 -76 -132q-52 -56 -142 -90q-86 -32 -224 -32q-128 0 -203 33q-80 35 -122 83q-43 49 -60 103t-17 92
h160q0 -72 65 -121t177 -49q86 0 142 20q58 21 94 58t52 89q17 54 17 115q0 93 -30 156q-30 64 -84 101q-56 39 -132 55t-176 16h-115z" />
    <glyph glyph-name="agrave" unicode="&#xe0;" horiz-adv-x="1110" 
d="M90 328q0 86 33 152q34 68 91 112q58 44 136 67q80 23 166 23q220 0 348 -121v105q0 114 -81 176q-80 61 -218 61q-118 0 -207 -34q-88 -34 -161 -87l-68 123q98 65 208 103q105 36 241 36q77 0 154 -16q81 -17 144 -58q64 -41 105 -112q41 -70 41 -178v-680h-156v100
q0 68 20 122q27 74 32 87l-23 8q-55 -162 -163 -250q-110 -90 -265 -90q-89 0 -159 27t-119 74q-47 46 -73 111q-26 66 -26 139zM864 453q-45 58 -121 97q-74 38 -190 38q-132 0 -219 -64q-86 -63 -86 -188q0 -105 67 -171q69 -67 193 -67q75 0 139 26t111 73q49 49 75 111
q26 63 31 145zM408 1503h116l195 -305h-72z" />
    <glyph glyph-name="aacute" unicode="&#xe1;" horiz-adv-x="1110" 
d="M90 328q0 86 33 152q34 68 91 112q58 44 136 67q80 23 166 23q220 0 348 -121v105q0 114 -81 176q-80 61 -218 61q-118 0 -207 -34q-88 -34 -161 -87l-68 123q98 65 208 103q105 36 241 36q77 0 154 -16q81 -17 144 -58q64 -41 105 -112q41 -70 41 -178v-680h-156v100
q0 68 20 122q27 74 32 87l-23 8q-55 -162 -163 -250q-110 -90 -265 -90q-89 0 -159 27t-119 74q-47 46 -73 111q-26 66 -26 139zM864 453q-45 58 -121 97q-74 38 -190 38q-132 0 -219 -64q-86 -63 -86 -188q0 -105 67 -171q69 -67 193 -67q75 0 139 26t111 73q49 49 75 111
q26 63 31 145zM434 1198l195 305h116l-239 -305h-72z" />
    <glyph glyph-name="acircumflex" unicode="&#xe2;" horiz-adv-x="1110" 
d="M90 328q0 86 33 152q34 68 91 112q58 44 136 67q80 23 166 23q220 0 348 -121v105q0 114 -81 176q-80 61 -218 61q-118 0 -207 -34q-88 -34 -161 -87l-68 123q98 65 208 103q105 36 241 36q77 0 154 -16q81 -17 144 -58q64 -41 105 -112q41 -70 41 -178v-680h-156v100
q0 68 20 122q27 74 32 87l-23 8q-55 -162 -163 -250q-110 -90 -265 -90q-89 0 -159 27t-119 74q-47 46 -73 111q-26 66 -26 139zM864 453q-45 58 -121 97q-74 38 -190 38q-132 0 -219 -64q-86 -63 -86 -188q0 -105 67 -171q69 -67 193 -67q75 0 139 26t111 73q49 49 75 111
q26 63 31 145zM580 1430l-168 -232h-68l180 305h109l180 -305h-65z" />
    <glyph glyph-name="atilde" unicode="&#xe3;" horiz-adv-x="1110" 
d="M90 328q0 86 33 152q34 68 91 112q58 44 136 67q80 23 166 23q220 0 348 -121v105q0 114 -81 176q-80 61 -218 61q-118 0 -207 -34q-88 -34 -161 -87l-68 123q98 65 208 103q105 36 241 36q77 0 154 -16q81 -17 144 -58q64 -41 105 -112q41 -70 41 -178v-680h-156v100
q0 68 20 122q27 74 32 87l-23 8q-55 -162 -163 -250q-110 -90 -265 -90q-89 0 -159 27t-119 74q-47 46 -73 111q-26 66 -26 139zM864 453q-45 58 -121 97q-74 38 -190 38q-132 0 -219 -64q-86 -63 -86 -188q0 -105 67 -171q69 -67 193 -67q75 0 139 26t111 73q49 49 75 111
q26 63 31 145zM674 1278q28 0 43 24q14 22 14 82h64v-51q0 -49 -25 -93q-24 -42 -94 -42q-40 0 -66 17q-25 17 -47 37q-28 26 -39 37q-18 18 -43 18q-29 0 -44 -24t-15 -81h-62v51q0 50 25 94q24 42 94 42q39 0 66 -18t47 -38q7 -7 20 -19.5t19 -18.5q17 -17 43 -17z" />
    <glyph glyph-name="adieresis" unicode="&#xe4;" horiz-adv-x="1110" 
d="M90 328q0 86 33 152q34 68 91 112q58 44 136 67q80 23 166 23q220 0 348 -121v105q0 114 -81 176q-80 61 -218 61q-118 0 -207 -34q-88 -34 -161 -87l-68 123q98 65 208 103q105 36 241 36q77 0 154 -16q81 -17 144 -58q64 -41 105 -112q41 -70 41 -178v-680h-156v100
q0 68 20 122q27 74 32 87l-23 8q-55 -162 -163 -250q-110 -90 -265 -90q-89 0 -159 27t-119 74q-47 46 -73 111q-26 66 -26 139zM864 453q-45 58 -121 97q-74 38 -190 38q-132 0 -219 -64q-86 -63 -86 -188q0 -105 67 -171q69 -67 193 -67q75 0 139 26t111 73q49 49 75 111
q26 63 31 145zM389 1272q0 32 20 52q19 19 54 19q31 0 51 -19q21 -20 21 -52t-21 -53t-51 -21q-35 0 -54 21q-20 22 -20 53zM623 1272q0 33 19 52t54 19q34 0 53 -19t19 -52t-19 -53q-19 -21 -53 -21t-54 21q-19 20 -19 53z" />
    <glyph glyph-name="aring" unicode="&#xe5;" horiz-adv-x="1110" 
d="M90 328q0 86 33 152q34 68 91 112q58 44 136 67q80 23 166 23q220 0 348 -121v105q0 114 -81 176q-80 61 -218 61q-118 0 -207 -34q-88 -34 -161 -87l-68 123q98 65 208 103q105 36 241 36q77 0 154 -16q81 -17 144 -58q64 -41 105 -112q41 -70 41 -178v-680h-156v100
q0 68 20 122q27 74 32 87l-23 8q-55 -162 -163 -250q-110 -90 -265 -90q-89 0 -159 27t-119 74q-47 46 -73 111q-26 66 -26 139zM864 453q-45 58 -121 97q-74 38 -190 38q-132 0 -219 -64q-86 -63 -86 -188q0 -105 67 -171q69 -67 193 -67q75 0 139 26t111 73q49 49 75 111
q26 63 31 145zM391 1366q0 82 51 131q50 49 136 49q87 0 136 -49q50 -50 50 -131t-50 -131q-49 -49 -136 -49q-86 0 -136 49q-51 49 -51 131zM473 1366q0 -52 29 -83q28 -30 76 -30q46 0 75 30q29 31 29 83q0 53 -29 84t-75 31q-47 0 -76 -31t-29 -84z" />
    <glyph glyph-name="ae" unicode="&#xe6;" horiz-adv-x="1923" 
d="M90 328q0 86 33 152q34 68 91 112q58 44 136 67q80 23 166 23q220 0 348 -121v105q0 114 -81 176q-80 61 -218 61q-118 0 -207 -34q-88 -34 -161 -87l-68 123q98 65 208 103q105 36 241 36q50 0 111 -8q60 -8 110 -28q52 -21 98 -53q47 -33 76 -81q62 81 160 125
q99 45 233 45q98 0 180 -27t143 -85q59 -56 93 -144q33 -86 33 -202v-82l-793 -2q2 -89 22 -156q22 -72 64 -120q46 -52 109 -78q66 -27 155 -27q138 0 218 62q81 63 114 167l133 -61q-47 -141 -166 -226q-117 -83 -303 -83q-187 0 -303 82q-117 83 -164 225
q-56 -155 -166 -231t-264 -76q-93 0 -161 26q-71 27 -120 73t-74 110q-26 66 -26 139zM1661 623q0 142 -79 214t-214 72q-152 0 -232 -79q-82 -80 -104 -207h629zM864 453q-45 58 -121 97q-74 38 -190 38q-132 0 -219 -64q-86 -63 -86 -188q0 -105 67 -171q69 -67 193 -67
q75 0 139 26t111 73q49 49 75 111q26 63 31 145z" />
    <glyph glyph-name="ccedilla" unicode="&#xe7;" horiz-adv-x="1148" 
d="M84 512q0 112 32 213q31 97 95 169q62 69 159 111q91 39 220 39q197 0 316 -95q118 -94 157 -259l-150 -24q-27 111 -107 175t-216 64q-89 0 -154 -28q-64 -27 -108 -81q-43 -52 -64 -124q-20 -69 -20 -160t20 -160q21 -73 64 -123q44 -51 108 -79q67 -29 154 -29
q135 0 216 63q80 62 107 174l150 -24q-39 -165 -157 -259q-119 -95 -316 -95q-129 0 -220 39q-97 42 -159 111q-64 72 -95 169q-32 101 -32 213zM813 -213q0 -81 -44 -137t-136 -56q-68 0 -116 39t-48 121v10h84v-12q0 -33 14 -61q15 -31 66 -31q46 0 73 29t27 98
q0 42 -19 68t-61 26q-39 0 -61 -18q-14 -7 -21 -17h-73l37 160h77l-22 -88q34 21 80 21q21 0 47 -8q28 -9 46 -24q21 -18 36 -46q14 -27 14 -74z" />
    <glyph glyph-name="egrave" unicode="&#xe8;" horiz-adv-x="1142" 
d="M84 512q0 111 31 213q30 98 93 169t157 111q91 39 221 39q98 0 180 -27q80 -26 142 -85q59 -56 93 -144q33 -86 33 -202v-82l-790 -2q0 -87 21 -156q21 -70 65 -120q46 -53 108 -78q66 -27 156 -27q136 0 216 62q81 63 114 167l133 -61q-47 -141 -166 -226
q-117 -83 -303 -83q-129 0 -220 39q-95 41 -158 111q-62 70 -94 169q-32 101 -32 213zM881 623q0 142 -79 214q-80 72 -214 72q-153 0 -233 -79q-81 -79 -103 -207h629zM416 1503h116l195 -305h-72z" />
    <glyph glyph-name="eacute" unicode="&#xe9;" horiz-adv-x="1142" 
d="M84 512q0 111 31 213q30 98 93 169t157 111q91 39 221 39q98 0 180 -27q80 -26 142 -85q59 -56 93 -144q33 -86 33 -202v-82l-790 -2q0 -87 21 -156q21 -70 65 -120q46 -53 108 -78q66 -27 156 -27q136 0 216 62q81 63 114 167l133 -61q-47 -141 -166 -226
q-117 -83 -303 -83q-129 0 -220 39q-95 41 -158 111q-62 70 -94 169q-32 101 -32 213zM881 623q0 142 -79 214q-80 72 -214 72q-153 0 -233 -79q-81 -79 -103 -207h629zM442 1198l195 305h117l-240 -305h-72z" />
    <glyph glyph-name="ecircumflex" unicode="&#xea;" horiz-adv-x="1142" 
d="M84 512q0 111 31 213q30 98 93 169t157 111q91 39 221 39q98 0 180 -27q80 -26 142 -85q59 -56 93 -144q33 -86 33 -202v-82l-790 -2q0 -87 21 -156q21 -70 65 -120q46 -53 108 -78q66 -27 156 -27q136 0 216 62q81 63 114 167l133 -61q-47 -141 -166 -226
q-117 -83 -303 -83q-129 0 -220 39q-95 41 -158 111q-62 70 -94 169q-32 101 -32 213zM881 623q0 142 -79 214q-80 72 -214 72q-153 0 -233 -79q-81 -79 -103 -207h629zM586 1430l-168 -232h-68l180 305h109l180 -305h-65z" />
    <glyph glyph-name="edieresis" unicode="&#xeb;" horiz-adv-x="1142" 
d="M84 512q0 111 31 213q30 98 93 169t157 111q91 39 221 39q98 0 180 -27q80 -26 142 -85q59 -56 93 -144q33 -86 33 -202v-82l-790 -2q0 -87 21 -156q21 -70 65 -120q46 -53 108 -78q66 -27 156 -27q136 0 216 62q81 63 114 167l133 -61q-47 -141 -166 -226
q-117 -83 -303 -83q-129 0 -220 39q-95 41 -158 111q-62 70 -94 169q-32 101 -32 213zM881 623q0 142 -79 214q-80 72 -214 72q-153 0 -233 -79q-81 -79 -103 -207h629zM395 1272q0 32 20 52q19 19 54 19q31 0 51 -19q21 -20 21 -52t-21 -53t-51 -21q-35 0 -54 21
q-20 22 -20 53zM629 1272q0 33 19 52t54 19q34 0 53 -19t19 -52t-19 -53q-19 -21 -53 -21t-54 21q-19 20 -19 53z" />
    <glyph glyph-name="igrave" unicode="&#xec;" 
d="M86 1024h156v-1024h-156v1024zM-4 1483h117l194 -305h-71z" />
    <glyph glyph-name="iacute" unicode="&#xed;" 
d="M86 1024h156v-1024h-156v1024zM20 1178l195 305h117l-240 -305h-72z" />
    <glyph glyph-name="icircumflex" unicode="&#xee;" 
d="M86 1024h156v-1024h-156v1024zM166 1409l-168 -231h-68l181 305h108l180 -305h-65z" />
    <glyph glyph-name="idieresis" unicode="&#xef;" 
d="M86 1024h156v-1024h-156v1024zM-25 1251q0 33 20 53q19 19 54 19q31 0 51 -19q21 -20 21 -53q0 -32 -21 -53q-20 -20 -51 -20q-35 0 -54 20q-20 22 -20 53zM209 1251q0 34 19 53t55 19q33 0 52 -19t19 -53q0 -33 -19 -53t-52 -20q-36 0 -55 20t-19 53z" />
    <glyph glyph-name="ntilde" unicode="&#xf1;" horiz-adv-x="1079" 
d="M838 631q0 86 -24 137q-25 53 -57 78q-35 28 -72 35q-40 8 -67 8q-103 0 -176 -44q-70 -42 -115 -106q-45 -63 -65 -127q-20 -63 -20 -108v-504h-156v1024h156v-154q0 -73 -16 -111q-16 -37 -33 -65l16 -14q29 40 66 107q35 63 84 120q49 56 123 98q69 39 184 39
q52 0 104 -11q59 -12 107 -49q45 -34 82 -111q34 -71 34 -193v-680h-155v631zM795 1667q28 0 43 24q14 22 14 83h63v-52q0 -51 -24 -93t-94 -42q-39 0 -66 18q-29 19 -47 36q-28 26 -39 37q-18 18 -43 18q-29 0 -44 -24t-15 -81h-62v51q0 50 25 94q24 42 94 42q39 0 66 -18
t47 -38q7 -7 20 -19.5t19 -18.5q17 -17 43 -17z" />
    <glyph glyph-name="ograve" unicode="&#xf2;" horiz-adv-x="1181" 
d="M84 512q0 112 32 213q31 97 95 169q62 69 159 111q91 39 222 39q130 0 221 -39q95 -41 158 -111q64 -72 95 -169q32 -101 32 -213t-32 -213q-31 -97 -95 -169q-63 -70 -158 -111q-91 -39 -221 -39q-131 0 -222 39q-97 42 -159 111q-64 72 -95 169q-32 101 -32 213z
M244 512q0 -91 20 -160q21 -73 64 -123q44 -51 108 -79q67 -29 156 -29t156 29q64 28 108 79q43 50 64 123q20 69 20 160t-20 160q-21 72 -64 124q-44 54 -108 81q-65 28 -156 28t-156 -28q-64 -27 -108 -81q-43 -52 -64 -124q-20 -69 -20 -160zM422 1503h117l194 -305h-71z
" />
    <glyph glyph-name="oacute" unicode="&#xf3;" horiz-adv-x="1181" 
d="M84 512q0 112 32 213q31 97 95 169q62 69 159 111q91 39 222 39q130 0 221 -39q95 -41 158 -111q64 -72 95 -169q32 -101 32 -213t-32 -213q-31 -97 -95 -169q-63 -70 -158 -111q-91 -39 -221 -39q-131 0 -222 39q-97 42 -159 111q-64 72 -95 169q-32 101 -32 213z
M244 512q0 -91 20 -160q21 -73 64 -123q44 -51 108 -79q67 -29 156 -29t156 29q64 28 108 79q43 50 64 123q20 69 20 160t-20 160q-21 72 -64 124q-44 54 -108 81q-65 28 -156 28t-156 -28q-64 -27 -108 -81q-43 -52 -64 -124q-20 -69 -20 -160zM449 1198l194 305h117
l-240 -305h-71z" />
    <glyph glyph-name="ocircumflex" unicode="&#xf4;" horiz-adv-x="1181" 
d="M84 512q0 112 32 213q31 97 95 169q62 69 159 111q91 39 222 39q130 0 221 -39q95 -41 158 -111q64 -72 95 -169q32 -101 32 -213t-32 -213q-31 -97 -95 -169q-63 -70 -158 -111q-91 -39 -221 -39q-131 0 -222 39q-97 42 -159 111q-64 72 -95 169q-32 101 -32 213z
M244 512q0 -91 20 -160q21 -73 64 -123q44 -51 108 -79q67 -29 156 -29t156 29q64 28 108 79q43 50 64 123q20 69 20 160t-20 160q-21 72 -64 124q-44 54 -108 81q-65 28 -156 28t-156 -28q-64 -27 -108 -81q-43 -52 -64 -124q-20 -69 -20 -160zM592 1430l-168 -232h-68
l181 305h108l180 -305h-65z" />
    <glyph glyph-name="otilde" unicode="&#xf5;" horiz-adv-x="1181" 
d="M84 512q0 112 32 213q31 97 95 169q62 69 159 111q91 39 222 39q130 0 221 -39q95 -41 158 -111q64 -72 95 -169q32 -101 32 -213t-32 -213q-31 -97 -95 -169q-63 -70 -158 -111q-91 -39 -221 -39q-131 0 -222 39q-97 42 -159 111q-64 72 -95 169q-32 101 -32 213z
M244 512q0 -91 20 -160q21 -73 64 -123q44 -51 108 -79q67 -29 156 -29t156 29q64 28 108 79q43 50 64 123q20 69 20 160t-20 160q-21 72 -64 124q-44 54 -108 81q-65 28 -156 28t-156 -28q-64 -27 -108 -81q-43 -52 -64 -124q-20 -69 -20 -160zM688 1278q28 0 43 24
q14 22 14 82h64v-51q0 -49 -25 -93q-24 -42 -94 -42q-40 0 -65 17t-47 37q-28 26 -39 37q-18 18 -43 18q-29 0 -44 -24q-16 -26 -16 -81h-61v51q0 52 24 94t95 42q38 0 65 -18t47 -38q7 -7 20 -19.5t19 -18.5q17 -17 43 -17z" />
    <glyph glyph-name="odieresis" unicode="&#xf6;" horiz-adv-x="1181" 
d="M84 512q0 112 32 213q31 97 95 169q62 69 159 111q91 39 222 39q130 0 221 -39q95 -41 158 -111q64 -72 95 -169q32 -101 32 -213t-32 -213q-31 -97 -95 -169q-63 -70 -158 -111q-91 -39 -221 -39q-131 0 -222 39q-97 42 -159 111q-64 72 -95 169q-32 101 -32 213z
M244 512q0 -91 20 -160q21 -73 64 -123q44 -51 108 -79q67 -29 156 -29t156 29q64 28 108 79q43 50 64 123q20 69 20 160t-20 160q-21 72 -64 124q-44 54 -108 81q-65 28 -156 28t-156 -28q-64 -27 -108 -81q-43 -52 -64 -124q-20 -69 -20 -160zM401 1272q0 32 20 52
q19 19 54 19q31 0 51 -19q21 -20 21 -52t-21 -53t-51 -21q-35 0 -54 21q-20 22 -20 53zM635 1272q0 33 19 52t55 19q33 0 52 -19t19 -52t-19 -53q-19 -21 -52 -21q-35 0 -55 21q-19 20 -19 53z" />
    <glyph glyph-name="divide" unicode="&#xf7;" horiz-adv-x="1177" 
d="M485 995q0 46 29 73q30 28 76 28q45 0 73 -28q27 -27 27 -73q0 -47 -27 -75q-27 -29 -73 -29q-47 0 -76 29t-29 75zM1092 725v-137h-1006v137h1006zM485 322q0 47 29 74q30 28 76 28q45 0 73 -28q27 -27 27 -74q0 -48 -27 -75q-28 -28 -73 -28q-46 0 -76 28
q-29 27 -29 75z" />
    <glyph glyph-name="oslash" unicode="&#xf8;" horiz-adv-x="1181" 
d="M362 23q-140 60 -208 188q-70 131 -70 301q0 112 32 213q31 97 95 169q62 69 159 111q91 39 222 39q59 0 113 -10l51 152h125l-62 -185q141 -61 209 -188q70 -131 70 -301q0 -112 -32 -213q-31 -97 -95 -169q-63 -70 -158 -111q-91 -39 -221 -39q-61 0 -115 10l-51 -152
h-125zM244 512q0 -124 40 -213q41 -91 126 -137l249 737q-33 6 -67 6q-91 0 -156 -28q-64 -27 -108 -81q-43 -52 -64 -124q-20 -69 -20 -160zM522 125q15 -4 34 -4h36q89 0 156 29q64 28 108 79q43 50 64 123q20 69 20 160q0 121 -41 214q-40 91 -127 138z" />
    <glyph glyph-name="ugrave" unicode="&#xf9;" horiz-adv-x="1079" 
d="M242 393q0 -88 23 -137q24 -52 58 -78q36 -28 71 -35q40 -8 67 -8q104 0 175 44q70 43 116 106q44 61 64 127q20 68 20 108v504h157v-1024h-157v154q0 76 16 111t35 65l-17 14q-29 -40 -66 -107q-34 -63 -84 -120q-49 -56 -123 -98q-69 -39 -183 -39q-53 0 -105 11
q-57 12 -106 49q-47 35 -83 111q-34 71 -34 193v680h156v-631zM371 1483h116l195 -305h-72z" />
    <glyph glyph-name="uacute" unicode="&#xfa;" horiz-adv-x="1079" 
d="M242 393q0 -88 23 -137q24 -52 58 -78q36 -28 71 -35q40 -8 67 -8q104 0 175 44q70 43 116 106q44 61 64 127q20 68 20 108v504h157v-1024h-157v154q0 76 16 111t35 65l-17 14q-29 -40 -66 -107q-34 -63 -84 -120q-49 -56 -123 -98q-69 -39 -183 -39q-53 0 -105 11
q-57 12 -106 49q-47 35 -83 111q-34 71 -34 193v680h156v-631zM397 1178l195 305h117l-240 -305h-72z" />
    <glyph glyph-name="ucircumflex" unicode="&#xfb;" horiz-adv-x="1079" 
d="M242 393q0 -88 23 -137q24 -52 58 -78q36 -28 71 -35q40 -8 67 -8q104 0 175 44q70 43 116 106q44 61 64 127q20 68 20 108v504h157v-1024h-157v154q0 76 16 111t35 65l-17 14q-29 -40 -66 -107q-34 -63 -84 -120q-49 -56 -123 -98q-69 -39 -183 -39q-53 0 -105 11
q-57 12 -106 49q-47 35 -83 111q-34 71 -34 193v680h156v-631zM541 1409l-168 -231h-68l180 305h109l180 -305h-65z" />
    <glyph glyph-name="udieresis" unicode="&#xfc;" horiz-adv-x="1079" 
d="M242 393q0 -88 23 -137q24 -52 58 -78q36 -28 71 -35q40 -8 67 -8q104 0 175 44q70 43 116 106q44 61 64 127q20 68 20 108v504h157v-1024h-157v154q0 76 16 111t35 65l-17 14q-29 -40 -66 -107q-34 -63 -84 -120q-49 -56 -123 -98q-69 -39 -183 -39q-53 0 -105 11
q-57 12 -106 49q-47 35 -83 111q-34 71 -34 193v680h156v-631zM350 1251q0 33 20 53q19 19 54 19q31 0 51 -19q21 -20 21 -53q0 -32 -21 -53q-20 -20 -51 -20q-35 0 -54 20q-20 22 -20 53zM584 1251q0 34 19 53t54 19q34 0 53 -19t19 -53q0 -33 -19 -53t-53 -20
q-35 0 -54 20t-19 53z" />
    <glyph glyph-name="yacute" unicode="&#xfd;" horiz-adv-x="1060" 
d="M631 0q-39 -106 -85 -194q-47 -90 -110 -163q-62 -71 -134 -113t-159 -42v154q67 0 122 41q56 42 95 97q45 63 69 118q27 62 42 102h-43l-385 1024h168l268 -731q4 -13 26 -79q13 -39 13 -56l25 -2q0 19 13 58q22 66 26 79l268 731h166zM385 1178l195 305h116l-239 -305
h-72z" />
    <glyph glyph-name="ydieresis" unicode="&#xff;" horiz-adv-x="1060" 
d="M631 0q-39 -106 -85 -194q-47 -90 -110 -163q-62 -71 -134 -113t-159 -42v154q67 0 122 41q56 42 95 97q45 63 69 118q27 62 42 102h-43l-385 1024h168l268 -731q4 -13 26 -79q13 -39 13 -56l25 -2q0 19 13 58q22 66 26 79l268 731h166zM340 1251q0 34 19 53t55 19
q31 0 51 -19t20 -53q0 -33 -20 -53t-51 -20q-36 0 -55 20t-19 53zM573 1251q0 33 20 53q19 19 54 19q33 0 52 -19q20 -20 20 -53q0 -31 -20 -53q-19 -20 -52 -20q-35 0 -54 20q-20 22 -20 53z" />
    <glyph glyph-name="dotlessi" unicode="&#x131;" 
d="M86 1024h156v-1024h-156v1024z" />
    <glyph glyph-name="OE" unicode="&#x152;" horiz-adv-x="1943" 
d="M1866 1434v-140h-770v-454h682v-140h-682v-559h770v-141h-926q-44 -11 -88 -15q-50 -5 -96 -5q-169 0 -296 53q-125 52 -210 149t-125 233q-41 138 -41 302t41 302q40 135 125 232q86 98 210 150q127 53 296 53q46 0 96 -5q44 -4 88 -15h926zM938 1264q-81 28 -182 28
q-126 0 -220 -41t-155 -115t-91 -182q-30 -106 -30 -237q0 -132 30 -237t91 -181t155 -117t220 -41q100 0 182 31v1092z" />
    <glyph glyph-name="oe" unicode="&#x153;" horiz-adv-x="1996" 
d="M84 512q0 112 32 213q31 97 95 169q62 69 159 111q91 39 222 39q154 0 259 -57t167 -158q61 102 164 158q105 57 258 57q97 0 180 -27q80 -26 142 -85q59 -56 93 -144q33 -86 33 -202v-82l-790 -2q0 -87 21 -156q21 -70 65 -120q46 -53 108 -78q66 -27 156 -27
q136 0 216 62q81 63 114 167l133 -61q-47 -141 -166 -226q-117 -83 -301 -83q-154 0 -260 57q-105 56 -166 158q-61 -102 -166 -158q-106 -57 -260 -57q-131 0 -222 39q-97 42 -159 111q-64 72 -95 169q-32 101 -32 213zM1735 623q0 142 -79 214q-80 72 -212 72
q-155 0 -235 -79q-81 -79 -103 -207h629zM244 512q0 -91 20 -160q21 -73 64 -123q44 -51 108 -79q67 -29 156 -29t156 29q64 28 108 79q43 50 64 123q20 69 20 160t-20 160q-21 72 -64 124q-44 54 -108 81q-65 28 -156 28t-156 -28q-64 -27 -108 -81q-43 -52 -64 -124
q-20 -69 -20 -160z" />
    <glyph glyph-name="Scaron" unicode="&#x160;" horiz-adv-x="1325" 
d="M98 1034q0 78 30 153q30 74 97 134q65 58 177 96q108 37 268 37q34 0 97 -5q47 -4 118 -21q57 -14 123 -46q59 -29 109 -82q48 -51 78 -128q30 -76 30 -183v-39h-158v43q0 93 -33 154q-32 60 -88 98q-54 36 -127 53q-74 17 -149 17q-126 0 -207 -29q-79 -28 -126 -71
q-47 -42 -63 -91q-16 -48 -16 -90q0 -70 33 -110q34 -42 88 -65q51 -22 128 -35q4 -1 152 -23q102 -17 207 -36q103 -19 189 -62q85 -43 137 -112q53 -71 53 -190q0 -74 -31 -153q-29 -74 -99 -135q-68 -59 -178 -97q-105 -36 -269 -36q-32 0 -99 5q-55 4 -125 20
q-60 14 -131 46q-61 28 -117 82q-51 50 -85 128q-33 77 -33 183v39h158v-43q0 -93 38 -153q40 -63 102 -100q64 -38 139 -53q77 -15 153 -15q130 0 211 28t128 72q45 42 63 92q17 47 17 90q0 75 -36 120q-37 46 -100 73q-64 27 -143 42q-103 19 -169 28q-126 19 -196 32
q-93 17 -174 57q-77 38 -124 104q-47 67 -47 177zM897 1913l-180 -305h-109l-180 305h68l168 -232l167 232h66z" />
    <glyph glyph-name="scaron" unicode="&#x161;" horiz-adv-x="1091" 
d="M86 725q0 66 24 124q24 59 75 101q52 43 137 69q82 25 202 25q52 0 123 -7q77 -7 150 -39q74 -32 127 -98q53 -67 53 -185v-25h-158v29q0 62 -25 100t-67 60q-36 19 -92 27q-48 7 -105 7q-82 0 -137 -15q-54 -15 -88 -41q-32 -25 -47 -58q-14 -31 -14 -68q0 -49 26 -75
q29 -29 70 -43t100 -22q39 -5 119 -11q48 -4 156 -16q76 -9 144 -37q64 -27 106 -81q41 -53 41 -147q0 -145 -114 -232t-347 -87q-77 0 -155 13q-82 14 -148 52q-67 39 -113 109q-45 69 -45 182v24h160v-28q0 -66 23 -106q23 -41 65 -67q40 -25 97 -37q52 -11 122 -11
q152 0 225 50q72 50 72 136q0 52 -29 83q-29 30 -75 45q-47 15 -105 21q-80 8 -119 9q-82 7 -151 16q-76 10 -141 38q-60 26 -102 79q-40 50 -40 137zM760 1503l-180 -305h-109l-180 305h67l168 -231l168 231h66z" />
    <glyph glyph-name="Ydieresis" unicode="&#x178;" horiz-adv-x="1374" 
d="M238 1434l413 -572q27 -44 27 -90h22q0 51 27 90l414 572h188l-561 -775v-659h-158v659l-563 775h191zM500 1661q0 33 19 52q20 20 54 20q30 0 52 -20q20 -19 20 -52t-20 -53q-21 -21 -52 -21q-35 0 -54 21q-19 20 -19 53zM733 1661q0 32 20 52t54 20q32 0 52 -20t20 -52
q0 -31 -20 -53q-19 -21 -52 -21q-35 0 -54 21q-20 22 -20 53z" />
    <glyph glyph-name="Zcaron" unicode="&#x17d;" horiz-adv-x="1185" 
d="M78 1434h989v-140l-774 -1155h815v-139h-1006v139l777 1155h-801v140zM829 1892l-180 -305h-108l-181 305h68l168 -231l168 231h65z" />
    <glyph glyph-name="zcaron" unicode="&#x17e;" horiz-adv-x="933" 
d="M76 1024h749v-141l-546 -744h577v-139h-774v139l547 744h-553v141zM702 1483l-180 -305h-108l-181 305h68l168 -232l168 232h65z" />
    <glyph glyph-name="circumflex" unicode="&#x2c6;" horiz-adv-x="557" 
d="M279 1462l-168 -231h-68l180 305h109l180 -305h-66z" />
    <glyph glyph-name="caron" unicode="&#x2c7;" horiz-adv-x="557" 
d="M512 1536l-180 -305h-109l-180 305h68l168 -231l167 231h66z" />
    <glyph glyph-name="ring" unicode="&#x2da;" horiz-adv-x="546" 
d="M86 1376q0 82 51 131q50 49 135 49q88 0 137 -49q50 -50 50 -131t-50 -131q-49 -49 -137 -49q-85 0 -135 49q-51 49 -51 131zM168 1376q0 -52 29 -83q28 -29 75 -29q48 0 76 29q29 31 29 83q0 53 -29 84t-76 31q-46 0 -75 -31t-29 -84z" />
    <glyph glyph-name="tilde" unicode="&#x2dc;" horiz-adv-x="585" 
d="M389 1343q28 0 43 24q14 22 14 83h64v-51q0 -49 -25 -93q-24 -42 -94 -42q-39 0 -65 17q-25 17 -47 37q-28 26 -39 37q-17 17 -43 17q-30 0 -44 -23q-16 -26 -16 -81h-61v51q0 51 24 93t95 42q39 0 65 -17q27 -18 47 -38q7 -7 20 -19.5t19 -18.5q18 -18 43 -18z" />
    <glyph glyph-name="endash" unicode="&#x2013;" horiz-adv-x="829" 
d="M743 725v-137h-657v137h657z" />
    <glyph glyph-name="emdash" unicode="&#x2014;" horiz-adv-x="2009" 
d="M1923 725v-137h-1837v137h1837z" />
    <glyph glyph-name="quoteleft" unicode="&#x2018;" horiz-adv-x="409" 
d="M70 1108l168 428h102l-113 -428h-157z" />
    <glyph glyph-name="quoteright" unicode="&#x2019;" horiz-adv-x="409" 
d="M340 1536l-168 -428h-102l112 428h158z" />
    <glyph glyph-name="quotesinglbase" unicode="&#x201a;" horiz-adv-x="409" 
d="M340 186l-168 -428h-102l112 428h158z" />
    <glyph glyph-name="quotedblleft" unicode="&#x201c;" horiz-adv-x="700" 
d="M358 1108l168 428h103l-111 -428h-160zM70 1108l168 428h102l-113 -428h-157z" />
    <glyph glyph-name="quotedblright" unicode="&#x201d;" horiz-adv-x="700" 
d="M340 1536l-168 -428h-102l112 428h158zM629 1536l-168 -428h-103l113 428h158z" />
    <glyph glyph-name="quotedblbase" unicode="&#x201e;" horiz-adv-x="700" 
d="M340 186l-168 -428h-102l112 428h158zM629 186l-168 -428h-103l113 428h158z" />
    <glyph glyph-name="dagger" unicode="&#x2020;" horiz-adv-x="825" 
d="M344 758q0 55 9 106q8 43 20 105q-66 -14 -99 -20q-50 -9 -96 -9h-92v135h92q46 0 96 -9q66 -12 97 -19q-13 55 -19 104q-8 64 -8 168v115h139v-115q0 -108 -9 -168q-9 -63 -19 -104q31 7 97 19q50 9 97 9h90v-135h-90q-47 0 -97 9q-33 6 -99 20q3 -16 9.5 -51.5
t10.5 -53.5q10 -49 10 -106v-996h-139v996z" />
    <glyph glyph-name="daggerdbl" unicode="&#x2021;" horiz-adv-x="825" 
d="M178 1018q49 0 96 -10q66 -14 97 -21q-1 5 -4.5 21.5t-5.5 26.5q-4 21 -9 58q-4 31 -6 72q-2 54 -2 97v172h139v-172q0 -56 -3 -97q-4 -48 -7 -72q-5 -37 -9 -58q-4 -25 -9 -48q31 7 97 21q47 10 97 10h90v-137h-90q-50 0 -97 10q-16 4 -49 10t-50 10q19 -99 20 -105
q10 -47 10 -108v-198q0 -61 -10 -108q-1 -6 -20 -105q17 4 50 10.5t49 9.5q47 10 97 10h90v-137h-90q-50 0 -97 10q-66 14 -97 21q9 -37 19 -106q9 -60 9 -168v-173h-139v173q0 108 9 168q4 24 10.5 62.5t7.5 43.5q-31 -7 -97 -21q-47 -10 -96 -10h-92v137h92q50 0 97 -10
q13 -3 47 -9.5t51 -10.5q-2 11 -9.5 48.5t-10.5 56.5q-9 49 -9 108v198q0 59 9 108q6 33 20 103q-33 -7 -99 -19q-50 -9 -96 -9h-92v137h92z" />
    <glyph glyph-name="bullet" unicode="&#x2022;" horiz-adv-x="454" 
d="M86 575q0 65 39 102q40 38 104 38t102 -38t38 -102t-38 -104q-37 -39 -102 -39t-104 39t-39 104z" />
    <glyph glyph-name="ellipsis" unicode="&#x2026;" horiz-adv-x="1130" 
d="M86 84q0 45 28 73q27 27 74 27q48 0 75 -27q28 -28 28 -73q0 -46 -28 -76q-27 -28 -75 -28q-47 0 -74 28q-28 30 -28 76zM463 84q0 46 27 73t75 27t75 -27q28 -28 28 -73q0 -46 -28 -76q-27 -28 -75 -28t-75 28t-27 76zM840 84q0 46 27 73t75 27t75 -27t27 -73
q0 -47 -27 -76q-27 -28 -75 -28t-75 28t-27 76z" />
    <glyph glyph-name="guilsinglleft" unicode="&#x2039;" horiz-adv-x="483" 
d="M84 561l313 328v-164l-161 -152q-3 -3 -33 -29q-23 -20 -39 -20v-24q16 0 36 -17q19 -16 29 -26l168 -158v-162l-313 326v98z" />
    <glyph glyph-name="guilsinglright" unicode="&#x203a;" horiz-adv-x="483" 
d="M84 137v162l170 158q4 4 30 26q20 17 35 17v24q-15 0 -38 20q-30 26 -33 29l-164 152v164l313 -328v-98z" />
    <glyph glyph-name="Euro" unicode="&#x20ac;" horiz-adv-x="1576" 
d="M219 717v36q0 11 2 35h-145v115h157q21 125 71 229q49 100 132 173q81 70 195 110q113 39 256 39q253 0 400 -117t204 -319l-156 -29q-47 154 -152 240q-106 86 -296 86q-215 0 -336 -111q-120 -110 -158 -301h592v-115h-606q-2 -24 -2 -35v-36v-36q0 -12 2 -36h606v-115
h-592q38 -192 158 -300q121 -109 336 -109q192 0 296 85q106 86 152 238l156 -28q-57 -203 -204 -320q-146 -116 -400 -116q-146 0 -256 38q-113 39 -195 111q-83 73 -132 173q-51 104 -71 228h-157v115h145q-2 24 -2 36v36z" />
    <glyph glyph-name="trademark" unicode="&#x2122;" horiz-adv-x="1685" 
d="M78 1434h645v-109h-260v-602h-119v602h-266v109zM840 1434h182l197 -592l196 592h182v-711h-116v573l-193 -573h-139l-191 573v-573h-118v711z" />
    <glyph glyph-name="arrowleft" unicode="&#x2190;" horiz-adv-x="1605" 
d="M86 784l948 602v-163l-618 -400q-37 -24 -62 -30l8 -21q15 16 47 20q35 5 72 5h1039v-160h-1039q-37 0 -72 5q-32 4 -47 20l-8 -21q22 -6 62 -31l618 -399v-164l-948 602v135z" />
    <glyph glyph-name="arrowup" unicode="&#x2191;" horiz-adv-x="1511" 
d="M823 1434l602 -949h-163l-400 619q-26 41 -31 63l-22 -10q14 -14 20 -46q7 -37 7 -73v-1038h-160v1038q0 38 5 73q5 31 19 46l-20 10q-5 -22 -31 -63l-399 -619h-164l602 949h135z" />
    <glyph glyph-name="arrowright" unicode="&#x2192;" horiz-adv-x="1605" 
d="M1520 784v-135l-949 -602v164l619 399q41 26 63 31l-10 21q-16 -16 -46 -20q-35 -5 -73 -5h-1038v160h1038q38 0 73 -5q30 -4 46 -20l10 21q-25 5 -63 30l-619 400v163z" />
    <glyph glyph-name="arrowdown" unicode="&#x2193;" horiz-adv-x="1511" 
d="M823 0h-135l-602 948h164l399 -618q26 -40 31 -64l20 10q-14 14 -19 47q-5 35 -5 72v1039h160v-1039q0 -35 -7 -72q-6 -33 -20 -47l22 -10q5 24 31 64l400 618h163z" />
    <glyph glyph-name="arrowboth" unicode="&#x2194;" horiz-adv-x="2379" 
d="M481 637q-37 0 -72 5q-32 4 -47 20l-10 -21q17 -5 29 -11q4 -2 9.5 -5t13 -7.5l12.5 -7.5l618 -399v-164l-948 602v135l948 602v-163l-618 -400q-21 -12 -35 -19q-11 -6 -29 -11l10 -21q15 16 47 20q35 5 72 5h1420q37 0 72 -5q30 -4 46 -20l9 21q-23 6 -62 30l-618 400
v163l948 -602v-135l-948 -602v164l618 399q38 26 62 31l-9 21q-16 -16 -46 -20q-35 -5 -72 -5h-1420z" />
    <glyph glyph-name="arrowupdn" unicode="&#x2195;" horiz-adv-x="1511" 
d="M678 1171q0 39 5 72q5 31 19 45l-22 10q-6 -25 -29 -61l-393 -590h-172l602 889h135l602 -889h-170l-393 590q-26 35 -31 61l-22 -10q14 -14 19 -45q6 -40 6 -72v-1323q0 -30 -6 -72q-4 -31 -19 -46l22 -9q3 8 11 28q8 19 20 34l393 590h170l-602 -889h-135l-602 889h172
l393 -590q13 -20 19 -34q2 -6 5.5 -15.5t4.5 -12.5l22 9q-14 15 -19 46q-5 35 -5 72v1323z" />
    <glyph glyph-name="minus" unicode="&#x2212;" horiz-adv-x="1218" 
d="M1133 725v-137h-1047v137h1047z" />
    <glyph glyph-name="triagup" unicode="&#x25b2;" horiz-adv-x="731" 
d="M645 313h-559l279 441z" />
    <glyph glyph-name="triagrt" unicode="&#x25ba;" horiz-adv-x="614" 
d="M86 254v559l442 -281z" />
    <glyph glyph-name="triagdn" unicode="&#x25bc;" horiz-adv-x="731" 
d="M86 754h559l-280 -441z" />
    <glyph glyph-name="triaglf" unicode="&#x25c4;" horiz-adv-x="614" 
d="M528 813v-559l-442 278z" />
    <glyph glyph-name="smileface" unicode="&#x263a;" horiz-adv-x="1644" 
d="M84 717q0 164 53 302q51 133 150 232t232 150q138 53 302 53t302 -53q135 -52 233 -150q97 -97 149 -232q54 -140 54 -302t-54 -302q-53 -136 -149 -233q-96 -96 -233 -149q-138 -53 -302 -53t-302 53q-135 52 -232 149q-98 98 -150 233q-53 138 -53 302zM178 717
q0 -147 45 -268q44 -119 128 -206q82 -85 202 -132q122 -48 268 -48t270 48q119 46 202 132q85 88 127 206q44 123 44 268t-44 268q-42 118 -127 206q-83 86 -202 132q-121 47 -270 47q-148 0 -268 -47t-202 -132q-84 -87 -128 -206q-45 -121 -45 -268zM717 948
q0 -44 -31 -75q-29 -29 -74 -29q-44 0 -73 29q-31 31 -31 75q0 43 31 74t73 31q43 0 74 -31t31 -74zM1137 948q0 -44 -31 -75q-29 -29 -74 -29t-74 29q-30 30 -30 75q0 44 30 74q31 31 74 31t74 -31t31 -74zM821 422q92 0 159 22q68 22 115 63q45 39 69 92t24 112h88
q0 -87 -35 -157q-34 -68 -95 -117q-58 -46 -144 -73q-84 -26 -181 -26q-95 0 -179 26t-143 73q-63 50 -96 117q-34 68 -34 157h88q0 -62 23 -112q24 -52 70 -92q46 -41 114 -63q66 -22 157 -22z" />
    <glyph glyph-name="invsmileface" unicode="&#x263b;" horiz-adv-x="1644" 
d="M84 717q0 164 53 302q51 133 150 232t232 150q138 53 302 53t302 -53q135 -52 233 -150q97 -97 149 -232q54 -140 54 -302t-54 -302q-53 -136 -149 -233q-96 -96 -233 -149q-138 -53 -302 -53t-302 53q-135 52 -232 149q-98 98 -150 233q-53 138 -53 302zM717 948
q0 43 -31 74t-74 31q-42 0 -73 -31t-31 -74q0 -44 31 -75q29 -29 73 -29q45 0 74 29q31 31 31 75zM1137 948q0 43 -31 74t-74 31t-74 -31q-30 -30 -30 -74q0 -45 30 -75q29 -29 74 -29t74 29q31 31 31 75zM821 422q-91 0 -157 22q-68 22 -114 63q-46 40 -70 92
q-23 50 -23 112h-88q0 -89 34 -157q33 -67 96 -117q59 -47 143 -73t179 -26q97 0 181 26q86 27 144 73q61 49 95 117q35 70 35 157h-88q0 -59 -24 -112t-69 -92q-47 -41 -115 -63q-67 -22 -159 -22z" />
    <glyph glyph-name="uniE000" unicode="&#xe000;" horiz-adv-x="1187" 
d="M1100 0h-158v57q0 70 14 116q17 57 27 85l-22 8q-27 -85 -69 -142t-94 -88q-54 -32 -111 -44q-59 -12 -116 -12q-122 0 -209 39q-89 40 -151 111t-93 169q-32 101 -32 213t32 213q31 98 93 169t151 111q87 39 209 39q57 0 116 -12q57 -12 111 -44q52 -31 94 -88t69 -142
l22 10q-12 34 -27 84q-14 46 -14 117v55h158v-1024zM942 596q0 143 -91 227t-251 84q-81 0 -145 -26q-66 -27 -113 -77q-48 -51 -73 -124q-25 -72 -25 -168t25 -168q25 -73 73 -125q46 -51 113 -78q64 -26 145 -26q159 0 251 86q91 85 91 227v168z" />
    </font>
</defs>
</svg>
