<svg width="80" height="48" viewBox="0 0 80 48" fill="none" xmlns="http://www.w3.org/2000/svg">
<path fill-rule="evenodd" clip-rule="evenodd" d="M22.2323 15.1091C21.576 15.9184 20.5259 16.5568 19.4758 16.4656C19.3445 15.3713 19.8586 14.2087 20.4603 13.4906C21.1166 12.6585 22.2652 12.0657 23.1949 12.0201C23.3043 13.16 22.8777 14.2771 22.2323 15.1091ZM23.1839 16.6821C22.2588 16.6266 21.4146 16.972 20.7328 17.251C20.294 17.4305 19.9224 17.5826 19.6398 17.5826C19.3225 17.5826 18.9356 17.4224 18.5012 17.2426C17.932 17.0069 17.2812 16.7375 16.5988 16.7505C15.0346 16.7733 13.5797 17.6966 12.7812 19.167C11.1404 22.1078 12.3546 26.462 13.9407 28.8557C14.7173 30.0412 15.6471 31.3406 16.8723 31.295C17.4112 31.2738 17.799 31.1024 18.2002 30.9249C18.6622 30.7207 19.142 30.5085 19.8913 30.5085C20.6147 30.5085 21.0736 30.7152 21.5141 30.9135C21.9329 31.1022 22.3352 31.2833 22.9323 31.2722C24.2012 31.2494 24.9997 30.0868 25.7764 28.9013C26.6145 27.629 26.9828 26.3873 27.0387 26.1989L27.0453 26.1771C27.0439 26.1757 27.0336 26.1707 27.0153 26.162C26.7351 26.0283 24.5937 25.0068 24.5731 22.2674C24.5525 19.968 26.2717 18.803 26.5423 18.6196C26.5588 18.6085 26.5699 18.601 26.5749 18.597C25.481 16.9101 23.7746 16.7277 23.1839 16.6821ZM31.9678 31.1468V13.3765H38.367C41.6705 13.3765 43.9785 15.7474 43.9785 19.2126C43.9785 22.6777 41.6267 25.0714 38.2794 25.0714H34.615V31.1468H31.9678ZM34.6147 15.7019H37.6666C39.9638 15.7019 41.2764 16.9786 41.2764 19.2241C41.2764 21.4696 39.9638 22.7576 37.6557 22.7576H34.6147V15.7019ZM52.7187 29.0153C52.0186 30.4059 50.4763 31.2836 48.8136 31.2836C46.3524 31.2836 44.635 29.7562 44.635 27.4537C44.635 25.174 46.2977 23.8631 49.3714 23.6694L52.6749 23.4642V22.4839C52.6749 21.0363 51.767 20.2498 50.1481 20.2498C48.8136 20.2498 47.84 20.9679 47.6431 22.0622H45.2585C45.3351 19.7597 47.4134 18.0841 50.2247 18.0841C53.2547 18.0841 55.2237 19.7369 55.2237 22.3015V31.1468H52.7734V29.0153H52.7187ZM49.5244 29.175C48.1133 29.175 47.2164 28.4683 47.2164 27.3854C47.2164 26.2684 48.0805 25.6186 49.7323 25.5161L52.6748 25.3223V26.3253C52.6748 27.9895 51.3184 29.175 49.5244 29.175ZM63.351 31.8422C62.29 34.954 61.0758 35.9798 58.4942 35.9798C58.2973 35.9798 57.641 35.957 57.4879 35.9115V33.7799C57.652 33.8027 58.0567 33.8255 58.2645 33.8255C59.435 33.8255 60.0913 33.3126 60.496 31.979L60.7367 31.1925L56.2518 18.2551H59.0193L62.1368 28.7532H62.1915L65.3091 18.2551H68L63.351 31.8422Z" fill="black"/>
</svg>
