<svg width="32" height="32" viewBox="0 0 32 32" fill="none" xmlns="http://www.w3.org/2000/svg">
<path d="M7 7.225C7 7.10074 7.10074 7 7.225 7H10V10H7V7.225Z" fill="#191919"/>
<path d="M7 12H10V15H7V12Z" fill="#191919"/>
<path d="M10 17H7V20H10V17Z" fill="#191919"/>
<path d="M7 22H10V25H7.225C7.10074 25 7 24.8993 7 24.775V22Z" fill="#191919"/>
<path d="M20 7H17V10H20V7Z" fill="#191919"/>
<path d="M17 12H20V15H17V12Z" fill="#191919"/>
<path d="M20 17H17V20H20V17Z" fill="#191919"/>
<path d="M17 22H20V25H17V22Z" fill="#191919"/>
<path d="M15 7H12V10H15V7Z" fill="#191919"/>
<path d="M12 12H15V15H12V12Z" fill="#191919"/>
<path d="M15 17H12V20H15V17Z" fill="#191919"/>
<path d="M12 22H15V25H12V22Z" fill="#191919"/>
<path d="M25 7.225C25 7.10074 24.8993 7 24.775 7H22V10H25V7.225Z" fill="#191919"/>
<path d="M22 12H25V15H22V12Z" fill="#191919"/>
<path d="M25 17H22V20H25V17Z" fill="#191919"/>
<path d="M22 22H25V24.775C25 24.8993 24.8993 25 24.775 25H22V22Z" fill="#191919"/>
</svg>
