<svg width="32" height="32" viewBox="0 0 32 32" fill="none" xmlns="http://www.w3.org/2000/svg">
<path fill-rule="evenodd" clip-rule="evenodd" d="M4 4.3C4 4.13432 4.13431 4 4.3 4H14.6667V14.6667H4V4.3ZM7 11.6667V7H11.6667V11.6667H7Z" fill="#191919"/>
<path fill-rule="evenodd" clip-rule="evenodd" d="M4 17.3333H14.6667V28H4.3C4.13432 28 4 27.8657 4 27.7V17.3333ZM7 20.3333H11.6667V25H7V20.3333Z" fill="#191919"/>
<path fill-rule="evenodd" clip-rule="evenodd" d="M17.3334 4V14.6667H28V4.3C28 4.13431 27.8657 4 27.7 4H17.3334ZM25 7H20.3334V11.6667H25V7Z" fill="#191919"/>
<path fill-rule="evenodd" clip-rule="evenodd" d="M17.3334 17.3333H28V27.7C28 27.8657 27.8657 28 27.7 28H17.3334V17.3333ZM20.3334 20.3333H25V25H20.3334V20.3333Z" fill="#191919"/>
</svg>
