<?xml version="1.0" encoding="utf-8"?>
<!-- Generator: Adobe Illustrator 16.0.0, SVG Export Plug-In . SVG Version: 6.00 Build 0)  -->
<!DOCTYPE svg PUBLIC "-//W3C//DTD SVG 1.1//EN" "http://www.w3.org/Graphics/SVG/1.1/DTD/svg11.dtd">
<svg version="1.1" id="Layer_1" xmlns="http://www.w3.org/2000/svg" xmlns:xlink="http://www.w3.org/1999/xlink" x="0px" y="0px"
	 width="559.021px" height="350.715px" viewBox="0 0 559.021 350.715" enable-background="new 0 0 559.021 350.715"
	 xml:space="preserve">
<polygon fill="#7B7B7B" points="331.897,0 270.339,0.211 270.339,60.924 288.207,60.924 288.207,17.868 314.028,17.868 
	314.028,121.848 331.897,96.468 "/>
<polygon fill-rule="evenodd" clip-rule="evenodd" fill="#7B7B7B" points="227.125,147.862 227.125,51.394 244.993,26.013 
	244.993,129.994 270.815,129.994 270.815,86.938 288.684,86.938 288.684,147.651 "/>
<polygon fill="#7B7B7B" points="53.914,211.73 53.914,243.85 9.75,243.85 9.75,211.73 0,211.73 0,292.027 9.75,292.027 
	9.75,253.026 53.914,253.026 53.914,292.027 63.664,292.027 63.664,211.73 "/>
<polygon fill="#7B7B7B" points="132.958,253.026 132.958,282.851 169.09,282.851 169.09,292.028 123.208,292.028 123.208,211.73 
	169.09,211.73 169.09,220.908 132.958,220.908 132.958,243.85 166.796,243.85 166.796,253.026 "/>
<g>
	<defs>
		<rect id="SVGID_1_" width="559.021" height="350.715"/>
	</defs>
	<clipPath id="SVGID_2_">
		<use xlink:href="#SVGID_1_"  overflow="visible"/>
	</clipPath>
	<path clip-path="url(#SVGID_2_)" fill="#7B7B7B" d="M231.159,266.104c2.523,5.813,5.467,10.248,8.832,13.307
		c3.364,3.059,7.417,4.589,12.159,4.589c4.512,0,7.934-1.148,10.267-3.442c2.332-2.294,3.499-5.467,3.499-9.521
		c0-2.447-0.498-4.646-1.491-6.596c-0.996-1.95-2.524-3.613-4.589-4.989c-2.065-1.377-3.996-2.504-5.792-3.384
		c-1.798-0.879-4.113-1.817-6.941-2.812c-13.46-4.817-20.188-12.349-20.188-22.597c0-5.965,2.217-10.801,6.652-14.511
		c4.435-3.709,9.981-5.564,16.634-5.564c5.965,0,11.126,1.721,15.485,5.163c4.36,3.44,7.456,7.456,9.291,12.043l-7.914,5.277
		c-2.142-4.053-4.474-7.265-6.998-9.637c-2.523-2.368-5.774-3.556-9.75-3.556c-4.054,0-7.265,1.033-9.635,3.098
		c-2.372,2.065-3.556,4.857-3.556,8.373c0,3.52,1.566,6.367,4.703,8.546c3.135,2.181,7.761,4.417,13.88,6.712
		c13.535,4.972,20.304,12.848,20.304,23.63c0,6.96-2.123,12.522-6.368,16.689c-4.244,4.169-10.265,6.252-18.066,6.252
		c-6.424,0-12.159-2.008-17.206-6.021c-5.048-4.016-8.872-9.388-11.472-16.117L231.159,266.104z"/>
	<polygon clip-path="url(#SVGID_2_)" fill="#7B7B7B" points="322.361,220.908 322.361,211.73 373.406,211.73 373.406,220.908 
		352.758,220.908 352.758,292.027 343.008,292.027 343.008,220.908 	"/>
	<rect x="424.92" y="211.73" clip-path="url(#SVGID_2_)" fill="#7B7B7B" width="9.75" height="80.298"/>
	<path clip-path="url(#SVGID_2_)" fill="#7B7B7B" d="M505.567,267.939l-10.209,24.089h-10.897l37.281-84.313l37.28,84.313h-10.897
		l-10.209-24.089H505.567z M509.468,258.762h24.548l-12.273-28.906L509.468,258.762z"/>
	<path clip-path="url(#SVGID_2_)" fill="#7B7B7B" d="M56.614,342.455c0.072,1.331,0.375,2.412,0.908,3.243
		c1.016,1.556,2.806,2.331,5.37,2.331c1.149,0,2.196-0.17,3.139-0.511c1.827-0.659,2.74-1.841,2.74-3.545
		c0-1.279-0.387-2.188-1.161-2.732c-0.784-0.531-2.012-0.995-3.684-1.39l-3.079-0.718c-2.011-0.47-3.435-0.986-4.271-1.55
		c-1.444-0.98-2.166-2.443-2.166-4.394c0-2.108,0.709-3.839,2.129-5.19c1.42-1.354,3.43-2.029,6.032-2.029
		c2.394,0,4.428,0.594,6.101,1.782c1.673,1.187,2.51,3.085,2.51,5.692h-2.986c-0.154-1.256-0.481-2.219-0.981-2.89
		c-0.929-1.226-2.506-1.837-4.732-1.837c-1.797,0-3.089,0.394-3.875,1.182c-0.786,0.787-1.18,1.703-1.18,2.747
		c0,1.151,0.465,1.992,1.394,2.525c0.609,0.34,1.986,0.765,4.133,1.276l3.188,0.75c1.537,0.362,2.724,0.859,3.559,1.485
		c1.445,1.098,2.167,2.69,2.167,4.778c0,2.598-0.922,4.456-2.765,5.573c-1.844,1.118-3.985,1.68-6.426,1.68
		c-2.846,0-5.073-0.746-6.683-2.238c-1.611-1.479-2.4-3.488-2.368-6.022H56.614z"/>
	<path clip-path="url(#SVGID_2_)" fill="#7B7B7B" d="M91.654,326.563h4.554l6.747,19.839l6.7-19.839h4.522v23.466h-3.035v-13.852
		c0-0.478,0.011-1.271,0.033-2.379c0.021-1.106,0.031-2.295,0.031-3.562l-6.699,19.792h-3.15l-6.764-19.792v0.719
		c0,0.575,0.016,1.451,0.048,2.627c0.032,1.176,0.048,2.043,0.048,2.595v13.852h-3.035V326.563z"/>
	<path clip-path="url(#SVGID_2_)" fill="#7B7B7B" d="M141.182,326.562h3.594l8.513,23.466h-3.482l-2.38-7.027h-9.279l-2.541,7.027
		h-3.258L141.182,326.562z M146.406,340.412l-3.564-10.367l-3.785,10.367H146.406z"/>
	<path clip-path="url(#SVGID_2_)" fill="#7B7B7B" d="M171.94,326.563h10.667c1.757,0,3.204,0.261,4.345,0.782
		c2.164,1,3.247,2.85,3.247,5.542c0,1.406-0.29,2.558-0.871,3.45c-0.581,0.896-1.393,1.615-2.435,2.157
		c0.914,0.374,1.604,0.863,2.067,1.469c0.464,0.608,0.722,1.593,0.776,2.956l0.111,3.147c0.032,0.894,0.106,1.559,0.224,1.996
		c0.191,0.745,0.533,1.225,1.022,1.438v0.528h-3.897c-0.107-0.202-0.192-0.463-0.255-0.784c-0.065-0.319-0.117-0.937-0.16-1.853
		l-0.193-3.913c-0.072-1.533-0.625-2.563-1.66-3.082c-0.59-0.289-1.516-0.434-2.777-0.434h-7.031v10.065h-3.18V326.563z
		 M182.266,337.313c1.449,0,2.597-0.299,3.441-0.895c0.843-0.597,1.266-1.672,1.266-3.227c0-1.672-0.59-2.813-1.771-3.419
		c-0.631-0.319-1.476-0.479-2.532-0.479h-7.549v8.02H182.266z"/>
	<polygon clip-path="url(#SVGID_2_)" fill="#7B7B7B" points="227.619,326.563 227.619,329.357 219.713,329.357 219.713,350.028 
		216.501,350.028 216.501,329.357 208.594,329.357 208.594,326.563 	"/>
	<path clip-path="url(#SVGID_2_)" fill="#7B7B7B" d="M270.526,326.563h9.379c3.186,0,5.654,1.145,7.41,3.435
		c1.565,2.065,2.349,4.711,2.349,7.938c0,2.492-0.463,4.744-1.388,6.758c-1.629,3.557-4.431,5.336-8.402,5.336h-9.348V326.563z
		 M279.282,347.313c1.052,0,1.916-0.111,2.593-0.336c1.207-0.415,2.197-1.214,2.968-2.396c0.615-0.949,1.057-2.163,1.327-3.643
		c0.157-0.885,0.234-1.703,0.234-2.46c0-2.907-0.565-5.165-1.694-6.772c-1.13-1.608-2.949-2.413-5.459-2.413h-5.513v18.02H279.282z"
		/>
	<polygon clip-path="url(#SVGID_2_)" fill="#7B7B7B" points="309.688,326.563 326.716,326.563 326.716,329.438 312.787,329.438 
		312.787,336.563 325.661,336.563 325.661,339.277 312.787,339.277 312.787,347.232 326.955,347.232 326.955,350.028 
		309.688,350.028 	"/>
	<path clip-path="url(#SVGID_2_)" fill="#7B7B7B" d="M348.657,342.455c0.072,1.331,0.374,2.412,0.907,3.243
		c1.016,1.556,2.806,2.331,5.371,2.331c1.147,0,2.194-0.17,3.138-0.511c1.826-0.659,2.74-1.841,2.74-3.545
		c0-1.279-0.388-2.188-1.161-2.732c-0.785-0.531-2.013-0.995-3.684-1.39l-3.079-0.718c-2.012-0.47-3.436-0.986-4.271-1.55
		c-1.444-0.98-2.167-2.443-2.167-4.394c0-2.108,0.711-3.839,2.13-5.19c1.42-1.354,3.43-2.029,6.031-2.029
		c2.394,0,4.427,0.594,6.102,1.782c1.672,1.187,2.511,3.085,2.511,5.692h-2.988c-0.153-1.256-0.479-2.219-0.98-2.89
		c-0.928-1.226-2.506-1.837-4.731-1.837c-1.798,0-3.089,0.394-3.875,1.182c-0.785,0.787-1.18,1.703-1.18,2.747
		c0,1.151,0.465,1.992,1.395,2.525c0.607,0.34,1.985,0.765,4.131,1.276l3.189,0.75c1.537,0.362,2.724,0.859,3.56,1.485
		c1.444,1.098,2.166,2.69,2.166,4.778c0,2.598-0.921,4.456-2.765,5.573c-1.844,1.118-3.985,1.68-6.428,1.68
		c-2.845,0-5.072-0.746-6.681-2.238c-1.61-1.479-2.401-3.488-2.369-6.022H348.657z"/>
	<rect x="384.495" y="326.562" clip-path="url(#SVGID_2_)" fill="#7B7B7B" width="3.212" height="23.467"/>
	<path clip-path="url(#SVGID_2_)" fill="#7B7B7B" d="M423.861,327.232c2.299,1.225,3.705,3.37,4.22,6.437h-3.146
		c-0.377-1.713-1.153-2.962-2.331-3.744c-1.18-0.784-2.665-1.174-4.458-1.174c-2.127,0-3.919,0.814-5.373,2.443
		c-1.455,1.63-2.183,4.059-2.183,7.283c0,2.79,0.6,5.063,1.801,6.813c1.199,1.753,3.155,2.628,5.869,2.628
		c2.077,0,3.797-0.615,5.158-1.845c1.362-1.23,2.059-3.221,2.09-5.967h-7.346v-2.637h10.302v12.558h-2.044l-0.768-3.021
		c-1.057,1.184-1.994,2.002-2.813,2.461c-1.373,0.787-3.115,1.182-5.232,1.182c-2.734,0-5.087-0.899-7.055-2.699
		c-2.147-2.257-3.222-5.357-3.222-9.297c0-3.931,1.049-7.056,3.148-9.377c1.995-2.216,4.576-3.323,7.746-3.323
		C420.398,325.954,422.276,326.381,423.861,327.232"/>
	<polygon clip-path="url(#SVGID_2_)" fill="#7B7B7B" points="449.063,326.563 452.809,326.563 464.511,345.521 464.511,326.563 
		467.545,326.563 467.545,350.028 463.975,350.028 452.098,331.091 452.098,350.028 449.063,350.028 	"/>
	<path clip-path="url(#SVGID_2_)" fill="#7B7B7B" d="M490.143,342.455c0.071,1.331,0.373,2.412,0.906,3.243
		c1.017,1.556,2.807,2.331,5.371,2.331c1.147,0,2.194-0.17,3.139-0.511c1.826-0.659,2.739-1.841,2.739-3.545
		c0-1.279-0.387-2.188-1.161-2.732c-0.784-0.531-2.012-0.995-3.682-1.39l-3.08-0.718c-2.012-0.47-3.437-0.986-4.271-1.55
		c-1.444-0.98-2.166-2.443-2.166-4.394c0-2.108,0.71-3.839,2.129-5.19c1.42-1.354,3.43-2.029,6.032-2.029
		c2.394,0,4.427,0.594,6.101,1.782c1.672,1.187,2.511,3.085,2.511,5.692h-2.988c-0.152-1.256-0.479-2.219-0.979-2.89
		c-0.929-1.226-2.507-1.837-4.731-1.837c-1.798,0-3.089,0.394-3.875,1.182c-0.786,0.787-1.18,1.703-1.18,2.747
		c0,1.151,0.464,1.992,1.394,2.525c0.607,0.34,1.985,0.765,4.132,1.276l3.188,0.75c1.537,0.362,2.724,0.859,3.561,1.485
		c1.443,1.098,2.166,2.69,2.166,4.778c0,2.598-0.922,4.456-2.765,5.573c-1.843,1.118-3.985,1.68-6.427,1.68
		c-2.846,0-5.073-0.746-6.683-2.238c-1.61-1.479-2.401-3.488-2.368-6.022H490.143z"/>
</g>
</svg>
