<svg width="80" height="48" viewBox="0 0 80 48" fill="none" xmlns="http://www.w3.org/2000/svg">
<path d="M70.1779 27.4674C69.1716 27.4674 68.3559 28.2904 68.3559 29.3059C68.3559 30.3211 69.1716 31.1444 70.1779 31.1444C71.1841 31.1444 72 30.3212 72 29.3059C72 28.2904 71.1842 27.4674 70.1779 27.4674ZM64.1834 26.0459C64.1834 24.6558 63.0059 23.5291 61.5532 23.5291C60.1006 23.5291 58.9229 24.6558 58.9229 26.0459C58.9229 27.4361 60.1004 28.5632 61.5532 28.5632C63.006 28.5632 64.1834 27.4361 64.1834 26.0459ZM64.1932 21.154H67.096V30.9375H64.1932V30.3122C63.3731 30.8766 62.3832 31.2083 61.3155 31.2083C58.4901 31.2083 56.1996 28.8971 56.1996 26.0459C56.1996 23.1947 58.4901 20.8836 61.3155 20.8836C62.3832 20.8836 63.3732 21.2153 64.1932 21.7799V21.154ZM40.9626 22.4284V21.1542H37.9906V30.9375H40.9692V26.3698C40.9692 24.8287 42.6245 24.0004 43.7731 24.0004C43.7849 24.0004 43.7958 24.0015 43.8076 24.0017V21.1549C42.6287 21.1549 41.5445 21.6641 40.9626 22.4284ZM33.5593 26.046C33.5593 24.6558 32.3816 23.5291 30.9289 23.5291C29.4763 23.5291 28.2986 24.6558 28.2986 26.046C28.2986 27.4362 29.4762 28.5632 30.9289 28.5632C32.3816 28.5632 33.5593 27.4362 33.5593 26.046ZM33.5689 21.1541H36.4719V30.9375H33.5689V30.3122C32.7488 30.8766 31.7589 31.2084 30.6914 31.2084C27.8658 31.2084 25.5752 28.8971 25.5752 26.0459C25.5752 23.1947 27.8658 20.8836 30.6914 20.8836C31.759 20.8836 32.7488 21.2154 33.5689 21.7799V21.1541ZM51.0414 20.8909C49.8818 20.8909 48.7843 21.2542 48.0506 22.2564V21.1546H45.1603V30.9376H48.0861V25.7963C48.0861 24.3086 49.0748 23.5801 50.2653 23.5801C51.5411 23.5801 52.2746 24.3491 52.2746 25.7762V30.9376H55.1739V24.7162C55.1739 22.4394 53.38 20.8909 51.0414 20.8909ZM21.3468 30.9376H24.3852V16.7943H21.3468V30.9376ZM8 30.9414H11.2173V16.7917H8V30.9414ZM19.253 16.7917C19.253 19.8549 18.0699 22.7046 15.9619 24.8227L20.409 30.942H16.4353L11.6022 24.2917L12.8495 23.3491C14.9181 21.7855 16.1046 19.3955 16.1046 16.7916L19.253 16.7917Z" fill="#0A0B09"/>
</svg>
