<svg width="40" height="24" viewBox="0 0 40 24" fill="none" xmlns="http://www.w3.org/2000/svg">
<rect x="0.500122" y="0.5" width="38.9999" height="23" rx="1.5" stroke="#DFE0E1"/>
<g clip-path="url(#clip0_1_153380)">
<path d="M9.63223 8.42896H8.05657C8.05921 9.0603 7.91322 9.6834 7.63041 10.2479C7.34759 10.8123 6.93589 11.3023 6.42861 11.6782L5.80505 12.1448L8.21883 15.4396H10.2075L7.98416 12.4077C8.50905 11.887 8.92508 11.267 9.20803 10.5839C9.49098 9.90086 9.63518 9.16831 9.63223 8.42896Z" fill="#191919"/>
<path d="M4.00006 15.4396H5.61327V8.42896H4.00006V15.4396Z" fill="#191919"/>
<path d="M10.6768 15.437H12.1962V8.4303H10.6768V15.437Z" fill="#191919"/>
<path d="M25.5216 10.4606C24.9423 10.4606 24.3938 10.6403 24.0277 11.1311V10.5906H22.5822V15.437H24.0452V12.8891C24.0452 12.1516 24.5387 11.7908 25.1341 11.7908C25.7724 11.7908 26.1385 12.1717 26.1385 12.8784V15.437H27.5881V12.3527C27.5881 11.2249 26.6909 10.4579 25.5216 10.4579V10.4606Z" fill="#191919"/>
<path d="M15.4668 14.2609C15.1272 14.2696 14.7981 14.1431 14.5517 13.9093C14.3053 13.6754 14.1618 13.3534 14.1527 13.0138C14.1713 12.6777 14.3179 12.3614 14.5624 12.13C14.807 11.8987 15.1308 11.7697 15.4675 11.7697C15.8041 11.7697 16.128 11.8987 16.3726 12.13C16.6171 12.3614 16.7637 12.6777 16.7823 13.0138C16.7732 13.3536 16.6295 13.6759 16.3828 13.9098C16.1361 14.1436 15.8066 14.2699 15.4668 14.2609ZM16.7864 10.5906V10.9004C16.4555 10.675 16.0763 10.5304 15.6793 10.4783C15.2823 10.4262 14.8786 10.468 14.5007 10.6005C14.1229 10.7329 13.7814 10.9522 13.5038 11.2407C13.2262 11.5292 13.0202 11.8789 12.9024 12.2616C12.7846 12.6442 12.7583 13.0492 12.8257 13.4439C12.893 13.8386 13.0521 14.212 13.2901 14.5339C13.5281 14.8559 13.8384 15.1175 14.196 15.2976C14.5535 15.4778 14.9484 15.5714 15.3488 15.5711C15.8612 15.5741 16.3624 15.4217 16.7864 15.1339V15.4437H18.2386V10.5906H16.7864Z" fill="#191919"/>
<path d="M20.4835 11.2222V10.5906H18.9977V15.4369H20.4862V13.1747C20.4862 12.4103 21.3136 12 21.8889 12H21.9049V10.5906C21.3163 10.5906 20.7745 10.8427 20.4835 11.2222Z" fill="#191919"/>
<path d="M30.7769 14.2609C30.4373 14.2696 30.1082 14.1431 29.8618 13.9093C29.6154 13.6754 29.4718 13.3534 29.4627 13.0138C29.4813 12.6777 29.6279 12.3614 29.8725 12.13C30.117 11.8987 30.4409 11.7697 30.7776 11.7697C31.1142 11.7697 31.4381 11.8987 31.6826 12.13C31.9272 12.3614 32.0738 12.6777 32.0924 13.0138C32.0833 13.3536 31.9396 13.6759 31.6929 13.9098C31.4462 14.1436 31.1167 14.2699 30.7769 14.2609ZM32.0978 10.5906V10.9004C31.7134 10.6386 31.265 10.4865 30.8007 10.4605C30.3363 10.4346 29.8737 10.5357 29.4626 10.7531C29.0515 10.9705 28.7074 11.2958 28.4674 11.6942C28.2275 12.0925 28.1006 12.5488 28.1006 13.0138C28.1006 13.4789 28.2275 13.9351 28.4674 14.3334C28.7074 14.7318 29.0515 15.0572 29.4626 15.2745C29.8737 15.4919 30.3363 15.593 30.8007 15.5671C31.265 15.5411 31.7134 15.389 32.0978 15.1272V15.437H33.5487V10.5906H32.0978Z" fill="#191919"/>
<path d="M35.0895 13.7178C34.9091 13.7175 34.7327 13.7708 34.5826 13.8708C34.4324 13.9708 34.3154 14.1132 34.2461 14.2798C34.1769 14.4464 34.1587 14.6297 34.1937 14.8067C34.2287 14.9837 34.3155 15.1463 34.4429 15.274C34.5704 15.4016 34.7329 15.4886 34.9098 15.5239C35.0867 15.5592 35.2702 15.5412 35.4369 15.4722C35.6036 15.4033 35.746 15.2864 35.8463 15.1364C35.9466 14.9864 36.0001 14.8101 36.0001 14.6296C36.0003 14.51 35.9768 14.3914 35.9312 14.2808C35.8855 14.1702 35.8184 14.0696 35.7339 13.9849C35.6493 13.9002 35.5489 13.8331 35.4383 13.7872C35.3277 13.7414 35.2092 13.7178 35.0895 13.7178Z" fill="#191919"/>
</g>
<defs>
<clipPath id="clip0_1_153380">
<rect width="32" height="7.1421" fill="white" transform="translate(4.00006 8.42896)"/>
</clipPath>
</defs>
</svg>
