<svg width="49" height="48" viewBox="0 0 49 48" fill="none" xmlns="http://www.w3.org/2000/svg">
<path d="M22.3333 26H26.3333V34H22.3333V26Z" fill="#191919"/>
<path fill-rule="evenodd" clip-rule="evenodd" d="M12.3333 18L12.3333 12C12.3333 7.58172 15.915 4 20.3333 4H28.3333C32.7515 4 36.3333 7.58172 36.3333 12V18H39.7403C40.0717 18 40.3333 18.2686 40.3333 18.6V41.4C40.3333 41.7314 40.0646 42 39.7333 42H8.93325C8.60188 42 8.33325 41.7314 8.33325 41.4V18.6C8.33325 18.2686 8.58988 18 8.92125 18H12.3333ZM16.3333 12C16.3333 9.79086 18.1241 8 20.3333 8L28.3333 8C30.5424 8 32.3333 9.79086 32.3333 12V18H16.3333L16.3333 12ZM12.3333 22V38H36.3333V22H12.3333Z" fill="#191919"/>
</svg>
