<svg width="24" height="24" viewBox="0 0 24 24" fill="none" xmlns="http://www.w3.org/2000/svg">
<g id="Loop-Forward">
<path id="Vector" d="M17 12C17 8.68629 14.3137 6 11 6C7.68629 6 5 8.68629 5 12C5 15.3137 7.68629 18 11 18C11.5974 18 12.1726 17.913 12.7147 17.7517L13.2852 19.6686C12.5599 19.8844 11.7926 20 11 20C6.58172 20 3 16.4183 3 12C3 7.58172 6.58172 4 11 4C15.4183 4 19 7.58172 19 12C19 12.2046 18.9923 12.4076 18.9771 12.6086L20.2929 11.2929L21.7071 12.7071L18 16.4142L14.2929 12.7071L15.7071 11.2929L16.9743 12.56C16.9913 12.3759 17 12.1891 17 12Z" fill="#676D75"/>
</g>
</svg>
