<svg width="80" height="48" viewBox="0 0 80 48" fill="none" xmlns="http://www.w3.org/2000/svg">
<path fill-rule="evenodd" clip-rule="evenodd" d="M62.2164 32.6728V32.1299H62.0749L61.911 32.5028L61.7482 32.1299H61.6058V32.6728H61.7064V32.2634L61.8595 32.6167H61.9636L62.1167 32.2625V32.6728H62.2164ZM61.3182 32.6728V32.2225H61.4998V32.1308H61.0371V32.2225H61.2185V32.6728H61.3182Z" fill="#0099DF"/>
<path fill-rule="evenodd" clip-rule="evenodd" d="M33.8748 12.9952H46.1237V35.0087H33.8748V12.9952Z" fill="#6C6BBD"/>
<path fill-rule="evenodd" clip-rule="evenodd" d="M34.6595 24.0001C34.6595 19.5345 36.7503 15.5567 40.0063 12.9932C37.6253 11.1187 34.6203 10 31.3546 10C23.6234 10 17.3564 16.2679 17.3564 24.0001C17.3564 31.7321 23.6234 38 31.3546 38C34.6203 38 37.6253 36.8813 40.0063 35.0068C36.7503 32.4433 34.6595 28.4655 34.6595 24.0001Z" fill="#EB001B"/>
<path fill-rule="evenodd" clip-rule="evenodd" d="M62.6438 24.0001C62.6438 31.7321 56.3766 38 48.6455 38C45.3797 38 42.3748 36.8813 39.993 35.0068C43.2498 32.4433 45.3405 28.4655 45.3405 24.0001C45.3405 19.5345 43.2498 15.5567 39.993 12.9932C42.3748 11.1187 45.3797 10 48.6455 10C56.3766 10 62.6438 16.2679 62.6438 24.0001Z" fill="#0099DF"/>
</svg>
