<svg width="40" height="24" viewBox="0 0 40 24" fill="none" xmlns="http://www.w3.org/2000/svg">
<rect x="0.5" y="0.5" width="39" height="23" rx="1.5" stroke="#DFE0E1"/>
<path fill-rule="evenodd" clip-rule="evenodd" d="M31.1063 16.3378V16.066H31.0356L30.9537 16.2525L30.8723 16.066H30.8013V16.3378H30.8515V16.1331L30.9281 16.3097H30.9802L31.0567 16.1326V16.3378H31.1063ZM30.6573 16.3378V16.1126H30.7479V16.0667H30.5164V16.1126H30.607V16.3378H30.6573Z" fill="#F79410"/>
<path fill-rule="evenodd" clip-rule="evenodd" d="M23.0624 17.5034H16.9379V6.49674H23.0626L23.0624 17.5034Z" fill="#FF5F00"/>
<path fill-rule="evenodd" clip-rule="evenodd" d="M17.3263 12C17.3263 9.76732 18.3717 7.77842 19.9996 6.49666C18.7676 5.52522 17.243 4.99766 15.6741 5.00001C11.8085 5.00001 8.67493 8.13397 8.67493 12C8.67493 15.866 11.8085 19 15.6741 19C17.243 19.0023 18.7677 18.4748 19.9997 17.5033C18.372 16.2218 17.3263 14.2328 17.3263 12Z" fill="#EB001B"/>
<path fill-rule="evenodd" clip-rule="evenodd" d="M31.3251 12C31.3251 15.866 28.1916 19 24.3261 19C22.7569 19.0023 21.232 18.4748 19.9997 17.5033C21.6281 16.2216 22.6736 14.2328 22.6736 12C22.6736 9.76718 21.6279 7.77842 19.9996 6.49666C21.2318 5.52522 22.7569 4.99773 24.3259 5.00001C28.1915 5.00001 31.3251 8.13397 31.3251 12Z" fill="#F79410"/>
</svg>
