<svg width="80" height="48" viewBox="0 0 80 48" fill="none" xmlns="http://www.w3.org/2000/svg">
<path fill-rule="evenodd" clip-rule="evenodd" d="M62.2127 32.6756V32.132H62.0711L61.9074 32.505L61.7446 32.132H61.6026V32.6756H61.703V32.2661L61.8561 32.6194H61.9604L62.1134 32.2652V32.6756H62.2127ZM61.3146 32.6756V32.2251H61.4958V32.1334H61.0329V32.2251H61.2141V32.6756H61.3146Z" fill="#F79410"/>
<path fill-rule="evenodd" clip-rule="evenodd" d="M46.1249 35.0069H33.8758V12.9935H46.1252L46.1249 35.0069Z" fill="#FF5F00"/>
<path fill-rule="evenodd" clip-rule="evenodd" d="M34.6526 24.0001C34.6526 19.5346 36.7435 15.5568 39.9992 12.9933C37.5352 11.0504 34.4859 9.99532 31.3482 10C23.6169 10 17.3499 16.2679 17.3499 24.0001C17.3499 31.7321 23.6169 38 31.3482 38C34.4859 38.0047 37.5353 36.9495 39.9995 35.0067C36.7439 32.4436 34.6526 28.4656 34.6526 24.0001Z" fill="#EB001B"/>
<path fill-rule="evenodd" clip-rule="evenodd" d="M62.6503 24.0001C62.6503 31.7321 56.3832 38 48.6521 38C45.5139 38.0045 42.464 36.9495 39.9995 35.0067C43.2562 32.4432 45.3472 28.4656 45.3472 24.0001C45.3472 19.5343 43.2559 15.5568 39.9992 12.9933C42.4636 11.0504 45.5137 9.99546 48.6518 10C56.3831 10 62.6503 16.2679 62.6503 24.0001Z" fill="#F79410"/>
</svg>
