<svg width="40" height="24" viewBox="0 0 40 24" fill="none" xmlns="http://www.w3.org/2000/svg">
<rect x="0.500122" y="0.5" width="38.9999" height="23" rx="1.5" stroke="#DFE0E1"/>
<path d="M15.9654 9.8405H14.1946C14.074 9.8405 13.9704 9.92905 13.9515 10.0482L13.2353 14.589C13.234 14.5965 13.2335 14.6043 13.2335 14.6118C13.2335 14.6928 13.3 14.7594 13.3811 14.7594H14.2267C14.3474 14.7594 14.4512 14.6706 14.4699 14.5515L14.663 13.3267C14.6817 13.2076 14.7853 13.1188 14.9059 13.1188H15.4665C16.633 13.1188 17.3062 12.5543 17.482 11.4358C17.5612 10.9464 17.4854 10.5619 17.2562 10.2926C17.0045 9.99689 16.5581 9.8405 15.9654 9.8405ZM16.1697 11.4989C16.0729 12.1344 15.5874 12.1343 15.118 12.1343H14.8508L15.0382 10.9477C15.0496 10.8762 15.1118 10.8231 15.184 10.8231H15.3065C15.6263 10.8231 15.9279 10.8231 16.0838 11.0054C16.1767 11.1142 16.2052 11.2757 16.1697 11.4989ZM21.2587 11.4785H20.4107C20.3385 11.4785 20.2764 11.5316 20.265 11.603L20.2274 11.8402L20.1681 11.7542C19.9845 11.4878 19.5752 11.3987 19.1666 11.3987C18.2295 11.3987 17.4292 12.1085 17.2733 13.104C17.1923 13.6007 17.3075 14.0755 17.5892 14.4067C17.8476 14.7112 18.2174 14.8381 18.6573 14.8381C19.4123 14.8381 19.831 14.3526 19.831 14.3526L19.7932 14.5882C19.7919 14.596 19.7914 14.6038 19.7914 14.6115C19.7914 14.6923 19.8579 14.7591 19.9387 14.7591H20.7026C20.8232 14.7591 20.927 14.6703 20.9457 14.5512L21.404 11.6489C21.4053 11.6411 21.4058 11.6333 21.4058 11.6256C21.4058 11.5448 21.3395 11.4785 21.2587 11.4785ZM20.0767 13.1289C19.9949 13.6134 19.6104 13.9386 19.12 13.9386C18.8737 13.9386 18.677 13.8596 18.5506 13.7099C18.4253 13.5613 18.3776 13.3498 18.4175 13.1141C18.4939 12.6338 18.8849 12.298 19.3678 12.298C19.6086 12.298 19.8043 12.378 19.9333 12.529C20.0625 12.6815 20.1138 12.8943 20.0767 13.1289ZM25.775 11.4785H24.9228C24.8413 11.4785 24.7649 11.5191 24.7191 11.5865L23.5438 13.3177L23.0456 11.654C23.0143 11.5502 22.918 11.4785 22.8095 11.4785H21.9721C21.9718 11.4785 21.9723 11.4785 21.9721 11.4785C21.8913 11.4785 21.824 11.545 21.824 11.6261C21.824 11.6424 21.8268 11.6584 21.832 11.6737L22.7706 14.4282L21.8882 15.6739C21.8706 15.6988 21.861 15.7288 21.861 15.7594C21.861 15.8404 21.9275 15.9069 22.0086 15.9069H22.8597C22.9402 15.9069 23.0161 15.8676 23.0619 15.8013L25.8962 11.7102C25.9132 11.6856 25.9226 11.6561 25.9226 11.6261C25.9226 11.545 25.856 11.4785 25.775 11.4785Z" fill="#253B80"/>
<path d="M28.5962 9.8405H26.8252C26.7048 9.8405 26.6009 9.92906 26.5823 10.0482L25.8661 14.589C25.8648 14.5965 25.8643 14.6043 25.8643 14.612C25.8643 14.6928 25.9308 14.7594 26.0116 14.7594H26.9205C27.0049 14.7594 27.0774 14.6972 27.0903 14.6139L27.2936 13.3267C27.3122 13.2076 27.4158 13.1188 27.5364 13.1188H28.0968C29.2635 13.1188 29.9365 12.5543 30.1125 11.4358C30.192 10.9464 30.1156 10.5619 29.8865 10.2926C29.6351 9.9969 29.1889 9.8405 28.5962 9.8405ZM28.8005 11.4989C28.704 12.1344 28.2185 12.1344 27.7488 12.1344H27.4818L27.6695 10.9477C27.6807 10.8762 27.7428 10.8231 27.8151 10.8231H27.9375C28.257 10.8231 28.559 10.8231 28.7148 11.0054C28.8078 11.1142 28.836 11.2757 28.8005 11.4989ZM33.8893 11.4785H33.0418C32.9696 11.4782 32.9072 11.5316 32.8963 11.603L32.8587 11.8402L32.7992 11.7542C32.6156 11.4878 32.2065 11.3987 31.7979 11.3987C30.8608 11.3987 30.0607 12.1085 29.9049 13.104C29.8241 13.6007 29.9388 14.0755 30.2205 14.4067C30.4794 14.7112 30.8487 14.8381 31.2886 14.8381C32.0436 14.8381 32.4623 14.3526 32.4623 14.3526L32.4245 14.5882C32.4232 14.596 32.4227 14.6038 32.4227 14.6115C32.4227 14.6926 32.4892 14.7591 32.5703 14.7591H33.3341C33.4548 14.7591 33.5584 14.6703 33.577 14.5512L34.0356 11.6489C34.0366 11.6414 34.0374 11.6338 34.0374 11.6263C34.0374 11.5453 33.9703 11.4785 33.8893 11.4785ZM32.7073 13.1289C32.626 13.6134 32.2409 13.9386 31.7505 13.9386C31.5048 13.9386 31.3075 13.8596 31.1811 13.7099C31.0558 13.5613 31.0087 13.3498 31.048 13.1141C31.1249 12.6338 31.5154 12.298 31.9983 12.298C32.2391 12.298 32.4349 12.378 32.5638 12.529C32.6935 12.6815 32.7448 12.8943 32.7073 13.1289ZM34.889 9.96505L34.1622 14.589C34.1609 14.5965 34.1604 14.6043 34.1604 14.612C34.1604 14.6928 34.2269 14.7594 34.3077 14.7594H35.0384C35.1598 14.7594 35.2629 14.6713 35.2815 14.5515L35.9982 10.0109C35.9995 10.0034 36.0001 9.9956 36.0001 9.98783C36.0001 9.90705 35.9335 9.8405 35.8527 9.84025H35.0345C34.9623 9.8405 34.9001 9.89358 34.889 9.96505Z" fill="#179BD7"/>
<path d="M9.96786 10.0781C9.96061 10.1245 9.95232 10.1719 9.943 10.2206C9.62271 11.865 8.52692 12.4331 7.12741 12.4331H6.41483C6.24368 12.4331 6.09946 12.5574 6.07279 12.7262L5.70796 15.04L5.60464 15.6959C5.60309 15.7052 5.60231 15.7148 5.60231 15.7244C5.60231 15.8243 5.68465 15.9066 5.7846 15.9066H7.04843C7.19809 15.9066 7.32523 15.7979 7.34879 15.6503L7.36122 15.5861L7.59918 14.076L7.61445 13.9932C7.63776 13.845 7.76515 13.7363 7.91481 13.7363H8.10383C9.3283 13.7363 10.2869 13.2392 10.567 11.8005C10.6841 11.1996 10.6235 10.6978 10.3138 10.3448C10.2157 10.2356 10.0984 10.1452 9.96786 10.0781Z" fill="#179BD7"/>
<path d="M9.63297 9.94473C9.53069 9.91521 9.4266 9.89217 9.32148 9.8756C9.11356 9.84375 8.90356 9.82821 8.69331 9.82977H6.78967C6.64053 9.82977 6.51236 9.93929 6.48957 10.0866L6.08461 12.6516L6.07279 12.7262C6.09868 12.5582 6.24498 12.4331 6.41483 12.4331H7.12741C8.52692 12.4331 9.62271 11.865 9.943 10.2206C9.95232 10.1719 9.96061 10.1245 9.96786 10.0781C9.88345 10.0339 9.79532 9.99678 9.70469 9.96726C9.68087 9.95949 9.65705 9.95198 9.63297 9.94473Z" fill="#222D65"/>
<path d="M6.48957 10.0866C6.51236 9.93929 6.64053 9.82977 6.78967 9.82977H8.69331C8.91884 9.82977 9.12935 9.84453 9.32148 9.8756C9.45146 9.89605 9.57937 9.92686 9.70469 9.96726C9.7992 9.99859 9.88681 10.0354 9.96786 10.0781C10.0631 9.47044 9.9674 9.05675 9.63882 8.68208C9.27658 8.26961 8.62278 8.09302 7.78618 8.09302H5.35743C5.18654 8.09302 5.04076 8.2173 5.01435 8.38638L4.00271 14.7988C4.0009 14.8096 4.00012 14.8205 4.00012 14.8314C4.00012 14.9458 4.09411 15.0398 4.20856 15.0401L5.70796 15.04L6.08461 12.6516L6.48957 10.0866Z" fill="#253B80"/>
</svg>
