<svg width="42" height="48" viewBox="0 0 42 48" fill="none" xmlns="http://www.w3.org/2000/svg">
<circle cx="21" cy="21" r="21" fill="#3B4047"/>
<path d="M21 48L14.0718 39L27.9282 39L21 48Z" fill="#3B4047"/>
<path d="M32.8456 14.2443C32.4271 13.7404 31.6991 14.1442 31.3784 14.3202C29.0932 15.5934 28.7569 17.8354 27.9614 19.1225C27.335 20.1527 26.3092 20.9098 25.3812 20.9689C24.6953 21.0151 23.9517 20.8896 23.2133 20.5859C21.4067 19.8466 20.4328 18.8907 20.1962 18.722C19.7093 18.3726 15.9667 14.9238 12.9166 14.7838C12.9166 14.7838 12.5448 14.0745 12.4519 14.062C12.2279 14.0376 11.9998 14.4886 11.8342 14.5355C11.6839 14.585 11.4217 14.0514 11.269 14.0745C11.1166 14.0944 10.9681 14.6293 10.67 14.9046C10.4509 15.1057 10.1838 15.0928 10.0328 15.3428C9.98064 15.4336 9.99873 15.5937 9.9396 15.7397C9.81299 16.0435 9.38865 16.0748 9.38447 16.3994C9.38447 16.76 9.74169 16.8286 10.0537 17.0796C10.3017 17.2807 10.3184 17.4227 10.6081 17.5164C10.8655 17.5996 11.2401 17.3398 11.5719 17.4329C11.8485 17.5098 12.1145 17.565 12.1744 17.8331C12.2279 18.0754 12.1744 18.4552 11.8332 18.4129C11.7218 18.3987 11.2359 18.2481 10.6356 18.3092C9.91108 18.3812 9.08291 18.6011 9.00221 19.3582C8.96047 19.7822 9.5163 20.2771 10.0572 20.1784C10.4283 20.1107 10.2533 19.6996 10.4558 19.5005C10.7229 19.2446 12.2279 20.3937 13.6279 20.3937C14.2203 20.3937 14.6589 20.252 15.0954 19.8215C15.1337 19.7944 15.1879 19.7251 15.2505 19.7185C15.3065 19.7251 15.4123 19.7786 15.4446 19.801C16.5761 20.6489 17.4282 22.3544 21.5757 22.3745C22.1569 22.3811 22.824 22.6383 23.3705 23.1088C23.8501 23.5183 24.1343 24.1737 24.408 24.8347C24.8265 25.8313 25.5694 26.7928 26.7002 27.8662C26.76 27.9296 27.6905 28.6038 27.7593 28.6537C27.7722 28.6636 27.8438 28.8119 27.8129 28.8951C27.7934 29.5479 27.6904 31.4207 29.1791 31.4989C29.5444 31.5178 29.4529 31.28 29.4529 31.1113C29.4487 30.788 29.3892 30.4625 29.5659 30.1273C29.8198 29.674 29.0407 29.4564 29.0574 28.4658C29.0765 27.7239 28.4118 27.85 28.0738 27.2844C27.8824 26.9595 27.7051 26.7802 27.7238 26.3886C27.7958 24.1367 27.2063 22.6542 26.919 22.2953C26.6908 22.0179 26.4953 21.9145 26.7113 21.7858C27.9527 21.0135 28.2362 20.296 28.2362 20.296C28.8971 18.8385 29.4922 17.5098 30.3117 16.9194C30.4776 16.8055 30.9002 16.5034 31.1628 16.3898C31.9273 16.0468 32.336 15.843 32.5513 15.6446C32.9075 15.325 33.1861 14.6481 32.8456 14.2446V14.2443Z" fill="white"/>
</svg>
