<svg width="40" height="40" viewBox="0 0 40 40" fill="none" xmlns="http://www.w3.org/2000/svg">
<path d="M22 10H18V11H13.3C13.1343 11 13 11.1343 13 11.3V13H27V11.3C27 11.1343 26.8657 11 26.7 11H22V10Z" fill="#191919"/>
<path d="M22 18V25H21V18H22Z" fill="#191919"/>
<path d="M19 25L19 18H18V25H19Z" fill="#191919"/>
<path fill-rule="evenodd" clip-rule="evenodd" d="M25.7953 28.6822L27 14L13 14L14.2047 28.6822C14.2194 28.8618 14.3695 29 14.5497 29H25.4503C25.6305 29 25.7806 28.8617 25.7953 28.6822ZM15.1708 16L16.0734 27H23.9266L24.8292 16L15.1708 16Z" fill="#191919"/>
</svg>
