<svg width="25" height="24" viewBox="0 0 25 24" fill="none" xmlns="http://www.w3.org/2000/svg">
<g id="Truck">
<g id="Vector">
<path fill-rule="evenodd" clip-rule="evenodd" d="M4.50003 8H14.5L14.5 16H11.2324C10.8866 15.4022 10.2403 15 9.5 15C8.75972 15 8.11337 15.4022 7.76756 16H6.50003V15H4.50003V18H7.76756C8.11337 18.5978 8.75972 19 9.5 19C10.2403 19 10.8866 18.5978 11.2324 18H16.7676C17.1134 18.5978 17.7597 19 18.5 19C19.2403 19 19.8866 18.5978 20.2324 18H22.5V12.6667L20.1 10H16.5V6H4.50003V8ZM18.5 15C17.7597 15 17.1134 15.4022 16.7676 16H16.5V12H19.2093L20.5 13.4341V16H20.2324C19.8866 15.4022 19.2403 15 18.5 15ZM18.5 17.6667C18.8682 17.6667 19.1666 17.3682 19.1666 17C19.1666 16.6319 18.8682 16.3334 18.5 16.3334C18.1318 16.3334 17.8333 16.6319 17.8333 17C17.8333 17.3682 18.1318 17.6667 18.5 17.6667ZM10.1666 17C10.1666 17.3682 9.86817 17.6667 9.49998 17.6667C9.13179 17.6667 8.83331 17.3682 8.83331 17C8.83331 16.6319 9.13179 16.3334 9.49998 16.3334C9.86817 16.3334 10.1666 16.6319 10.1666 17Z" fill="#4D7D04"/>
<path d="M10.5 10H3.5V11H10.5V10Z" fill="#4D7D04"/>
<path d="M2.5 12H9.5V13H2.5V12Z" fill="#4D7D04"/>
</g>
</g>
</svg>
