<svg width="24" height="24" viewBox="0 0 24 24" fill="none" xmlns="http://www.w3.org/2000/svg">
<path fill-rule="evenodd" clip-rule="evenodd" d="M4.00003 8H14L14 16H10.7324C10.3866 15.4022 9.74028 15 9 15C8.25972 15 7.61337 15.4022 7.26756 16H6.00003V15H4.00003V18H7.26756C7.61337 18.5978 8.25972 19 9 19C9.74028 19 10.3866 18.5978 10.7324 18H16.2676C16.6134 18.5978 17.2597 19 18 19C18.7403 19 19.3866 18.5978 19.7324 18H22V12.6667L19.6 10H16V6H4.00003V8ZM18 15C17.2597 15 16.6134 15.4022 16.2676 16H16V12H18.7093L20 13.4341V16H19.7324C19.3866 15.4022 18.7403 15 18 15ZM18 17.6667C18.3682 17.6667 18.6666 17.3682 18.6666 17C18.6666 16.6319 18.3682 16.3334 18 16.3334C17.6318 16.3334 17.3333 16.6319 17.3333 17C17.3333 17.3682 17.6318 17.6667 18 17.6667ZM9.66665 17C9.66665 17.3682 9.36817 17.6667 8.99998 17.6667C8.63179 17.6667 8.33331 17.3682 8.33331 17C8.33331 16.6319 8.63179 16.3334 8.99998 16.3334C9.36817 16.3334 9.66665 16.6319 9.66665 17Z" fill="#4D7D04"/>
<path d="M10 10H3V11H10V10Z" fill="#4D7D04"/>
<path d="M2 12H9V13H2V12Z" fill="#4D7D04"/>
</svg>
