<svg width="48" height="48" viewBox="0 0 48 48" fill="none" xmlns="http://www.w3.org/2000/svg">
<path fill-rule="evenodd" clip-rule="evenodd" d="M8.00006 16H28L28 32H21.4649C20.7733 30.8044 19.4806 30 18 30C16.5194 30 15.2267 30.8044 14.5351 32H12.0001V30H8.00006V36H14.5351C15.2267 37.1956 16.5194 38 18 38C19.4806 38 20.7733 37.1956 21.4649 36H32.5351C33.2267 37.1956 34.5194 38 36 38C37.4806 38 38.7733 37.1956 39.4649 36H44V25.3333L39.2 20H32V12H8.00006V16ZM36 30C34.5194 30 33.2267 30.8044 32.5351 32H32V24H37.4185L40 26.8683V32H39.4649C38.7733 30.8044 37.4806 30 36 30ZM36 35.3334C36.7363 35.3334 37.3333 34.7365 37.3333 34.0001C37.3333 33.2637 36.7363 32.6667 36 32.6667C35.2636 32.6667 34.6666 33.2637 34.6666 34.0001C34.6666 34.7365 35.2636 35.3334 36 35.3334ZM19.3333 34.0001C19.3333 34.7365 18.7363 35.3334 18 35.3334C17.2636 35.3334 16.6666 34.7365 16.6666 34.0001C16.6666 33.2637 17.2636 32.6667 18 32.6667C18.7363 32.6667 19.3333 33.2637 19.3333 34.0001Z" fill="#191919"/>
<path d="M20 20H6V22H20V20Z" fill="#191919"/>
<path d="M4 24H18V26H4V24Z" fill="#191919"/>
</svg>
