<svg width="40" height="40" viewBox="0 0 40 40" fill="none" xmlns="http://www.w3.org/2000/svg">
<path fill-rule="evenodd" clip-rule="evenodd" d="M16.4812 24.5799C16.5526 24.5745 16.6197 24.5436 16.6703 24.493L24.9184 16.2449L20.7551 12.0817L12.507 20.3297C12.4564 20.3803 12.4256 20.4474 12.4201 20.5188L12.1085 24.5694C12.0944 24.7528 12.2472 24.9056 12.4306 24.8915L16.4812 24.5799ZM20.7551 14.9101L14.3659 21.2992L14.2547 22.7453L15.7008 22.6341L22.0899 16.2449L20.7551 14.9101ZM12.2772 22.8974L12.2785 22.8973L12.2772 22.8974Z" fill="#191919"/>
<path d="M22.6246 10.2121C22.7418 10.095 22.9317 10.095 23.0489 10.2121L26.7879 13.9511C26.905 14.0683 26.905 14.2582 26.7879 14.3754L25.6122 15.551L21.449 11.3878L22.6246 10.2121Z" fill="#191919"/>
<path d="M12 27H28V29H12V27Z" fill="#191919"/>
</svg>
