<svg width="40" height="24" viewBox="0 0 40 24" fill="none" xmlns="http://www.w3.org/2000/svg">
<rect x="0.5" y="0.5" width="39" height="23" rx="1.5" stroke="#DFE0E1"/>
<path fill-rule="evenodd" clip-rule="evenodd" d="M20.4809 10.3697C20.4649 11.6292 21.6034 12.332 22.461 12.7499C23.3422 13.1788 23.6381 13.4537 23.6347 13.8371C23.628 14.424 22.9318 14.6829 22.2803 14.693C21.1435 14.7106 20.4826 14.3861 19.9571 14.1406L19.5477 16.0567C20.0748 16.2998 21.051 16.5117 22.0633 16.5209C24.4394 16.5209 25.994 15.348 26.0024 13.5294C26.0117 11.2214 22.8099 11.0936 22.8318 10.0619C22.8393 9.74917 23.1378 9.41534 23.792 9.33043C24.1157 9.28759 25.0094 9.25476 26.0226 9.72139L26.4203 7.8675C25.8755 7.66905 25.175 7.479 24.3032 7.479C22.0667 7.479 20.4936 8.66788 20.4809 10.3697ZM30.2417 7.63874C29.8078 7.63874 29.4421 7.89186 29.279 8.28029L25.8847 16.3847H28.2591L28.7316 15.0789H31.6332L31.9073 16.3847H34L32.1738 7.63874H30.2417ZM30.5738 10.0014L31.259 13.2855H29.3824L30.5738 10.0014ZM17.6021 7.63874L15.7305 16.3847H17.993L19.8638 7.63874H17.6021ZM14.2549 7.63874L11.8998 13.5915L10.9472 8.52998C10.8354 7.96501 10.394 7.63874 9.90376 7.63874H6.05383L6 7.8927C6.79037 8.0642 7.68833 8.34084 8.2323 8.6368C8.56522 8.81754 8.66028 8.9756 8.76955 9.40526L10.5739 16.3847H12.9651L16.631 7.63874H14.2549Z" fill="#1A1F71"/>
</svg>
