<svg width="80" height="48" viewBox="0 0 80 48" fill="none" xmlns="http://www.w3.org/2000/svg">
<path fill-rule="evenodd" clip-rule="evenodd" d="M40.9618 20.7394C40.9299 23.2585 43.2068 24.6642 44.922 25.5C46.6843 26.3576 47.2762 26.9076 47.2695 27.6743C47.2561 28.8481 45.8636 29.366 44.5605 29.3861C42.2869 29.4214 40.9652 28.7724 39.9142 28.2814L39.0953 32.1136C40.1497 32.5997 42.102 33.0235 44.1266 33.0419C48.8788 33.0419 51.9879 30.6961 52.0049 27.0589C52.0233 22.443 45.6199 22.1873 45.6636 20.124C45.6787 19.4985 46.2756 18.8308 47.5839 18.661C48.2313 18.5753 50.0188 18.5097 52.0452 19.4429L52.8405 15.7351C51.7509 15.3382 50.3501 14.9581 48.6064 14.9581C44.1334 14.9581 40.9871 17.3359 40.9618 20.7394ZM60.4834 15.2776C59.6157 15.2776 58.8842 15.7839 58.558 16.5607L51.7694 32.7695H56.5182L57.4632 30.1579H63.2663L63.8146 32.7695H68L64.3475 15.2776H60.4834ZM61.1476 20.0029L62.518 26.5711H58.7648L61.1476 20.0029ZM35.2042 15.2776L31.461 32.7695H35.9861L39.7276 15.2776H35.2042ZM28.5098 15.2776L23.7996 27.1832L21.8944 17.0601C21.6708 15.9302 20.7879 15.2776 19.8075 15.2776H12.1077L12 15.7855C13.5807 16.1285 15.3767 16.6818 16.4646 17.2737C17.1304 17.6352 17.3206 17.9513 17.5391 18.8107L21.1477 32.7695H25.9303L33.2619 15.2776H28.5098Z" fill="#1A1F71"/>
</svg>
